{"glyphs":{"0":{"ha":1128,"x_min":37,"x_max":1092,"o":"m 564 -24 q 347 8 444 -24 q 181 103 250 40 q 74 264 111 166 q 37 489 37 361 q 74 713 37 616 q 182 873 112 811 q 348 967 252 935 q 564 998 444 998 q 781 967 684 998 q 947 873 877 935 q 1054 713 1017 810 q 1092 489 1092 616 q 951 106 1092 237 q 564 -24 811 -24 m 476 710 q 464 676 476 710 q 451 489 451 642 q 476 266 451 336 q 564 195 502 195 q 653 266 627 195 q 678 489 678 336 q 653 710 678 642 q 564 779 627 779 q 476 710 502 779 z "},"1":{"ha":777,"x_min":22,"x_max":712,"o":"m 313 0 l 313 581 l 22 581 l 22 854 l 158 854 q 259 866 225 854 q 306 902 294 878 q 319 972 318 926 l 712 972 l 712 0 l 313 0 z "},"2":{"ha":1087,"x_min":23,"x_max":1042,"o":"m 50 0 l 50 218 l 431 466 q 491 509 473 495 q 541 549 509 522 q 586 594 572 575 q 611 639 600 612 q 623 694 623 666 q 601 758 623 733 q 538 782 579 782 q 468 751 493 782 q 442 659 442 721 q 444 624 442 637 l 23 624 q 67 792 26 720 q 178 910 108 865 q 341 977 249 955 q 546 1000 434 1000 q 737 980 650 1000 q 892 923 825 961 q 997 823 959 885 q 1035 682 1035 761 q 1023 596 1035 636 q 988 523 1012 557 q 936 461 964 489 q 866 406 908 434 q 787 358 824 378 q 698 311 750 337 l 552 237 l 1042 237 l 1042 0 l 50 0 z "},"3":{"ha":1082,"x_min":24,"x_max":1045,"o":"m 538 -24 q 276 11 388 -24 q 97 120 164 45 q 24 302 29 194 l 438 302 q 464 214 438 247 q 537 182 489 182 q 608 208 583 182 q 633 284 633 234 q 508 391 633 391 l 392 391 l 392 610 l 507 610 q 598 633 571 610 q 626 707 626 656 q 603 771 626 749 q 539 793 579 793 q 468 765 494 793 q 441 682 442 737 l 31 682 q 107 857 37 784 q 288 963 177 929 q 538 998 399 998 q 726 982 640 998 q 881 933 812 966 q 988 848 949 901 q 1027 724 1027 794 q 969 581 1027 637 q 819 500 912 526 q 905 476 865 493 q 976 431 944 458 q 1027 363 1008 404 q 1045 270 1045 321 q 1019 158 1045 208 q 947 75 993 109 q 837 19 901 41 q 697 -14 772 -3 q 538 -24 623 -24 z "},"4":{"ha":1118,"x_min":21,"x_max":1083,"o":"m 559 0 l 559 174 l 21 174 l 21 433 l 380 972 l 940 972 l 940 408 l 1083 408 l 1083 174 l 940 174 l 940 0 l 559 0 m 353 408 l 559 408 l 559 728 l 353 408 z "},"5":{"ha":1100,"x_min":34,"x_max":1065,"o":"m 544 -24 q 281 10 393 -24 q 104 118 170 44 q 34 300 37 191 l 449 300 q 476 219 451 250 q 547 188 502 188 q 622 225 595 188 q 649 334 649 262 q 545 469 649 469 q 475 447 505 469 q 435 389 446 425 l 69 389 l 69 972 l 1010 972 l 1010 747 l 451 747 l 451 574 q 563 654 490 624 q 730 684 636 684 q 857 663 797 684 q 964 603 917 642 q 1038 499 1010 563 q 1065 357 1065 436 q 1025 183 1065 258 q 915 64 986 109 q 750 -2 843 20 q 544 -24 658 -24 z "},"6":{"ha":1107,"x_min":37,"x_max":1072,"o":"m 570 -26 q 176 106 316 -26 q 37 488 37 238 q 176 869 37 739 q 572 1000 315 1000 q 910 916 781 1000 q 1051 693 1039 832 l 661 693 q 633 762 658 737 q 566 787 609 787 q 468 736 500 787 q 436 578 436 686 q 439 513 436 549 q 550 603 475 570 q 723 636 624 636 q 856 617 794 636 q 967 563 918 599 q 1044 466 1016 526 q 1072 329 1072 406 q 1046 198 1072 257 q 975 98 1021 139 q 866 29 929 57 q 728 -13 802 1 q 570 -26 654 -26 m 460 308 q 487 216 460 249 q 561 182 515 182 q 634 215 608 182 q 660 308 660 248 q 633 399 660 367 q 559 432 606 432 q 486 400 513 432 q 460 308 460 368 z "},"7":{"ha":942,"x_min":16,"x_max":919,"o":"m 195 0 q 228 221 197 113 q 308 420 258 330 q 422 585 358 511 q 561 714 487 660 l 16 714 l 16 972 l 919 972 l 919 705 q 693 406 770 576 q 616 0 616 236 l 195 0 z "},"8":{"ha":1118,"x_min":35,"x_max":1082,"o":"m 944 54 q 875 15 944 54 q 559 -23 806 -23 q 174 54 312 -23 q 35 270 35 131 q 96 426 35 367 q 256 511 156 485 q 58 732 58 574 q 192 928 58 859 q 559 997 325 997 q 927 928 793 997 q 1061 732 1061 859 q 861 510 1061 576 q 1022 427 962 486 q 1082 270 1082 368 q 944 54 1082 131 m 452 290 q 481 209 452 238 q 559 179 511 179 q 636 209 607 179 q 665 290 665 238 q 636 370 665 340 q 559 399 607 399 q 481 370 511 399 q 452 290 452 340 m 486 769 q 472 756 486 769 q 458 697 458 743 q 486 625 458 652 q 559 599 514 599 q 632 625 604 599 q 660 697 660 652 q 632 769 660 742 q 559 795 604 795 q 486 769 514 795 z "},"9":{"ha":1105,"x_min":36,"x_max":1069,"o":"m 530 -27 q 186 54 314 -27 q 52 275 59 134 l 444 275 q 473 210 447 234 q 545 185 499 185 q 638 243 610 185 q 666 420 666 300 q 665 457 666 433 q 554 372 623 404 q 392 340 485 340 q 256 359 319 340 q 143 415 193 378 q 65 513 94 452 q 36 650 36 573 q 61 779 36 721 q 130 878 85 837 q 235 946 174 918 q 370 986 297 973 q 527 999 444 999 q 924 868 779 999 q 1069 500 1069 738 q 928 107 1069 241 q 530 -27 787 -27 m 448 675 q 475 583 448 616 q 548 550 502 550 q 621 583 595 550 q 647 675 647 615 q 619 763 647 732 q 545 794 591 794 q 473 763 499 794 q 448 675 448 732 z "},"±":{"ha":1103,"x_min":58,"x_max":1044,"o":"m 58 0 l 58 972 l 1044 972 l 1044 0 l 58 0 m 407 237 l 696 237 l 696 736 l 407 736 l 407 237 z "},"ȴ":{"ha":1103,"x_min":58,"x_max":1044,"o":"m 58 0 l 58 972 l 1044 972 l 1044 0 l 58 0 m 407 237 l 696 237 l 696 736 l 407 736 l 407 237 z "},"ȵ":{"ha":1103,"x_min":58,"x_max":1044,"o":"m 58 0 l 58 972 l 1044 972 l 1044 0 l 58 0 m 407 237 l 696 237 l 696 736 l 407 736 l 407 237 z "},"ȶ":{"ha":1103,"x_min":58,"x_max":1044,"o":"m 58 0 l 58 972 l 1044 972 l 1044 0 l 58 0 m 407 237 l 696 237 l 696 736 l 407 736 l 407 237 z "},"―":{"ha":1103,"x_min":58,"x_max":1044,"o":"m 58 0 l 58 972 l 1044 972 l 1044 0 l 58 0 m 407 237 l 696 237 l 696 736 l 407 736 l 407 237 z "},"‖":{"ha":1103,"x_min":58,"x_max":1044,"o":"m 58 0 l 58 972 l 1044 972 l 1044 0 l 58 0 m 407 237 l 696 237 l 696 736 l 407 736 l 407 237 z "},"‗":{"ha":1103,"x_min":58,"x_max":1044,"o":"m 58 0 l 58 972 l 1044 972 l 1044 0 l 58 0 m 407 237 l 696 237 l 696 736 l 407 736 l 407 237 z "},"‛":{"ha":1103,"x_min":58,"x_max":1044,"o":"m 58 0 l 58 972 l 1044 972 l 1044 0 l 58 0 m 407 237 l 696 237 l 696 736 l 407 736 l 407 237 z "},"‟":{"ha":1103,"x_min":58,"x_max":1044,"o":"m 58 0 l 58 972 l 1044 972 l 1044 0 l 58 0 m 407 237 l 696 237 l 696 736 l 407 736 l 407 237 z "},"‣":{"ha":1103,"x_min":58,"x_max":1044,"o":"m 58 0 l 58 972 l 1044 972 l 1044 0 l 58 0 m 407 237 l 696 237 l 696 736 l 407 736 l 407 237 z "},"․":{"ha":1103,"x_min":58,"x_max":1044,"o":"m 58 0 l 58 972 l 1044 972 l 1044 0 l 58 0 m 407 237 l 696 237 l 696 736 l 407 736 l 407 237 z "},"‥":{"ha":1103,"x_min":58,"x_max":1044,"o":"m 58 0 l 58 972 l 1044 972 l 1044 0 l 58 0 m 407 237 l 696 237 l 696 736 l 407 736 l 407 237 z "},"※":{"ha":1103,"x_min":58,"x_max":1044,"o":"m 58 0 l 58 972 l 1044 972 l 1044 0 l 58 0 m 407 237 l 696 237 l 696 736 l 407 736 l 407 237 z "},"‼":{"ha":1103,"x_min":58,"x_max":1044,"o":"m 58 0 l 58 972 l 1044 972 l 1044 0 l 58 0 m 407 237 l 696 237 l 696 736 l 407 736 l 407 237 z "},"₪":{"ha":1103,"x_min":58,"x_max":1044,"o":"m 58 0 l 58 972 l 1044 972 l 1044 0 l 58 0 m 407 237 l 696 237 l 696 736 l 407 736 l 407 237 z "},"₫":{"ha":1103,"x_min":58,"x_max":1044,"o":"m 58 0 l 58 972 l 1044 972 l 1044 0 l 58 0 m 407 237 l 696 237 l 696 736 l 407 736 l 407 237 z "},"↔":{"ha":1103,"x_min":58,"x_max":1044,"o":"m 58 0 l 58 972 l 1044 972 l 1044 0 l 58 0 m 407 237 l 696 237 l 696 736 l 407 736 l 407 237 z "},"↕":{"ha":1103,"x_min":58,"x_max":1044,"o":"m 58 0 l 58 972 l 1044 972 l 1044 0 l 58 0 m 407 237 l 696 237 l 696 736 l 407 736 l 407 237 z "},"▴":{"ha":1103,"x_min":58,"x_max":1044,"o":"m 58 0 l 58 972 l 1044 972 l 1044 0 l 58 0 m 407 237 l 696 237 l 696 736 l 407 736 l 407 237 z "},"▵":{"ha":1103,"x_min":58,"x_max":1044,"o":"m 58 0 l 58 972 l 1044 972 l 1044 0 l 58 0 m 407 237 l 696 237 l 696 736 l 407 736 l 407 237 z "},"▾":{"ha":1103,"x_min":58,"x_max":1044,"o":"m 58 0 l 58 972 l 1044 972 l 1044 0 l 58 0 m 407 237 l 696 237 l 696 736 l 407 736 l 407 237 z "},"▿":{"ha":1103,"x_min":58,"x_max":1044,"o":"m 58 0 l 58 972 l 1044 972 l 1044 0 l 58 0 m 407 237 l 696 237 l 696 736 l 407 736 l 407 237 z "},"◈":{"ha":1103,"x_min":58,"x_max":1044,"o":"m 58 0 l 58 972 l 1044 972 l 1044 0 l 58 0 m 407 237 l 696 237 l 696 736 l 407 736 l 407 237 z "},"◉":{"ha":1103,"x_min":58,"x_max":1044,"o":"m 58 0 l 58 972 l 1044 972 l 1044 0 l 58 0 m 407 237 l 696 237 l 696 736 l 407 736 l 407 237 z "},"◊":{"ha":1103,"x_min":58,"x_max":1044,"o":"m 58 0 l 58 972 l 1044 972 l 1044 0 l 58 0 m 407 237 l 696 237 l 696 736 l 407 736 l 407 237 z "},"◌":{"ha":1103,"x_min":58,"x_max":1044,"o":"m 58 0 l 58 972 l 1044 972 l 1044 0 l 58 0 m 407 237 l 696 237 l 696 736 l 407 736 l 407 237 z "},"◍":{"ha":1103,"x_min":58,"x_max":1044,"o":"m 58 0 l 58 972 l 1044 972 l 1044 0 l 58 0 m 407 237 l 696 237 l 696 736 l 407 736 l 407 237 z "},"◎":{"ha":1103,"x_min":58,"x_max":1044,"o":"m 58 0 l 58 972 l 1044 972 l 1044 0 l 58 0 m 407 237 l 696 237 l 696 736 l 407 736 l 407 237 z "},"♢":{"ha":1103,"x_min":58,"x_max":1044,"o":"m 58 0 l 58 972 l 1044 972 l 1044 0 l 58 0 m 407 237 l 696 237 l 696 736 l 407 736 l 407 237 z "},"♣":{"ha":1103,"x_min":58,"x_max":1044,"o":"m 58 0 l 58 972 l 1044 972 l 1044 0 l 58 0 m 407 237 l 696 237 l 696 736 l 407 736 l 407 237 z "},"♤":{"ha":1103,"x_min":58,"x_max":1044,"o":"m 58 0 l 58 972 l 1044 972 l 1044 0 l 58 0 m 407 237 l 696 237 l 696 736 l 407 736 l 407 237 z "}," ":{"ha":298,"x_min":0,"x_max":0,"o":""},"!":{"ha":481,"x_min":41,"x_max":439,"o":"m 240 -20 q 106 28 159 -20 q 54 147 54 76 q 106 264 54 217 q 240 311 159 311 q 374 264 321 311 q 427 147 427 217 q 374 28 427 76 q 240 -20 321 -20 m 41 972 l 439 972 l 386 345 l 95 345 l 41 972 z "},"\"":{"ha":804,"x_min":56,"x_max":747,"o":"m 56 524 l 56 972 l 367 972 l 367 524 l 56 524 m 436 524 l 436 972 l 747 972 l 747 524 l 436 524 z "},"#":{"ha":1190,"x_min":47,"x_max":1142,"o":"m 616 0 l 637 203 l 496 203 l 474 0 l 121 0 l 143 203 l 47 203 l 47 422 l 166 422 l 182 568 l 47 568 l 47 786 l 205 786 l 225 972 l 578 972 l 558 786 l 700 786 l 720 972 l 1072 972 l 1053 786 l 1142 786 l 1142 568 l 1029 568 l 1013 422 l 1142 422 l 1142 203 l 990 203 l 968 0 l 616 0 m 519 422 l 661 422 l 676 568 l 534 568 l 519 422 z "},"$":{"ha":1086,"x_min":21,"x_max":1065,"o":"m 399 -126 l 399 -19 q 123 78 224 2 q 21 283 23 154 l 446 283 q 475 205 446 232 q 554 178 504 178 q 617 194 593 178 q 641 244 641 211 q 614 298 641 279 q 528 336 588 318 l 363 382 q 290 405 322 394 q 222 432 258 416 q 160 464 186 448 q 109 503 134 480 q 68 551 84 526 q 43 608 52 576 q 33 678 33 641 q 61 802 33 747 q 138 894 88 857 q 253 955 189 931 q 397 989 318 978 l 397 1094 l 682 1094 l 682 988 q 792 964 741 979 q 889 924 844 949 q 968 867 935 899 q 1022 792 1002 836 q 1044 698 1042 749 l 634 698 q 605 771 631 747 q 536 795 579 795 q 473 777 498 795 q 448 728 448 758 q 455 700 448 712 q 477 679 461 688 q 506 664 492 669 q 547 650 520 658 l 737 597 q 842 561 798 578 q 931 516 886 543 q 1003 459 975 490 q 1047 384 1030 428 q 1065 286 1065 339 q 1037 163 1065 217 q 957 72 1009 109 q 838 13 905 35 q 684 -20 770 -9 l 684 -126 l 399 -126 z "},"%":{"ha":1230,"x_min":19,"x_max":1211,"o":"m 118 0 l 861 972 l 1105 972 l 362 0 l 118 0 m 19 747 q 92 928 19 861 q 283 996 165 996 q 474 928 399 996 q 548 747 548 861 q 476 565 548 632 q 283 498 404 498 q 91 565 163 498 q 19 747 19 632 m 247 844 q 242 828 247 844 q 237 747 237 812 q 247 650 237 682 q 283 618 257 618 q 320 650 310 618 q 330 747 330 682 q 320 843 330 812 q 283 875 309 875 q 247 844 257 875 m 682 231 q 755 412 682 345 q 946 479 829 479 q 1137 412 1063 479 q 1211 231 1211 345 q 1139 48 1211 115 q 946 -19 1067 -19 q 754 48 826 -19 q 682 231 682 115 m 910 327 q 906 311 910 327 q 901 231 901 296 q 910 133 901 165 q 946 101 920 101 q 983 133 973 101 q 994 231 994 165 q 983 327 994 295 q 946 358 972 358 q 910 327 920 358 z "},"&":{"ha":1272,"x_min":26,"x_max":1282,"o":"m 469 -25 q 145 49 263 -25 q 26 257 26 123 q 87 418 26 356 q 263 516 147 480 l 247 531 q 167 616 194 576 q 140 715 140 657 q 200 871 140 807 q 357 966 259 936 q 581 996 455 996 q 745 983 670 996 q 880 941 820 969 q 974 867 940 913 q 1008 758 1008 820 q 994 684 1008 718 q 959 625 981 650 q 900 575 937 600 q 827 533 863 551 q 737 494 790 515 l 856 385 q 918 524 890 446 l 1255 524 q 1052 209 1183 339 l 1282 0 l 857 0 l 800 51 q 469 -25 661 -25 m 426 296 q 462 216 426 243 q 567 189 498 189 q 630 197 600 189 l 439 363 q 426 296 426 332 m 501 747 q 554 656 501 701 l 577 637 q 654 747 654 680 q 633 799 654 781 q 580 818 612 818 q 523 798 544 818 q 501 747 501 778 z "},"'":{"ha":444,"x_min":56,"x_max":387,"o":"m 56 505 l 56 972 l 387 972 l 387 505 l 56 505 z "},"(":{"ha":543,"x_min":37,"x_max":515,"o":"m 178 -167 q 72 152 107 3 q 37 449 37 300 q 182 1035 37 732 l 515 1035 q 431 450 431 715 q 453 161 431 307 q 515 -167 474 16 l 178 -167 z "},")":{"ha":543,"x_min":27,"x_max":506,"o":"m 27 -167 q 90 161 68 16 q 111 450 111 307 q 27 1035 111 715 l 360 1035 q 506 449 506 732 q 471 152 506 300 q 364 -167 435 3 l 27 -167 z "},"*":{"ha":746,"x_min":18,"x_max":728,"o":"m 18 629 l 90 852 l 279 766 l 256 972 l 490 972 l 467 766 l 655 852 l 728 629 l 525 588 l 664 435 l 475 298 l 373 477 l 270 298 l 81 435 l 220 588 l 18 629 z "},"+":{"ha":862,"x_min":15,"x_max":848,"o":"m 281 71 l 281 325 l 15 325 l 15 565 l 281 565 l 281 804 l 581 804 l 581 565 l 848 565 l 848 325 l 581 325 l 581 71 l 281 71 z "},",":{"ha":438,"x_min":11,"x_max":407,"o":"m 11 -169 l 67 240 l 407 240 l 303 -169 l 11 -169 z "},"-":{"ha":612,"x_min":59,"x_max":553,"o":"m 59 313 l 59 578 l 553 578 l 553 313 l 59 313 z "},".":{"ha":433,"x_min":24,"x_max":408,"o":"m 354 32 q 327 7 354 32 q 216 -18 300 -18 q 79 32 133 -18 q 24 156 24 81 q 79 279 24 230 q 216 328 133 328 q 354 279 300 328 q 408 156 408 230 q 354 32 408 81 z "},"/":{"ha":789,"x_min":14,"x_max":776,"o":"m 14 0 l 374 972 l 776 972 l 416 0 l 14 0 z "},":":{"ha":466,"x_min":41,"x_max":425,"o":"m 370 32 q 343 7 370 32 q 233 -18 316 -18 q 95 32 149 -18 q 41 156 41 81 q 95 279 41 230 q 233 328 149 328 q 370 279 316 328 q 425 156 425 230 q 370 32 425 81 m 41 596 q 95 719 41 670 q 233 768 149 768 q 370 719 316 768 q 425 596 425 670 q 370 472 425 522 q 233 422 316 422 q 95 472 149 422 q 41 596 41 522 z "},";":{"ha":471,"x_min":24,"x_max":431,"o":"m 24 -169 l 80 240 l 420 240 l 316 -169 l 24 -169 m 47 600 q 101 723 47 674 q 239 772 155 772 q 376 723 322 772 q 431 600 431 674 q 376 476 431 526 q 239 426 322 426 q 101 476 155 426 q 47 600 47 526 z "},"<":{"ha":811,"x_min":41,"x_max":746,"o":"m 746 -5 l 41 193 l 41 571 l 746 769 l 746 474 l 304 385 l 746 294 l 746 -5 z "},"=":{"ha":882,"x_min":62,"x_max":820,"o":"m 62 169 l 62 400 l 820 400 l 820 169 l 62 169 m 62 494 l 62 726 l 820 726 l 820 494 l 62 494 z "},">":{"ha":811,"x_min":65,"x_max":770,"o":"m 65 -5 l 65 294 l 507 385 l 65 474 l 65 769 l 770 571 l 770 193 l 65 -5 z "},"?":{"ha":990,"x_min":17,"x_max":967,"o":"m 567 30 q 542 7 567 30 q 441 -16 517 -16 q 316 30 366 -16 q 267 144 267 75 q 316 257 267 212 q 441 302 366 302 q 568 257 518 302 q 617 144 617 212 q 567 30 617 75 m 17 659 q 58 813 20 747 q 162 919 96 880 q 315 978 229 959 q 507 998 401 998 q 688 979 605 998 q 833 924 770 960 q 931 830 896 888 q 967 699 967 772 q 873 493 967 570 q 594 406 779 416 l 594 325 l 286 325 l 286 583 l 401 583 q 528 615 490 583 q 566 707 566 648 q 547 766 566 745 q 495 787 528 787 q 437 764 458 787 q 416 696 416 741 q 419 659 416 677 l 17 659 z "},"@":{"ha":1323,"x_min":30,"x_max":1312,"o":"m 690 -192 q 426 -155 545 -192 q 217 -46 306 -118 q 79 140 128 26 q 30 401 30 254 q 78 657 30 544 q 212 845 125 771 q 418 958 299 919 q 682 997 538 997 q 1142 846 972 997 q 1312 439 1312 695 q 1237 179 1312 266 q 1023 92 1163 92 l 766 92 q 750 182 754 139 q 496 72 661 72 q 318 124 384 72 q 253 275 253 176 q 319 422 253 373 q 543 486 385 471 l 741 503 l 741 530 q 681 591 741 591 q 613 523 617 591 l 277 523 q 396 691 286 634 q 680 749 506 749 q 836 734 766 749 q 959 689 906 719 q 1041 609 1013 659 q 1070 493 1070 559 l 1070 174 q 1187 255 1148 189 q 1227 432 1227 321 q 1079 791 1227 661 q 682 920 930 920 q 456 887 559 920 q 277 791 354 854 q 158 629 201 728 q 115 402 115 529 q 144 212 115 298 q 225 67 173 127 q 350 -34 277 7 q 509 -94 422 -75 q 694 -113 595 -113 q 938 -79 822 -113 q 1104 11 1053 -44 l 1218 11 q 1014 -138 1158 -83 q 690 -192 869 -192 m 591 310 q 612 263 591 279 q 664 247 633 247 q 718 264 695 247 q 741 316 741 281 l 741 399 l 680 387 q 611 358 631 374 q 591 310 591 342 z "},"A":{"ha":1234,"x_min":-5,"x_max":1238,"o":"m -5 0 l 326 972 l 909 972 l 1238 0 l 802 0 l 760 157 l 468 157 l 425 0 l -5 0 m 530 407 l 699 407 l 615 720 l 530 407 z "},"B":{"ha":1168,"x_min":64,"x_max":1143,"o":"m 64 0 l 64 972 l 691 972 q 1002 916 897 972 q 1107 739 1107 859 q 1053 593 1107 651 q 908 512 998 536 q 1079 430 1015 490 q 1143 273 1143 370 q 1121 165 1143 212 q 1059 87 1099 118 q 957 36 1019 56 q 821 8 895 17 q 650 0 746 0 l 64 0 m 476 206 l 583 206 q 711 306 711 206 q 587 399 711 399 l 476 399 l 476 206 m 476 601 l 584 601 q 665 623 635 601 q 694 690 694 645 q 585 769 694 769 l 476 769 l 476 601 z "},"C":{"ha":1238,"x_min":31,"x_max":1225,"o":"m 631 -26 q 311 31 444 -26 q 104 203 178 87 q 31 488 31 319 q 109 773 31 657 q 322 944 186 889 q 644 1000 458 1000 q 936 955 809 1000 q 1138 823 1063 909 q 1223 617 1213 736 l 782 617 q 744 732 779 690 q 642 774 709 774 q 474 488 474 774 q 513 274 474 347 q 638 202 553 202 q 746 250 710 202 q 789 376 783 298 l 1225 376 q 1170 198 1218 275 q 1041 72 1121 120 q 857 -1 960 23 q 631 -26 753 -26 z "},"D":{"ha":1222,"x_min":64,"x_max":1190,"o":"m 64 0 l 64 972 l 587 972 q 1190 492 1190 972 q 577 0 1190 0 l 64 0 m 475 241 l 526 241 q 692 300 636 241 q 748 492 748 359 q 695 677 748 623 q 530 731 643 731 l 475 731 l 475 241 z "},"E":{"ha":1038,"x_min":64,"x_max":995,"o":"m 64 0 l 64 972 l 995 972 l 995 740 l 476 740 l 476 613 l 901 613 l 901 376 l 476 376 l 476 236 l 995 236 l 995 0 l 64 0 z "},"F":{"ha":975,"x_min":64,"x_max":949,"o":"m 64 0 l 64 972 l 949 972 l 949 728 l 476 728 l 476 582 l 869 582 l 869 336 l 476 336 l 476 0 l 64 0 z "},"G":{"ha":1274,"x_min":31,"x_max":1224,"o":"m 661 -28 q 398 2 513 -28 q 200 94 283 33 q 75 252 118 155 q 31 478 31 349 q 61 672 31 585 q 144 819 90 758 q 276 921 199 880 q 447 981 353 962 q 652 1000 541 1000 q 938 960 813 1000 q 1139 838 1063 920 q 1224 640 1215 755 l 783 640 q 747 739 782 704 q 650 774 712 774 q 518 707 562 774 q 474 491 474 640 q 526 269 474 338 q 693 199 577 199 q 812 220 762 199 l 812 317 l 589 317 l 589 529 l 1224 529 l 1224 71 q 979 2 1140 33 q 661 -28 817 -28 z "},"H":{"ha":1217,"x_min":64,"x_max":1153,"o":"m 64 0 l 64 972 l 476 972 l 476 629 l 741 629 l 741 972 l 1153 972 l 1153 0 l 741 0 l 741 363 l 476 363 l 476 0 l 64 0 z "},"I":{"ha":540,"x_min":64,"x_max":476,"o":"m 64 0 l 64 972 l 476 972 l 476 0 l 64 0 z "},"J":{"ha":1056,"x_min":26,"x_max":1000,"o":"m 874 65 q 811 19 874 65 q 505 -26 748 -26 q 144 62 262 -26 q 26 317 26 150 l 26 555 l 420 555 l 420 329 q 505 232 420 232 q 588 329 588 232 l 588 972 l 1000 972 l 1000 319 q 874 65 1000 155 z "},"K":{"ha":1156,"x_min":64,"x_max":1175,"o":"m 705 0 l 476 471 l 476 0 l 64 0 l 64 972 l 476 972 l 476 558 l 701 972 l 1173 972 l 872 538 l 1175 0 l 705 0 z "},"L":{"ha":967,"x_min":64,"x_max":946,"o":"m 64 0 l 64 972 l 476 972 l 476 274 l 946 274 l 946 0 l 64 0 z "},"M":{"ha":1508,"x_min":64,"x_max":1444,"o":"m 64 0 l 64 972 l 595 972 l 760 412 l 928 972 l 1444 972 l 1444 0 l 1075 0 l 1075 578 l 903 0 l 606 0 l 433 574 l 433 0 l 64 0 z "},"N":{"ha":1289,"x_min":64,"x_max":1225,"o":"m 64 0 l 64 972 l 561 972 l 847 448 l 847 972 l 1225 972 l 1225 0 l 750 0 l 443 562 l 443 0 l 64 0 z "},"O":{"ha":1308,"x_min":31,"x_max":1277,"o":"m 654 -27 q 448 -7 543 -27 q 275 54 353 13 q 144 156 198 95 q 60 300 90 216 q 31 488 31 385 q 78 715 31 616 q 210 876 125 814 q 407 968 295 937 q 654 1000 519 1000 q 901 969 789 1000 q 1098 877 1013 938 q 1230 716 1183 816 q 1277 488 1277 617 q 1232 260 1277 359 q 1104 99 1187 161 q 908 5 1021 37 q 654 -27 794 -27 m 473 488 q 517 276 473 353 q 654 199 560 199 q 758 236 717 199 q 816 337 799 274 q 833 488 833 399 q 790 698 833 622 q 654 774 747 774 q 571 753 606 774 q 515 693 536 732 q 484 604 494 654 q 473 488 473 553 z "},"P":{"ha":1090,"x_min":64,"x_max":1075,"o":"m 64 0 l 64 972 l 593 972 q 1075 644 1075 972 q 600 296 1075 296 l 476 296 l 476 0 l 64 0 m 476 515 l 525 515 q 667 640 667 515 q 631 728 667 701 q 526 755 595 755 l 476 755 l 476 515 z "},"Q":{"ha":1308,"x_min":31,"x_max":1277,"o":"m 588 -177 l 508 -18 q 312 36 399 -3 q 162 137 225 75 q 64 288 98 199 q 31 488 31 377 q 78 715 31 616 q 210 876 125 814 q 407 968 295 937 q 654 1000 519 1000 q 901 969 789 1000 q 1098 877 1013 938 q 1230 716 1183 816 q 1277 488 1277 617 q 1176 170 1277 292 q 893 1 1075 47 l 1053 -177 l 588 -177 m 473 488 q 517 276 473 353 q 654 199 560 199 q 758 236 717 199 q 816 337 799 274 q 833 488 833 399 q 790 698 833 622 q 654 774 747 774 q 571 753 606 774 q 515 693 536 732 q 484 604 494 654 q 473 488 473 553 z "},"R":{"ha":1168,"x_min":64,"x_max":1124,"o":"m 64 0 l 64 972 l 678 972 q 1009 907 902 972 q 1117 707 1117 841 q 1055 535 1117 597 q 891 450 994 473 q 991 425 951 439 q 1063 384 1032 410 q 1109 318 1095 358 q 1124 222 1124 279 l 1124 0 l 711 0 l 711 227 q 672 318 711 290 q 553 345 633 345 l 476 345 l 476 0 l 64 0 m 476 553 l 570 553 q 711 660 711 553 q 674 735 711 712 q 570 758 638 758 l 476 758 l 476 553 z "},"S":{"ha":1111,"x_min":24,"x_max":1086,"o":"m 555 -27 q 280 5 397 -27 q 95 108 164 37 q 24 283 26 179 l 456 283 q 486 205 456 232 q 566 178 515 178 q 630 194 606 178 q 654 244 654 211 q 627 298 654 279 q 539 336 600 318 l 372 382 q 298 405 330 394 q 229 432 265 416 q 166 464 193 448 q 114 503 139 480 q 72 551 88 526 q 46 608 56 576 q 37 678 37 641 q 78 825 37 762 q 192 925 119 888 q 356 980 265 962 q 553 998 446 998 q 701 988 630 998 q 838 955 772 978 q 952 897 903 931 q 1032 812 1002 863 q 1065 698 1062 761 l 648 698 q 618 771 645 747 q 548 795 592 795 q 484 777 509 795 q 458 728 458 758 q 482 682 458 698 q 559 650 506 667 l 753 597 q 860 561 814 578 q 950 516 905 543 q 1023 459 995 490 q 1068 384 1050 428 q 1086 286 1086 339 q 1059 166 1086 219 q 985 78 1032 113 q 870 18 937 42 q 724 -17 802 -6 q 555 -27 646 -27 z "},"T":{"ha":1062,"x_min":21,"x_max":1041,"o":"m 325 0 l 325 702 l 21 702 l 21 972 l 1041 972 l 1041 702 l 737 702 l 737 0 l 325 0 z "},"U":{"ha":1175,"x_min":56,"x_max":1120,"o":"m 587 -28 q 187 62 319 -28 q 56 323 56 152 l 56 972 l 468 972 l 468 350 q 499 263 468 293 q 587 233 530 233 q 677 263 646 233 q 707 350 707 292 l 707 972 l 1120 972 l 1120 323 q 987 62 1120 153 q 587 -28 855 -28 z "},"V":{"ha":1161,"x_min":6,"x_max":1156,"o":"m 288 0 l 6 972 l 437 972 l 584 309 l 730 972 l 1156 972 l 873 0 l 288 0 z "},"W":{"ha":1640,"x_min":12,"x_max":1628,"o":"m 244 0 l 12 972 l 420 972 l 517 382 l 638 972 l 1011 972 l 1138 385 l 1236 972 l 1628 972 l 1396 0 l 932 0 l 821 596 l 710 0 l 244 0 z "},"X":{"ha":1181,"x_min":13,"x_max":1168,"o":"m 13 0 l 246 509 l 20 972 l 469 972 l 593 690 l 715 972 l 1162 972 l 930 509 l 1168 0 l 716 0 l 591 328 l 462 0 l 13 0 z "},"Y":{"ha":1142,"x_min":-12,"x_max":1152,"o":"m 364 231 q 340 303 364 281 q 250 324 315 325 l -12 972 l 435 972 l 573 557 l 711 972 l 1152 972 l 892 324 q 802 303 826 325 q 778 231 778 282 l 778 0 l 364 0 l 364 231 z "},"Z":{"ha":1057,"x_min":47,"x_max":1017,"o":"m 47 0 l 47 274 l 527 714 l 47 714 l 47 972 l 1003 972 l 1003 705 l 522 258 l 1017 258 l 1017 0 l 47 0 z "},"[":{"ha":617,"x_min":66,"x_max":576,"o":"m 66 -167 l 66 1035 l 576 1035 l 576 809 l 437 809 l 437 59 l 576 59 l 576 -167 l 66 -167 z "},"\\":{"ha":789,"x_min":14,"x_max":775,"o":"m 775 0 l 374 0 l 14 972 l 415 972 l 775 0 z "},"]":{"ha":617,"x_min":41,"x_max":551,"o":"m 551 -167 l 41 -167 l 41 59 l 180 59 l 180 809 l 41 809 l 41 1035 l 551 1035 l 551 -167 z "},"^":{"ha":842,"x_min":15,"x_max":827,"o":"m 15 501 l 254 972 l 589 972 l 827 501 l 523 501 l 422 734 l 320 501 l 15 501 z "},"_":{"ha":899,"x_min":35,"x_max":865,"o":"m 35 -237 l 35 0 l 865 0 l 865 -237 l 35 -237 z "},"`":{"ha":526,"x_min":50,"x_max":476,"o":"m 476 806 l 136 806 l 50 990 l 433 990 l 476 806 z "},"a":{"ha":1045,"x_min":28,"x_max":1017,"o":"m 313 -23 q 104 38 181 -23 q 28 216 28 99 q 104 388 28 331 q 361 462 181 445 l 603 484 l 603 516 q 532 587 603 587 q 452 508 456 587 l 56 508 q 127 657 63 596 q 294 745 192 718 q 530 773 397 773 q 714 755 631 773 q 859 702 796 738 q 956 608 922 667 q 990 472 990 549 l 990 186 q 1017 0 990 103 l 632 0 q 613 106 619 54 q 313 -23 509 -23 m 427 258 q 451 203 427 222 q 511 184 475 184 q 576 204 549 184 q 603 265 603 225 l 603 361 l 530 347 q 450 314 473 333 q 427 258 427 294 z "},"b":{"ha":1086,"x_min":58,"x_max":1053,"o":"m 719 -23 q 560 14 633 -23 q 446 112 487 51 l 446 0 l 58 0 l 58 972 l 446 972 l 446 640 q 565 737 492 701 q 725 773 637 773 q 964 672 876 773 q 1053 375 1053 570 q 961 79 1053 182 q 719 -23 869 -23 m 463 508 q 448 485 463 508 q 434 372 434 461 q 463 236 434 282 q 542 191 492 191 q 620 236 592 191 q 648 372 648 282 q 620 508 648 462 q 542 555 592 555 q 463 508 492 555 z "},"c":{"ha":1069,"x_min":28,"x_max":1050,"o":"m 535 -23 q 270 21 382 -23 q 93 157 157 66 q 28 378 28 248 q 67 551 28 475 q 175 675 106 627 q 337 748 244 724 q 541 773 430 773 q 899 688 766 773 q 1046 455 1032 603 l 645 455 q 617 544 642 512 q 548 575 593 575 q 463 529 491 575 q 435 380 435 482 q 462 224 435 272 q 547 176 489 176 q 615 208 589 176 q 646 301 642 240 l 1050 301 q 972 122 1042 196 q 790 13 902 48 q 535 -23 679 -23 z "},"d":{"ha":1086,"x_min":33,"x_max":1028,"o":"m 361 -23 q 121 78 210 -23 q 33 375 33 180 q 125 671 33 568 q 367 773 216 773 q 526 736 452 773 q 640 638 599 699 l 640 972 l 1028 972 l 1028 0 l 640 0 l 640 111 q 521 13 594 49 q 361 -23 448 -23 m 438 378 q 466 242 438 288 q 544 195 493 195 q 623 242 594 195 q 652 378 652 289 q 623 514 652 468 q 544 559 594 559 q 466 514 494 559 q 438 378 438 468 z "},"e":{"ha":1074,"x_min":28,"x_max":1044,"o":"m 536 -23 q 270 21 383 -23 q 92 155 157 65 q 28 372 28 245 q 164 667 28 560 q 538 773 301 773 q 805 727 692 773 q 981 587 918 680 q 1044 363 1044 494 l 1044 313 l 424 313 q 539 171 427 171 q 610 195 583 171 q 642 263 637 219 l 1040 263 q 883 53 1020 128 q 536 -23 747 -23 m 426 468 l 642 468 q 614 553 641 522 q 538 585 587 585 q 459 554 488 585 q 426 468 431 524 z "},"f":{"ha":713,"x_min":27,"x_max":694,"o":"m 150 0 l 150 537 l 27 537 l 27 750 l 154 750 l 154 747 q 183 875 154 820 q 266 964 213 930 q 389 1013 319 997 q 543 1029 458 1029 q 688 1012 626 1029 l 688 824 q 636 830 661 830 q 530 750 532 830 l 694 750 l 694 537 l 538 537 l 538 0 l 150 0 z "},"g":{"ha":1057,"x_min":34,"x_max":1000,"o":"m 516 -250 q 277 -223 379 -250 q 113 -138 176 -197 q 46 7 51 -80 l 436 7 q 462 -45 439 -26 q 524 -64 484 -64 q 589 -40 566 -64 q 612 33 612 -16 l 612 172 q 503 81 570 113 q 351 48 435 48 q 119 141 204 48 q 34 416 34 235 q 58 573 34 505 q 127 684 83 642 q 229 748 171 726 q 358 770 288 770 q 507 736 440 770 q 612 644 573 702 l 612 750 l 1000 750 l 1000 46 q 975 -68 1000 -18 q 906 -152 949 -118 q 801 -208 863 -186 q 669 -240 739 -230 q 516 -250 598 -250 m 436 413 q 526 249 436 249 q 616 413 616 249 q 526 570 616 570 q 436 413 436 570 z "},"h":{"ha":1056,"x_min":58,"x_max":1006,"o":"m 58 0 l 58 972 l 445 972 l 445 628 q 563 733 488 694 q 732 773 637 773 q 933 697 861 773 q 1006 472 1006 622 l 1006 0 l 618 0 l 618 428 q 536 522 618 522 q 471 496 497 522 q 445 418 445 470 l 445 0 l 58 0 z "},"i":{"ha":503,"x_min":42,"x_max":462,"o":"m 58 0 l 58 750 l 445 750 l 445 0 l 58 0 m 42 916 q 102 1010 42 975 q 252 1046 163 1046 q 402 1010 342 1046 q 462 916 462 975 q 401 823 462 858 q 252 787 341 787 q 102 823 163 787 q 42 916 42 858 z "},"j":{"ha":503,"x_min":-36,"x_max":462,"o":"m 142 -248 q -36 -222 32 -248 l -36 -28 q 6 -36 -15 -36 q 45 -23 32 -36 q 58 21 58 -9 l 58 750 l 445 750 l 445 14 q 429 -90 445 -44 q 385 -164 412 -135 q 318 -213 357 -194 q 236 -240 279 -232 q 142 -248 193 -248 m 42 916 q 102 1010 42 975 q 252 1046 163 1046 q 402 1010 342 1046 q 462 916 462 975 q 401 823 462 858 q 252 787 341 787 q 102 823 163 787 q 42 916 42 858 z "},"k":{"ha":1086,"x_min":58,"x_max":1091,"o":"m 647 0 l 445 348 l 445 0 l 58 0 l 58 972 l 445 972 l 445 443 l 646 750 l 1079 750 l 831 404 l 1091 0 l 647 0 z "},"l":{"ha":503,"x_min":58,"x_max":445,"o":"m 58 0 l 58 972 l 445 972 l 445 0 l 58 0 z "},"m":{"ha":1565,"x_min":58,"x_max":1514,"o":"m 58 0 l 58 750 l 431 750 l 431 614 q 542 730 469 686 q 710 773 615 773 q 955 613 901 773 q 1069 730 995 687 q 1240 773 1143 773 q 1441 697 1369 773 q 1514 472 1514 622 l 1514 0 l 1131 0 l 1131 433 q 1111 501 1131 479 q 1059 523 1092 523 q 1001 498 1024 523 q 977 422 977 473 l 977 0 l 594 0 l 594 433 q 575 501 594 479 q 522 523 555 523 q 464 498 488 523 q 441 422 441 473 l 441 0 l 58 0 z "},"n":{"ha":1056,"x_min":58,"x_max":1006,"o":"m 58 0 l 58 750 l 435 750 l 435 612 q 554 729 477 685 q 732 773 631 773 q 933 697 861 773 q 1006 472 1006 622 l 1006 0 l 618 0 l 618 428 q 536 522 618 522 q 471 496 497 522 q 445 418 445 470 l 445 0 l 58 0 z "},"o":{"ha":1095,"x_min":28,"x_max":1067,"o":"m 548 -23 q 339 3 434 -23 q 175 78 244 28 q 66 204 105 127 q 28 376 28 280 q 67 548 28 472 q 176 672 106 623 q 341 747 246 722 q 548 773 435 773 q 814 729 699 773 q 999 595 930 686 q 1067 376 1067 504 q 1029 204 1067 280 q 921 78 991 127 q 757 3 852 28 q 548 -23 663 -23 m 433 376 q 548 176 433 176 q 663 376 663 176 q 548 574 663 574 q 433 376 433 574 z "},"p":{"ha":1086,"x_min":58,"x_max":1053,"o":"m 719 -23 q 560 14 633 -23 q 446 112 487 51 l 446 -222 l 58 -222 l 58 750 l 446 750 l 446 640 q 565 737 492 701 q 725 773 637 773 q 964 672 876 773 q 1053 375 1053 570 q 961 79 1053 182 q 719 -23 869 -23 m 463 508 q 448 485 463 508 q 434 372 434 461 q 463 236 434 282 q 542 191 492 191 q 620 236 592 191 q 648 372 648 282 q 620 508 648 462 q 542 555 592 555 q 463 508 492 555 z "},"q":{"ha":1086,"x_min":33,"x_max":1028,"o":"m 361 -23 q 121 78 210 -23 q 33 375 33 180 q 125 671 33 568 q 367 773 216 773 q 526 736 452 773 q 640 638 599 699 l 640 750 l 1028 750 l 1028 -222 l 640 -222 l 640 111 q 521 13 594 49 q 361 -23 448 -23 m 438 378 q 466 242 438 288 q 544 195 493 195 q 623 242 594 195 q 652 378 652 289 q 623 514 652 468 q 544 559 594 559 q 466 514 494 559 q 438 378 438 468 z "},"r":{"ha":920,"x_min":58,"x_max":893,"o":"m 58 0 l 58 750 l 431 750 l 431 590 q 536 724 468 675 q 691 772 605 772 q 841 710 789 772 q 893 519 893 647 l 893 293 l 549 293 l 549 420 q 500 481 549 481 q 460 464 475 481 q 445 413 445 446 l 445 0 l 58 0 z "},"s":{"ha":998,"x_min":26,"x_max":974,"o":"m 504 -23 q 260 3 364 -23 q 93 87 156 30 q 26 227 30 144 l 406 227 q 434 160 408 182 q 505 138 460 138 q 560 151 538 138 q 582 189 582 163 q 560 229 582 216 q 493 252 538 242 l 344 283 q 242 308 284 296 q 158 339 200 320 q 91 381 117 359 q 50 437 66 404 q 35 513 35 471 q 72 629 35 578 q 174 710 109 680 q 319 757 238 741 q 494 773 401 773 q 657 760 581 773 q 798 719 733 746 q 905 644 863 691 q 954 533 947 596 l 583 533 q 559 594 582 575 q 499 614 536 614 q 443 600 465 614 q 421 562 421 585 q 440 526 421 537 q 505 505 460 515 l 659 472 q 761 447 718 460 q 847 413 805 433 q 915 369 888 393 q 958 310 942 345 q 974 233 974 276 q 949 133 974 177 q 881 59 924 88 q 778 12 839 31 q 650 -15 718 -7 q 504 -23 583 -23 z "},"t":{"ha":752,"x_min":15,"x_max":715,"o":"m 484 -15 q 381 -7 429 -15 q 291 20 334 1 q 217 67 248 39 q 169 141 187 96 q 151 242 151 185 l 151 538 l 15 538 l 15 750 l 151 750 l 151 894 l 538 985 l 538 750 l 715 750 l 715 538 l 538 538 l 538 287 q 561 222 538 241 q 627 203 583 203 q 714 218 670 203 l 714 31 q 484 -15 626 -15 z "},"u":{"ha":1054,"x_min":52,"x_max":996,"o":"m 329 -23 q 124 45 197 -23 q 52 245 52 114 l 52 750 l 439 750 l 439 320 q 460 250 439 273 q 517 227 481 227 q 581 253 553 227 q 609 326 609 278 l 609 750 l 996 750 l 996 0 l 621 0 l 621 142 q 505 21 578 64 q 329 -23 431 -23 z "},"v":{"ha":1053,"x_min":3,"x_max":1045,"o":"m 246 0 l 3 750 l 419 750 l 530 262 l 642 750 l 1045 750 l 814 0 l 246 0 z "},"w":{"ha":1421,"x_min":10,"x_max":1411,"o":"m 212 0 l 10 750 l 375 750 l 452 291 l 545 750 l 878 750 l 970 298 l 1048 750 l 1411 750 l 1211 0 l 798 0 l 711 418 l 625 0 l 212 0 z "},"x":{"ha":1045,"x_min":13,"x_max":1033,"o":"m 13 0 l 222 382 l 14 750 l 428 750 l 524 549 l 621 750 l 1029 750 l 823 382 l 1033 0 l 613 0 l 521 212 l 425 0 l 13 0 z "},"y":{"ha":1047,"x_min":5,"x_max":1041,"o":"m 336 -56 q 310 0 336 -18 q 229 18 284 18 l 5 750 l 413 750 l 526 234 l 643 750 l 1041 750 l 831 18 q 748 1 773 18 q 724 -56 724 -17 l 724 -222 l 336 -222 l 336 -56 z "},"z":{"ha":941,"x_min":49,"x_max":900,"o":"m 49 0 l 49 247 l 424 525 l 49 525 l 49 750 l 881 750 l 881 505 l 509 225 l 900 225 l 900 0 l 49 0 z "},"{":{"ha":646,"x_min":26,"x_max":604,"o":"m 604 -167 q 455 -163 517 -167 q 336 -149 394 -159 q 241 -118 278 -138 q 176 -68 204 -99 q 135 6 147 -38 q 122 111 122 51 l 122 245 q 102 306 122 288 q 26 323 81 323 l 26 555 q 101 576 81 555 q 122 642 122 597 l 122 758 q 135 862 122 817 q 176 937 147 906 q 241 986 204 967 q 336 1017 278 1006 q 455 1031 394 1027 q 604 1035 517 1035 l 604 806 q 522 782 552 806 q 492 715 492 759 l 492 624 q 346 443 492 475 q 492 259 492 411 l 492 141 q 604 62 492 62 l 604 -167 z "},"|":{"ha":516,"x_min":65,"x_max":451,"o":"m 65 -195 l 65 972 l 451 972 l 451 -195 l 65 -195 z "},"}":{"ha":646,"x_min":43,"x_max":620,"o":"m 43 62 q 155 141 155 62 l 155 259 q 300 443 155 411 q 155 624 155 475 l 155 715 q 124 782 155 759 q 43 806 94 806 l 43 1035 q 191 1031 130 1035 q 310 1017 252 1027 q 405 986 368 1006 q 471 937 442 967 q 512 862 499 906 q 524 758 524 817 l 524 642 q 545 576 524 597 q 620 555 566 555 l 620 323 q 545 306 565 323 q 524 245 524 288 l 524 111 q 512 6 524 51 q 471 -68 499 -38 q 405 -118 442 -99 q 310 -149 368 -138 q 191 -163 252 -159 q 43 -167 130 -167 l 43 62 z "}," ":{"ha":298,"x_min":0,"x_max":0,"o":""},"¡":{"ha":473,"x_min":38,"x_max":436,"o":"m 102 722 q 129 746 102 722 q 237 770 155 770 q 371 722 318 770 q 424 603 424 674 q 371 486 424 533 q 237 439 318 439 q 102 486 155 439 q 50 603 50 533 q 102 722 50 674 m 38 -222 l 92 405 l 382 405 l 436 -222 l 38 -222 z "},"¢":{"ha":1097,"x_min":45,"x_max":1067,"o":"m 420 -126 l 420 -14 q 145 114 244 14 q 45 378 45 214 q 146 637 45 539 q 420 762 247 734 l 420 875 l 701 875 l 701 763 q 957 657 863 738 q 1063 455 1051 577 l 662 455 q 634 544 659 512 q 565 575 610 575 q 480 529 508 575 q 452 380 452 482 q 479 224 452 272 q 564 176 506 176 q 632 208 606 176 q 663 301 659 240 l 1067 301 q 959 94 1057 174 q 701 -12 861 14 l 701 -126 l 420 -126 z "},"£":{"ha":1099,"x_min":36,"x_max":1076,"o":"m 36 203 q 126 227 98 203 q 163 307 154 252 l 172 359 l 36 359 l 36 571 l 209 571 l 216 616 q 404 909 250 812 q 844 1006 557 1006 q 1002 997 915 1006 l 1002 749 q 893 755 944 755 q 688 715 753 755 q 607 586 623 675 l 604 571 l 810 571 l 810 359 l 566 359 q 544 292 557 319 q 502 241 530 265 l 1076 241 l 1076 0 l 36 0 l 36 203 z "},"¥":{"ha":1227,"x_min":16,"x_max":1211,"o":"m 408 0 l 408 104 l 126 104 l 126 265 l 408 265 l 408 318 l 126 318 l 126 479 l 313 479 l 16 972 l 479 972 l 616 675 l 753 972 l 1211 972 l 915 479 l 1103 479 l 1103 318 l 821 318 l 821 265 l 1103 265 l 1103 104 l 821 104 l 821 0 l 408 0 z "},"¦":{"ha":516,"x_min":65,"x_max":451,"o":"m 65 -195 l 65 334 l 451 334 l 451 -195 l 65 -195 m 65 493 l 65 972 l 451 972 l 451 493 l 65 493 z "},"§":{"ha":1022,"x_min":35,"x_max":985,"o":"m 513 -182 q 268 -155 372 -182 q 101 -72 164 -129 q 35 68 39 -15 l 414 68 q 443 0 416 23 q 513 -22 469 -22 q 569 -10 547 -22 q 590 28 590 3 q 567 71 590 56 q 494 95 544 85 l 352 124 q 251 150 293 137 q 167 181 208 162 q 100 224 125 201 q 58 281 74 248 q 43 358 43 315 q 85 470 43 422 q 205 546 128 517 q 87 621 127 576 q 46 739 46 667 q 83 854 46 804 q 185 934 121 904 q 331 980 250 964 q 505 995 412 995 q 635 987 572 995 q 755 960 697 979 q 857 915 813 942 q 929 847 901 888 q 964 755 958 806 l 595 755 q 570 816 593 797 q 509 836 547 836 q 454 822 475 836 q 433 783 433 808 q 453 747 433 759 q 522 726 474 736 l 670 694 q 795 660 743 678 q 893 614 848 642 q 962 546 939 587 q 985 453 985 506 q 831 265 985 324 q 944 188 905 235 q 983 73 983 142 q 958 -28 983 16 q 890 -100 932 -72 q 787 -148 848 -129 q 659 -174 726 -166 q 513 -182 591 -182 m 429 412 q 451 371 429 387 q 520 345 474 355 l 522 345 q 573 362 553 346 q 593 406 593 378 q 572 449 593 434 q 506 473 551 464 l 506 473 q 450 456 471 473 q 429 412 429 439 z "},"¨":{"ha":858,"x_min":50,"x_max":808,"o":"m 229 814 q 101 844 153 814 q 50 924 50 874 q 101 1004 50 974 q 229 1034 153 1034 q 356 1004 305 1034 q 407 924 407 974 q 356 844 407 874 q 229 814 304 814 m 451 924 q 502 1004 451 974 q 629 1034 553 1034 q 756 1004 705 1034 q 808 924 808 974 q 756 844 808 874 q 629 814 705 814 q 502 844 553 814 q 451 924 451 874 z "},"©":{"ha":1164,"x_min":39,"x_max":1124,"o":"m 579 189 q 321 265 414 189 q 229 489 229 341 q 325 712 229 637 q 587 788 421 788 q 825 729 733 788 q 924 565 916 669 l 665 565 q 644 629 663 606 q 587 652 624 652 q 491 489 491 652 q 584 325 491 325 q 645 352 625 325 q 669 423 666 379 l 926 423 q 873 292 921 346 q 750 213 825 238 q 579 189 675 189 m 39 486 q 81 689 39 593 q 195 853 123 785 q 368 962 267 922 q 582 1002 469 1002 q 796 962 695 1002 q 969 853 897 922 q 1083 689 1041 785 q 1124 486 1124 593 q 1098 321 1124 400 q 1022 178 1072 241 q 906 68 972 115 q 756 -4 840 22 q 582 -29 673 -29 q 306 39 431 -29 q 111 225 182 106 q 39 486 39 343 m 107 486 q 143 309 107 393 q 243 166 180 226 q 394 71 306 106 q 583 36 483 36 q 824 95 715 36 q 995 258 933 155 q 1057 486 1057 361 q 1021 664 1057 581 q 921 807 984 747 q 770 902 859 867 q 582 937 682 937 q 340 877 449 937 q 169 715 231 818 q 107 486 107 612 z "},"ª":{"ha":829,"x_min":29,"x_max":793,"o":"m 251 383 q 89 430 149 383 q 29 566 29 476 q 90 699 29 654 q 294 755 150 743 l 469 772 l 469 794 q 418 844 469 844 q 361 787 363 844 l 52 787 q 106 903 56 856 q 235 972 156 950 q 417 994 314 994 q 559 980 496 994 q 671 939 623 966 q 746 866 720 911 q 772 762 772 821 l 772 542 q 793 401 772 481 l 492 401 q 477 482 481 448 q 251 383 400 383 m 341 599 q 358 560 341 573 q 403 547 376 547 q 450 561 430 547 q 469 604 469 576 l 469 671 l 412 661 q 357 637 374 651 q 341 599 341 624 z "},"«":{"ha":987,"x_min":22,"x_max":962,"o":"m 617 0 l 448 378 l 617 750 l 962 750 l 810 378 l 962 0 l 617 0 m 22 378 l 190 750 l 536 750 l 384 378 l 536 0 l 190 0 l 22 378 z "},"­":{"ha":612,"x_min":59,"x_max":553,"o":"m 59 313 l 59 578 l 553 578 l 553 313 l 59 313 z "},"®":{"ha":1164,"x_min":39,"x_max":1124,"o":"m 284 205 l 284 774 l 638 774 q 835 735 771 774 q 899 616 899 696 q 766 465 899 496 q 869 425 837 453 q 902 332 902 396 l 902 205 l 659 205 l 659 336 q 637 388 659 372 q 570 404 615 404 l 527 404 l 527 205 l 284 205 m 39 486 q 81 689 39 593 q 195 853 123 785 q 368 962 267 922 q 582 1002 469 1002 q 796 962 695 1002 q 969 853 897 922 q 1083 689 1041 785 q 1124 486 1124 593 q 1098 321 1124 400 q 1022 178 1072 241 q 906 68 972 115 q 756 -4 840 22 q 582 -29 673 -29 q 306 39 431 -29 q 111 225 182 106 q 39 486 39 343 m 107 486 q 143 309 107 393 q 243 166 180 226 q 394 71 306 106 q 583 36 483 36 q 824 95 715 36 q 995 258 933 155 q 1057 486 1057 361 q 1021 664 1057 581 q 921 807 984 747 q 770 902 859 867 q 582 937 682 937 q 340 877 449 937 q 169 715 231 818 q 107 486 107 612 m 527 530 l 578 530 q 659 590 659 530 q 578 645 659 645 l 527 645 l 527 530 z "},"¯":{"ha":724,"x_min":50,"x_max":673,"o":"m 50 811 l 50 994 l 673 994 l 673 811 l 50 811 z "},"°":{"ha":568,"x_min":19,"x_max":549,"o":"m 474 593 q 436 560 474 593 q 284 527 398 527 q 95 593 170 527 q 19 759 19 659 q 95 924 19 859 q 284 989 170 989 q 474 924 398 989 q 549 759 549 859 q 474 593 549 659 m 223 819 q 211 806 223 819 q 199 759 199 794 q 224 699 199 724 q 284 673 248 673 q 345 699 320 673 q 369 759 369 724 q 345 819 369 794 q 284 843 321 843 q 223 819 248 843 z "},"²":{"ha":693,"x_min":19,"x_max":663,"o":"m 35 473 l 35 617 l 281 770 q 328 801 313 791 q 360 826 342 810 q 385 857 378 842 q 391 889 391 871 q 379 925 391 911 q 344 939 366 939 q 304 923 319 939 q 290 878 290 907 q 292 856 290 864 l 19 856 q 67 984 22 932 q 183 1059 111 1036 q 350 1082 254 1082 q 507 1062 439 1082 q 618 997 576 1042 q 661 887 661 952 q 648 825 661 854 q 618 775 636 796 q 568 731 600 753 q 508 693 536 709 q 435 656 479 677 l 380 628 l 663 628 l 663 473 l 35 473 z "},"³":{"ha":690,"x_min":19,"x_max":665,"o":"m 342 459 q 110 509 197 459 q 19 657 23 559 l 289 657 q 303 611 290 628 q 343 593 317 593 q 382 607 368 593 q 396 646 396 621 q 323 708 396 708 l 255 708 l 255 849 l 322 849 q 375 862 359 849 q 391 904 391 875 q 379 936 391 925 q 345 947 366 947 q 306 933 320 947 q 291 889 292 918 l 22 889 q 70 995 26 951 q 185 1061 115 1040 q 344 1082 256 1082 q 499 1065 431 1082 q 610 1009 567 1048 q 654 915 654 971 q 616 828 654 862 q 519 779 579 793 q 624 733 583 768 q 665 637 665 698 q 639 556 665 591 q 569 500 614 521 q 467 469 524 479 q 342 459 410 459 z "},"´":{"ha":526,"x_min":50,"x_max":476,"o":"m 50 806 l 93 990 l 476 990 l 391 806 l 50 806 z "},"¶":{"ha":891,"x_min":21,"x_max":820,"o":"m 324 382 q 109 470 196 386 q 21 678 21 553 q 111 889 21 805 q 337 972 200 972 l 820 972 l 820 0 l 618 0 l 618 790 l 526 790 l 526 0 l 324 0 l 324 382 z "},"·":{"ha":441,"x_min":28,"x_max":412,"o":"m 357 331 q 330 306 357 331 q 220 281 303 281 q 82 331 136 281 q 28 456 28 381 q 82 579 28 530 q 220 628 136 628 q 357 579 303 628 q 412 456 412 530 q 357 331 412 381 z "},"¸":{"ha":595,"x_min":45,"x_max":549,"o":"m 300 -315 q 122 -275 194 -315 q 45 -159 50 -236 l 239 -159 q 259 -185 243 -175 q 299 -195 275 -195 q 352 -157 352 -195 q 333 -129 352 -139 q 289 -119 315 -119 q 233 -130 253 -119 l 237 22 l 370 22 l 368 -39 q 500 -76 451 -42 q 549 -166 549 -110 q 528 -237 549 -208 q 471 -283 507 -267 q 392 -307 434 -300 q 300 -315 350 -315 z "},"¹":{"ha":494,"x_min":19,"x_max":452,"o":"m 192 473 l 192 813 l 19 813 l 19 994 l 100 994 q 176 1009 157 994 q 195 1066 195 1024 l 452 1066 l 452 473 l 192 473 z "},"º":{"ha":851,"x_min":24,"x_max":827,"o":"m 425 383 q 134 463 245 383 q 24 689 24 543 q 77 856 24 786 q 219 960 130 926 q 425 994 309 994 q 631 960 542 994 q 774 857 721 926 q 827 689 827 787 q 775 522 827 591 q 633 417 723 452 q 425 383 543 383 m 341 689 q 425 545 341 545 q 510 689 510 545 q 488 795 510 759 q 425 831 466 831 q 363 795 385 831 q 341 689 341 759 z "},"»":{"ha":987,"x_min":24,"x_max":965,"o":"m 370 0 l 24 0 l 176 378 l 24 750 l 370 750 l 538 378 l 370 0 m 451 0 l 603 378 l 451 750 l 797 750 l 965 378 l 797 0 l 451 0 z "},"¼":{"ha":1448,"x_min":18,"x_max":1426,"o":"m 182 410 l 182 733 l 18 733 l 18 905 l 96 905 q 168 920 150 905 q 186 974 185 935 l 431 974 l 431 410 l 182 410 m 171 0 l 942 972 l 1141 972 l 371 0 l 171 0 m 790 95 l 790 254 l 1001 564 l 1342 564 l 1342 241 l 1426 241 l 1426 95 l 1342 95 l 1342 0 l 1112 0 l 1112 95 l 790 95 m 1002 241 l 1112 241 l 1112 411 l 1002 241 z "},"½":{"ha":1470,"x_min":18,"x_max":1440,"o":"m 182 410 l 182 733 l 18 733 l 18 905 l 96 905 q 168 920 150 905 q 186 974 185 935 l 431 974 l 431 410 l 182 410 m 171 0 l 942 972 l 1141 972 l 371 0 l 171 0 m 827 364 q 917 526 831 472 q 1142 580 1002 580 q 1292 561 1227 580 q 1397 498 1357 541 q 1438 394 1438 456 q 1422 323 1438 355 q 1374 265 1407 292 q 1309 219 1341 238 q 1223 174 1276 199 l 1171 147 l 1440 147 l 1440 0 l 842 0 l 842 137 l 1076 283 q 1121 312 1107 302 q 1152 336 1135 321 q 1175 365 1169 351 q 1181 396 1181 379 q 1170 430 1181 417 q 1136 444 1158 444 q 1099 428 1112 444 q 1085 385 1085 412 q 1086 364 1085 372 l 827 364 z "},"¾":{"ha":1605,"x_min":20,"x_max":1583,"o":"m 327 396 q 106 444 189 396 q 20 585 24 492 l 277 585 q 290 540 277 557 q 328 524 303 524 q 365 536 352 524 q 378 574 378 549 q 309 633 378 633 l 244 633 l 244 767 l 309 767 q 359 780 344 767 q 374 820 374 792 q 362 850 374 840 q 330 861 351 861 q 279 806 279 861 l 23 806 q 114 941 28 893 q 329 989 199 989 q 476 973 412 989 q 583 920 541 957 q 624 830 624 884 q 589 747 624 779 q 496 700 553 714 q 596 657 557 690 q 635 566 635 623 q 611 488 635 522 q 544 435 587 454 q 446 406 500 415 q 327 396 392 396 m 328 0 l 1099 972 l 1299 972 l 528 0 l 328 0 m 947 95 l 947 254 l 1158 564 l 1499 564 l 1499 241 l 1583 241 l 1583 95 l 1499 95 l 1499 0 l 1270 0 l 1270 95 l 947 95 m 1159 241 l 1270 241 l 1270 411 l 1159 241 z "},"¿":{"ha":989,"x_min":24,"x_max":974,"o":"m 423 720 q 448 743 423 720 q 549 766 473 766 q 674 720 625 766 q 724 606 724 674 q 675 492 724 538 q 549 447 625 447 q 423 492 473 447 q 374 606 374 538 q 423 720 374 674 m 24 51 q 118 257 24 180 q 397 344 212 334 l 397 425 l 705 425 l 705 167 l 590 167 q 463 134 501 167 q 425 42 425 102 q 444 -17 425 4 q 496 -38 463 -38 q 553 -15 532 -38 q 574 54 574 8 q 572 90 574 72 l 974 90 q 933 -64 971 2 q 829 -170 895 -130 q 676 -229 762 -210 q 484 -248 590 -248 q 303 -230 386 -248 q 158 -175 220 -211 q 59 -81 95 -139 q 24 51 24 -23 z "},"À":{"ha":1234,"x_min":-5,"x_max":1238,"o":"m -5 0 l 326 972 l 909 972 l 1238 0 l 802 0 l 760 157 l 468 157 l 425 0 l -5 0 m 355 1220 l 755 1220 l 801 1035 l 436 1035 l 355 1220 m 530 407 l 699 407 l 615 720 l 530 407 z "},"Á":{"ha":1234,"x_min":-5,"x_max":1238,"o":"m -5 0 l 326 972 l 909 972 l 1238 0 l 802 0 l 760 157 l 468 157 l 425 0 l -5 0 m 421 1035 l 467 1220 l 867 1220 l 786 1035 l 421 1035 m 530 407 l 699 407 l 615 720 l 530 407 z "},"Â":{"ha":1234,"x_min":-5,"x_max":1238,"o":"m -5 0 l 326 972 l 909 972 l 1238 0 l 802 0 l 760 157 l 468 157 l 425 0 l -5 0 m 258 1035 l 383 1222 q 840 1222 612 1204 l 965 1035 l 695 1035 l 610 1132 l 526 1035 l 258 1035 m 530 407 l 699 407 l 615 720 l 530 407 z "},"Ã":{"ha":1234,"x_min":-5,"x_max":1238,"o":"m -5 0 l 326 972 l 909 972 l 1238 0 l 802 0 l 760 157 l 468 157 l 425 0 l -5 0 m 241 1035 q 297 1184 241 1131 q 448 1237 352 1237 q 615 1215 505 1237 q 764 1194 725 1194 q 820 1232 820 1194 l 981 1232 q 926 1078 981 1127 q 784 1029 871 1029 q 608 1052 720 1029 q 458 1074 496 1074 q 410 1035 412 1074 l 241 1035 m 530 407 l 699 407 l 615 720 l 530 407 z "},"Ä":{"ha":1234,"x_min":-5,"x_max":1238,"o":"m -5 0 l 326 972 l 909 972 l 1238 0 l 802 0 l 760 157 l 468 157 l 425 0 l -5 0 m 228 1134 q 279 1213 228 1183 q 405 1243 330 1243 q 530 1213 479 1243 q 581 1134 581 1183 q 530 1056 581 1085 q 405 1026 480 1026 q 279 1056 330 1026 q 228 1134 228 1085 m 530 407 l 699 407 l 615 720 l 530 407 m 641 1134 q 692 1213 641 1183 q 818 1243 743 1243 q 943 1213 892 1243 q 994 1134 994 1183 q 943 1056 994 1085 q 818 1026 892 1026 q 692 1056 743 1026 q 641 1134 641 1085 z "},"Å":{"ha":1234,"x_min":-5,"x_max":1238,"o":"m -5 0 l 326 972 l 909 972 l 1238 0 l 802 0 l 760 157 l 468 157 l 425 0 l -5 0 m 437 1050 q 403 1068 437 1050 q 370 1149 370 1086 q 437 1249 370 1213 q 610 1284 504 1284 q 785 1249 718 1284 q 852 1149 852 1213 q 785 1050 852 1086 q 610 1014 718 1014 q 437 1050 505 1014 m 530 407 l 699 407 l 615 720 l 530 407 m 549 1149 q 567 1109 549 1124 q 610 1094 585 1094 q 655 1109 637 1094 q 673 1149 673 1124 q 655 1189 673 1175 q 610 1204 637 1204 q 567 1189 585 1204 q 549 1149 549 1174 z "},"Æ":{"ha":1757,"x_min":-45,"x_max":1714,"o":"m -45 0 l 488 972 l 1714 972 l 1714 740 l 1196 740 l 1196 613 l 1621 613 l 1621 376 l 1196 376 l 1196 236 l 1714 236 l 1714 0 l 783 0 l 783 159 l 495 159 l 418 0 l -45 0 m 614 408 l 783 408 l 783 759 l 614 408 z "},"Ç":{"ha":1238,"x_min":31,"x_max":1225,"o":"m 623 -315 q 445 -275 517 -315 q 368 -159 372 -236 l 562 -159 q 582 -185 566 -175 q 622 -195 597 -195 q 675 -157 675 -195 q 656 -129 675 -139 q 612 -119 637 -119 q 555 -130 576 -119 l 558 -24 q 170 122 308 -7 q 31 488 31 252 q 109 773 31 657 q 322 944 186 889 q 644 1000 458 1000 q 936 955 809 1000 q 1138 823 1063 909 q 1223 617 1213 736 l 782 617 q 744 732 779 690 q 642 774 709 774 q 474 488 474 774 q 513 274 474 347 q 638 202 553 202 q 746 250 710 202 q 789 376 783 298 l 1225 376 q 1191 237 1220 300 q 1113 128 1161 174 q 1000 49 1065 82 q 858 -2 935 16 q 692 -24 781 -20 l 691 -39 q 823 -76 774 -42 q 872 -166 872 -110 q 851 -237 872 -208 q 793 -283 830 -267 q 715 -307 757 -300 q 623 -315 673 -315 z "},"È":{"ha":1038,"x_min":64,"x_max":995,"o":"m 64 0 l 64 972 l 995 972 l 995 740 l 476 740 l 476 613 l 901 613 l 901 376 l 476 376 l 476 236 l 995 236 l 995 0 l 64 0 m 275 1220 l 675 1220 l 722 1035 l 357 1035 l 275 1220 z "},"É":{"ha":1038,"x_min":64,"x_max":995,"o":"m 64 0 l 64 972 l 995 972 l 995 740 l 476 740 l 476 613 l 901 613 l 901 376 l 476 376 l 476 236 l 995 236 l 995 0 l 64 0 m 342 1035 l 388 1220 l 788 1220 l 707 1035 l 342 1035 z "},"Ê":{"ha":1038,"x_min":64,"x_max":995,"o":"m 64 0 l 64 972 l 995 972 l 995 740 l 476 740 l 476 613 l 901 613 l 901 376 l 476 376 l 476 236 l 995 236 l 995 0 l 64 0 m 178 1035 l 304 1222 q 760 1222 532 1204 l 886 1035 l 616 1035 l 531 1132 l 446 1035 l 178 1035 z "},"Ë":{"ha":1038,"x_min":64,"x_max":995,"o":"m 64 0 l 64 972 l 995 972 l 995 740 l 476 740 l 476 613 l 901 613 l 901 376 l 476 376 l 476 236 l 995 236 l 995 0 l 64 0 m 149 1134 q 199 1213 149 1183 q 326 1243 250 1243 q 451 1213 400 1243 q 501 1134 501 1183 q 451 1056 501 1085 q 326 1026 401 1026 q 199 1056 250 1026 q 149 1134 149 1085 m 562 1134 q 612 1213 562 1183 q 739 1243 663 1243 q 864 1213 813 1243 q 914 1134 914 1183 q 864 1056 914 1085 q 739 1026 813 1026 q 612 1056 663 1026 q 562 1134 562 1085 z "},"Ì":{"ha":540,"x_min":14,"x_max":476,"o":"m 64 0 l 64 972 l 476 972 l 476 0 l 64 0 m 14 1220 l 414 1220 l 460 1035 l 95 1035 l 14 1220 z "},"Í":{"ha":540,"x_min":64,"x_max":526,"o":"m 64 0 l 64 972 l 476 972 l 476 0 l 64 0 m 80 1035 l 126 1220 l 526 1220 l 445 1035 l 80 1035 z "},"Î":{"ha":540,"x_min":-83,"x_max":624,"o":"m 64 0 l 64 972 l 476 972 l 476 0 l 64 0 m -83 1035 l 42 1222 q 498 1222 271 1204 l 624 1035 l 354 1035 l 269 1132 l 184 1035 l -83 1035 z "},"Ï":{"ha":540,"x_min":-113,"x_max":652,"o":"m 64 0 l 64 972 l 476 972 l 476 0 l 64 0 m -113 1134 q -62 1213 -113 1183 q 64 1243 -12 1243 q 189 1213 138 1243 q 239 1134 239 1183 q 189 1056 239 1085 q 64 1026 139 1026 q -62 1056 -12 1026 q -113 1134 -113 1085 m 300 1134 q 351 1213 300 1183 q 477 1243 401 1243 q 602 1213 551 1243 q 652 1134 652 1183 q 602 1056 652 1085 q 477 1026 551 1026 q 351 1056 401 1026 q 300 1134 300 1085 z "},"Ð":{"ha":1295,"x_min":25,"x_max":1263,"o":"m 25 387 l 25 605 l 138 605 l 138 972 l 661 972 q 1263 492 1263 972 q 651 0 1263 0 l 138 0 l 138 387 l 25 387 m 549 241 l 600 241 q 766 300 710 241 q 822 492 822 359 q 769 677 822 623 q 604 731 717 731 l 549 731 l 549 605 l 696 605 l 696 387 l 549 387 l 549 241 z "},"Ñ":{"ha":1289,"x_min":64,"x_max":1225,"o":"m 64 0 l 64 972 l 561 972 l 847 448 l 847 972 l 1225 972 l 1225 0 l 750 0 l 443 562 l 443 0 l 64 0 m 273 1035 q 329 1184 273 1131 q 480 1237 384 1237 q 647 1215 536 1237 q 795 1194 757 1194 q 852 1232 852 1194 l 1013 1232 q 958 1078 1013 1127 q 816 1029 903 1029 q 640 1052 751 1029 q 490 1074 528 1074 q 441 1035 444 1074 l 273 1035 z "},"Ò":{"ha":1308,"x_min":31,"x_max":1277,"o":"m 654 -27 q 448 -7 543 -27 q 275 54 353 13 q 144 156 198 95 q 60 300 90 216 q 31 488 31 385 q 78 715 31 616 q 210 876 125 814 q 407 968 295 937 q 654 1000 519 1000 q 901 969 789 1000 q 1098 877 1013 938 q 1230 716 1183 816 q 1277 488 1277 617 q 1232 260 1277 359 q 1104 99 1187 161 q 908 5 1021 37 q 654 -27 794 -27 m 397 1220 l 797 1220 l 843 1035 l 478 1035 l 397 1220 m 473 488 q 517 276 473 353 q 654 199 560 199 q 758 236 717 199 q 816 337 799 274 q 833 488 833 399 q 790 698 833 622 q 654 774 747 774 q 571 753 606 774 q 515 693 536 732 q 484 604 494 654 q 473 488 473 553 z "},"Ó":{"ha":1308,"x_min":31,"x_max":1277,"o":"m 654 -27 q 448 -7 543 -27 q 275 54 353 13 q 144 156 198 95 q 60 300 90 216 q 31 488 31 385 q 78 715 31 616 q 210 876 125 814 q 407 968 295 937 q 654 1000 519 1000 q 901 969 789 1000 q 1098 877 1013 938 q 1230 716 1183 816 q 1277 488 1277 617 q 1232 260 1277 359 q 1104 99 1187 161 q 908 5 1021 37 q 654 -27 794 -27 m 463 1035 l 509 1220 l 909 1220 l 828 1035 l 463 1035 m 473 488 q 517 276 473 353 q 654 199 560 199 q 758 236 717 199 q 816 337 799 274 q 833 488 833 399 q 790 698 833 622 q 654 774 747 774 q 571 753 606 774 q 515 693 536 732 q 484 604 494 654 q 473 488 473 553 z "},"Ô":{"ha":1308,"x_min":31,"x_max":1277,"o":"m 654 -27 q 448 -7 543 -27 q 275 54 353 13 q 144 156 198 95 q 60 300 90 216 q 31 488 31 385 q 78 715 31 616 q 210 876 125 814 q 407 968 295 937 q 654 1000 519 1000 q 901 969 789 1000 q 1098 877 1013 938 q 1230 716 1183 816 q 1277 488 1277 617 q 1232 260 1277 359 q 1104 99 1187 161 q 908 5 1021 37 q 654 -27 794 -27 m 300 1035 l 425 1222 q 882 1222 654 1204 l 1007 1035 l 737 1035 l 652 1132 l 568 1035 l 300 1035 m 473 488 q 517 276 473 353 q 654 199 560 199 q 758 236 717 199 q 816 337 799 274 q 833 488 833 399 q 790 698 833 622 q 654 774 747 774 q 571 753 606 774 q 515 693 536 732 q 484 604 494 654 q 473 488 473 553 z "},"Õ":{"ha":1308,"x_min":31,"x_max":1277,"o":"m 654 -27 q 448 -7 543 -27 q 275 54 353 13 q 144 156 198 95 q 60 300 90 216 q 31 488 31 385 q 78 715 31 616 q 210 876 125 814 q 407 968 295 937 q 654 1000 519 1000 q 901 969 789 1000 q 1098 877 1013 938 q 1230 716 1183 816 q 1277 488 1277 617 q 1232 260 1277 359 q 1104 99 1187 161 q 908 5 1021 37 q 654 -27 794 -27 m 283 1035 q 339 1184 283 1131 q 490 1237 394 1237 q 657 1215 547 1237 q 806 1194 767 1194 q 862 1232 862 1194 l 1023 1232 q 968 1078 1023 1127 q 826 1029 913 1029 q 650 1052 762 1029 q 500 1074 538 1074 q 452 1035 454 1074 l 283 1035 m 473 488 q 517 276 473 353 q 654 199 560 199 q 758 236 717 199 q 816 337 799 274 q 833 488 833 399 q 790 698 833 622 q 654 774 747 774 q 571 753 606 774 q 515 693 536 732 q 484 604 494 654 q 473 488 473 553 z "},"Ö":{"ha":1308,"x_min":31,"x_max":1277,"o":"m 654 -27 q 448 -7 543 -27 q 275 54 353 13 q 144 156 198 95 q 60 300 90 216 q 31 488 31 385 q 78 715 31 616 q 210 876 125 814 q 407 968 295 937 q 654 1000 519 1000 q 901 969 789 1000 q 1098 877 1013 938 q 1230 716 1183 816 q 1277 488 1277 617 q 1232 260 1277 359 q 1104 99 1187 161 q 908 5 1021 37 q 654 -27 794 -27 m 270 1134 q 321 1213 270 1183 q 447 1243 372 1243 q 572 1213 522 1243 q 623 1134 623 1183 q 572 1056 623 1085 q 447 1026 522 1026 q 321 1056 372 1026 q 270 1134 270 1085 m 473 488 q 517 276 473 353 q 654 199 560 199 q 758 236 717 199 q 816 337 799 274 q 833 488 833 399 q 790 698 833 622 q 654 774 747 774 q 571 753 606 774 q 515 693 536 732 q 484 604 494 654 q 473 488 473 553 m 683 1134 q 734 1213 683 1183 q 860 1243 785 1243 q 985 1213 935 1243 q 1036 1134 1036 1183 q 985 1056 1036 1085 q 860 1026 935 1026 q 734 1056 785 1026 q 683 1134 683 1085 z "},"×":{"ha":781,"x_min":31,"x_max":751,"o":"m 194 86 l 31 254 l 222 441 l 31 629 l 194 797 l 391 606 l 587 797 l 751 629 l 558 441 l 750 254 l 587 87 l 391 278 l 194 86 z "},"Ø":{"ha":1308,"x_min":31,"x_max":1277,"o":"m 61 -37 l 196 106 q 31 488 31 241 q 78 715 31 616 q 210 876 125 814 q 407 968 295 937 q 654 1000 519 1000 q 987 940 846 1000 l 1052 1009 l 1236 1009 l 1105 871 q 1277 488 1277 737 q 1232 260 1277 359 q 1104 99 1187 161 q 908 5 1021 37 q 654 -27 794 -27 q 313 35 455 -27 l 245 -37 l 61 -37 m 473 488 q 478 404 473 441 l 776 718 q 654 774 731 774 q 571 753 606 774 q 515 693 536 732 q 484 604 494 654 q 473 488 473 553 m 527 260 q 654 199 572 199 q 758 236 717 199 q 816 337 799 274 q 833 488 833 399 q 828 578 833 533 l 527 260 z "},"Ù":{"ha":1175,"x_min":56,"x_max":1120,"o":"m 587 -28 q 187 62 319 -28 q 56 323 56 152 l 56 972 l 468 972 l 468 350 q 499 263 468 293 q 587 233 530 233 q 677 263 646 233 q 707 350 707 292 l 707 972 l 1120 972 l 1120 323 q 987 62 1120 153 q 587 -28 855 -28 m 331 1220 l 731 1220 l 777 1035 l 412 1035 l 331 1220 z "},"Ú":{"ha":1175,"x_min":56,"x_max":1120,"o":"m 587 -28 q 187 62 319 -28 q 56 323 56 152 l 56 972 l 468 972 l 468 350 q 499 263 468 293 q 587 233 530 233 q 677 263 646 233 q 707 350 707 292 l 707 972 l 1120 972 l 1120 323 q 987 62 1120 153 q 587 -28 855 -28 m 397 1035 l 444 1220 l 844 1220 l 762 1035 l 397 1035 z "},"Û":{"ha":1175,"x_min":56,"x_max":1120,"o":"m 587 -28 q 187 62 319 -28 q 56 323 56 152 l 56 972 l 468 972 l 468 350 q 499 263 468 293 q 587 233 530 233 q 677 263 646 233 q 707 350 707 292 l 707 972 l 1120 972 l 1120 323 q 987 62 1120 153 q 587 -28 855 -28 m 234 1035 l 359 1222 q 816 1222 588 1204 l 941 1035 l 671 1035 l 587 1132 l 502 1035 l 234 1035 z "},"Ü":{"ha":1175,"x_min":56,"x_max":1120,"o":"m 587 -28 q 187 62 319 -28 q 56 323 56 152 l 56 972 l 468 972 l 468 350 q 499 263 468 293 q 587 233 530 233 q 677 263 646 233 q 707 350 707 292 l 707 972 l 1120 972 l 1120 323 q 987 62 1120 153 q 587 -28 855 -28 m 205 1134 q 256 1213 205 1183 q 382 1243 307 1243 q 507 1213 456 1243 q 557 1134 557 1183 q 507 1056 557 1085 q 382 1026 457 1026 q 256 1056 307 1026 q 205 1134 205 1085 m 618 1134 q 669 1213 618 1183 q 795 1243 720 1243 q 920 1213 869 1243 q 970 1134 970 1183 q 920 1056 970 1085 q 795 1026 869 1026 q 669 1056 720 1026 q 618 1134 618 1085 z "},"Ý":{"ha":1142,"x_min":-12,"x_max":1152,"o":"m 364 231 q 340 303 364 281 q 250 324 315 325 l -12 972 l 435 972 l 573 557 l 711 972 l 1152 972 l 892 324 q 802 303 826 325 q 778 231 778 282 l 778 0 l 364 0 l 364 231 m 384 1035 l 430 1220 l 830 1220 l 749 1035 l 384 1035 z "},"Þ":{"ha":1099,"x_min":64,"x_max":1075,"o":"m 64 0 l 64 972 l 476 972 l 476 838 l 588 838 q 1075 507 1075 838 q 1053 372 1075 431 q 989 274 1030 313 q 888 209 949 235 q 756 173 828 184 q 595 161 684 161 l 476 161 l 476 0 l 64 0 m 476 381 l 525 381 q 667 503 667 381 q 631 593 667 566 q 526 621 595 621 l 476 621 l 476 381 z "},"ß":{"ha":1072,"x_min":58,"x_max":1043,"o":"m 58 664 q 188 913 58 827 q 547 999 319 999 q 725 984 644 999 q 870 940 807 969 q 970 861 934 910 q 1006 749 1006 812 q 954 609 1006 662 q 798 527 901 555 q 980 438 917 499 q 1043 281 1043 376 q 989 119 1043 186 q 848 21 935 52 q 652 -9 761 -9 q 496 5 565 -9 l 496 192 q 528 189 515 189 q 610 217 577 189 q 644 307 644 245 q 526 424 644 424 l 500 424 l 500 608 l 517 608 q 592 636 566 608 q 618 715 618 665 q 596 779 618 758 q 535 801 573 801 q 470 776 496 801 q 445 705 445 751 l 445 0 l 58 0 l 58 664 z "},"à":{"ha":1045,"x_min":28,"x_max":1017,"o":"m 313 -23 q 104 38 181 -23 q 28 216 28 99 q 104 388 28 331 q 361 462 181 445 l 603 484 l 603 516 q 532 587 603 587 q 452 508 456 587 l 56 508 q 127 657 63 596 q 294 745 192 718 q 530 773 397 773 q 714 755 631 773 q 859 702 796 738 q 956 608 922 667 q 990 472 990 549 l 990 186 q 1017 0 990 103 l 632 0 q 613 106 619 54 q 313 -23 509 -23 m 280 990 l 663 990 l 706 806 l 366 806 l 280 990 m 427 258 q 451 203 427 222 q 511 184 475 184 q 576 204 549 184 q 603 265 603 225 l 603 361 l 530 347 q 450 314 473 333 q 427 258 427 294 z "},"á":{"ha":1045,"x_min":28,"x_max":1017,"o":"m 313 -23 q 104 38 181 -23 q 28 216 28 99 q 104 388 28 331 q 361 462 181 445 l 603 484 l 603 516 q 532 587 603 587 q 452 508 456 587 l 56 508 q 127 657 63 596 q 294 745 192 718 q 530 773 397 773 q 714 755 631 773 q 859 702 796 738 q 956 608 922 667 q 990 472 990 549 l 990 186 q 1017 0 990 103 l 632 0 q 613 106 619 54 q 313 -23 509 -23 m 351 806 l 394 990 l 777 990 l 692 806 l 351 806 m 427 258 q 451 203 427 222 q 511 184 475 184 q 576 204 549 184 q 603 265 603 225 l 603 361 l 530 347 q 450 314 473 333 q 427 258 427 294 z "},"â":{"ha":1045,"x_min":28,"x_max":1017,"o":"m 313 -23 q 104 38 181 -23 q 28 216 28 99 q 104 388 28 331 q 361 462 181 445 l 603 484 l 603 516 q 532 587 603 587 q 452 508 456 587 l 56 508 q 127 657 63 596 q 294 745 192 718 q 530 773 397 773 q 714 755 631 773 q 859 702 796 738 q 956 608 922 667 q 990 472 990 549 l 990 186 q 1017 0 990 103 l 632 0 q 613 106 619 54 q 313 -23 509 -23 m 190 806 l 316 996 q 752 996 534 978 l 879 806 l 610 806 l 536 905 l 461 806 l 190 806 m 427 258 q 451 203 427 222 q 511 184 475 184 q 576 204 549 184 q 603 265 603 225 l 603 361 l 530 347 q 450 314 473 333 q 427 258 427 294 z "},"ã":{"ha":1045,"x_min":28,"x_max":1017,"o":"m 313 -23 q 104 38 181 -23 q 28 216 28 99 q 104 388 28 331 q 361 462 181 445 l 603 484 l 603 516 q 532 587 603 587 q 452 508 456 587 l 56 508 q 127 657 63 596 q 294 745 192 718 q 530 773 397 773 q 714 755 631 773 q 859 702 796 738 q 956 608 922 667 q 990 472 990 549 l 990 186 q 1017 0 990 103 l 632 0 q 613 106 619 54 q 313 -23 509 -23 m 166 806 q 221 955 166 901 q 372 1008 276 1008 q 531 986 425 1008 q 673 964 636 964 q 728 1002 728 964 l 888 1002 q 834 849 888 898 q 694 800 780 800 q 525 822 632 800 q 382 845 418 845 q 334 806 336 845 l 166 806 m 427 258 q 451 203 427 222 q 511 184 475 184 q 576 204 549 184 q 603 265 603 225 l 603 361 l 530 347 q 450 314 473 333 q 427 258 427 294 z "},"ä":{"ha":1045,"x_min":28,"x_max":1017,"o":"m 313 -23 q 104 38 181 -23 q 28 216 28 99 q 104 388 28 331 q 361 462 181 445 l 603 484 l 603 516 q 532 587 603 587 q 452 508 456 587 l 56 508 q 127 657 63 596 q 294 745 192 718 q 530 773 397 773 q 714 755 631 773 q 859 702 796 738 q 956 608 922 667 q 990 472 990 549 l 990 186 q 1017 0 990 103 l 632 0 q 613 106 619 54 q 313 -23 509 -23 m 151 924 q 202 1004 151 974 q 330 1034 253 1034 q 456 1004 406 1034 q 507 924 507 974 q 456 844 507 874 q 330 814 405 814 q 202 844 253 814 q 151 924 151 874 m 427 258 q 451 203 427 222 q 511 184 475 184 q 576 204 549 184 q 603 265 603 225 l 603 361 l 530 347 q 450 314 473 333 q 427 258 427 294 m 551 924 q 603 1004 551 974 q 730 1034 654 1034 q 857 1004 806 1034 q 908 924 908 974 q 857 844 908 874 q 730 814 806 814 q 603 844 654 814 q 551 924 551 874 z "},"å":{"ha":1045,"x_min":28,"x_max":1017,"o":"m 313 -23 q 104 38 181 -23 q 28 216 28 99 q 104 388 28 331 q 361 462 181 445 l 603 484 l 603 516 q 532 587 603 587 q 452 508 456 587 l 56 508 q 127 657 63 596 q 294 745 192 718 q 530 773 397 773 q 714 755 631 773 q 859 702 796 738 q 956 608 922 667 q 990 472 990 549 l 990 186 q 1017 0 990 103 l 632 0 q 613 106 619 54 q 313 -23 509 -23 m 294 935 q 359 1036 294 1000 q 529 1072 425 1072 q 700 1036 634 1072 q 765 935 765 1000 q 699 834 765 871 q 529 798 633 798 q 359 834 425 798 q 294 935 294 871 m 427 258 q 451 203 427 222 q 511 184 475 184 q 576 204 549 184 q 603 265 603 225 l 603 361 l 530 347 q 450 314 473 333 q 427 258 427 294 m 467 935 q 485 895 467 910 q 529 880 503 880 q 574 895 556 880 q 592 935 592 910 q 574 975 592 960 q 529 990 556 990 q 485 975 503 990 q 467 935 467 960 z "},"æ":{"ha":1646,"x_min":27,"x_max":1615,"o":"m 363 -23 q 117 38 206 -23 q 27 215 27 98 q 106 387 27 330 q 369 456 185 444 l 602 472 l 602 518 q 532 588 602 588 q 452 508 454 588 l 55 508 q 98 626 60 574 q 200 709 136 677 q 347 757 264 741 q 530 773 430 773 q 828 708 720 773 q 1116 773 942 773 q 1482 667 1350 773 q 1615 363 1615 560 l 1615 313 l 998 313 q 1112 171 1002 171 q 1184 195 1157 171 q 1217 263 1212 218 l 1613 263 q 1459 53 1592 128 q 1120 -23 1325 -23 q 899 8 996 -23 q 743 100 802 39 q 363 -23 614 -23 m 426 256 q 450 198 426 217 q 511 180 473 180 q 575 200 548 180 q 602 259 602 220 l 602 355 l 530 342 q 449 312 473 332 q 426 256 426 293 m 1000 468 l 1217 468 q 1188 555 1214 524 q 1112 587 1162 587 q 1034 556 1062 587 q 1000 468 1005 525 z "},"ç":{"ha":1069,"x_min":28,"x_max":1050,"o":"m 532 -315 q 353 -275 425 -315 q 277 -159 281 -236 l 471 -159 q 490 -185 475 -175 q 530 -195 506 -195 q 583 -157 583 -195 q 565 -129 583 -139 q 520 -119 546 -119 q 464 -130 484 -119 l 467 -20 q 146 97 263 -5 q 28 378 28 199 q 67 551 28 475 q 175 675 106 627 q 337 748 244 724 q 541 773 430 773 q 899 688 766 773 q 1046 455 1032 603 l 645 455 q 617 544 642 512 q 548 575 593 575 q 463 529 491 575 q 435 380 435 482 q 462 224 435 272 q 547 176 489 176 q 615 208 589 176 q 646 301 642 240 l 1050 301 q 982 134 1042 204 q 824 25 922 63 q 600 -21 727 -13 l 600 -39 q 731 -76 682 -42 q 781 -166 781 -110 q 760 -237 781 -208 q 702 -283 739 -267 q 623 -307 665 -300 q 532 -315 581 -315 z "},"è":{"ha":1074,"x_min":28,"x_max":1044,"o":"m 536 -23 q 270 21 383 -23 q 92 155 157 65 q 28 372 28 245 q 164 667 28 560 q 538 773 301 773 q 805 727 692 773 q 981 587 918 680 q 1044 363 1044 494 l 1044 313 l 424 313 q 539 171 427 171 q 610 195 583 171 q 642 263 637 219 l 1040 263 q 883 53 1020 128 q 536 -23 747 -23 m 287 990 l 670 990 l 713 806 l 372 806 l 287 990 m 426 468 l 642 468 q 614 553 641 522 q 538 585 587 585 q 459 554 488 585 q 426 468 431 524 z "},"é":{"ha":1074,"x_min":28,"x_max":1044,"o":"m 536 -23 q 270 21 383 -23 q 92 155 157 65 q 28 372 28 245 q 164 667 28 560 q 538 773 301 773 q 805 727 692 773 q 981 587 918 680 q 1044 363 1044 494 l 1044 313 l 424 313 q 539 171 427 171 q 610 195 583 171 q 642 263 637 219 l 1040 263 q 883 53 1020 128 q 536 -23 747 -23 m 358 806 l 401 990 l 784 990 l 699 806 l 358 806 m 426 468 l 642 468 q 614 553 641 522 q 538 585 587 585 q 459 554 488 585 q 426 468 431 524 z "},"ê":{"ha":1074,"x_min":28,"x_max":1044,"o":"m 536 -23 q 270 21 383 -23 q 92 155 157 65 q 28 372 28 245 q 164 667 28 560 q 538 773 301 773 q 805 727 692 773 q 981 587 918 680 q 1044 363 1044 494 l 1044 313 l 424 313 q 539 171 427 171 q 610 195 583 171 q 642 263 637 219 l 1040 263 q 883 53 1020 128 q 536 -23 747 -23 m 197 806 l 323 996 q 759 996 541 978 l 886 806 l 617 806 l 543 905 l 468 806 l 197 806 m 426 468 l 642 468 q 614 553 641 522 q 538 585 587 585 q 459 554 488 585 q 426 468 431 524 z "},"ë":{"ha":1074,"x_min":28,"x_max":1044,"o":"m 536 -23 q 270 21 383 -23 q 92 155 157 65 q 28 372 28 245 q 164 667 28 560 q 538 773 301 773 q 805 727 692 773 q 981 587 918 680 q 1044 363 1044 494 l 1044 313 l 424 313 q 539 171 427 171 q 610 195 583 171 q 642 263 637 219 l 1040 263 q 883 53 1020 128 q 536 -23 747 -23 m 157 924 q 208 1004 157 974 q 336 1034 259 1034 q 463 1004 412 1034 q 513 924 513 974 q 462 844 513 874 q 336 814 411 814 q 208 844 259 814 q 157 924 157 874 m 426 468 l 642 468 q 614 553 641 522 q 538 585 587 585 q 459 554 488 585 q 426 468 431 524 m 557 924 q 609 1004 557 974 q 736 1034 660 1034 q 863 1004 812 1034 q 914 924 914 974 q 863 844 914 874 q 736 814 812 814 q 609 844 660 814 q 557 924 557 874 z "},"ì":{"ha":503,"x_min":3,"x_max":445,"o":"m 58 0 l 58 750 l 445 750 l 445 0 l 58 0 m 3 990 l 386 990 l 429 806 l 88 806 l 3 990 z "},"í":{"ha":503,"x_min":58,"x_max":500,"o":"m 58 0 l 58 750 l 445 750 l 445 0 l 58 0 m 75 806 l 117 990 l 500 990 l 415 806 l 75 806 z "},"î":{"ha":503,"x_min":-87,"x_max":602,"o":"m 58 0 l 58 750 l 445 750 l 445 0 l 58 0 m -87 806 l 39 996 q 475 996 257 978 l 602 806 l 334 806 l 259 905 l 184 806 l -87 806 z "},"ï":{"ha":503,"x_min":-127,"x_max":631,"o":"m 58 0 l 58 750 l 445 750 l 445 0 l 58 0 m -127 924 q -76 1004 -127 974 q 52 1034 -24 1034 q 179 1004 128 1034 q 230 924 230 974 q 179 844 230 874 q 52 814 127 814 q -76 844 -24 814 q -127 924 -127 874 m 274 924 q 325 1004 274 974 q 452 1034 376 1034 q 579 1004 528 1034 q 631 924 631 974 q 579 844 631 874 q 452 814 528 814 q 325 844 376 814 q 274 924 274 874 z "},"ð":{"ha":1100,"x_min":29,"x_max":1069,"o":"m 549 -24 q 279 22 395 -24 q 96 161 163 67 q 29 388 29 255 q 63 551 29 479 q 156 670 97 624 q 292 742 214 717 q 458 766 369 766 q 593 745 536 766 l 493 841 l 302 798 l 302 892 l 413 918 l 278 1048 l 646 1048 l 707 985 l 891 1026 l 891 931 l 783 907 l 905 780 q 1026 612 983 700 q 1069 408 1069 524 q 1030 219 1069 302 q 922 83 991 136 q 758 3 852 31 q 549 -24 663 -24 m 434 376 q 549 175 434 175 q 635 222 606 175 q 664 376 664 270 q 549 575 664 575 q 434 376 434 575 z "},"ñ":{"ha":1056,"x_min":58,"x_max":1006,"o":"m 58 0 l 58 750 l 435 750 l 435 612 q 554 729 477 685 q 732 773 631 773 q 933 697 861 773 q 1006 472 1006 622 l 1006 0 l 618 0 l 618 428 q 536 522 618 522 q 471 496 497 522 q 445 418 445 470 l 445 0 l 58 0 m 166 806 q 221 955 166 901 q 372 1008 276 1008 q 531 986 425 1008 q 673 964 636 964 q 728 1002 728 964 l 888 1002 q 834 849 888 898 q 694 800 780 800 q 525 822 632 800 q 382 845 418 845 q 334 806 336 845 l 166 806 z "},"ò":{"ha":1095,"x_min":28,"x_max":1067,"o":"m 548 -23 q 339 3 434 -23 q 175 78 244 28 q 66 204 105 127 q 28 376 28 280 q 67 548 28 472 q 176 672 106 623 q 341 747 246 722 q 548 773 435 773 q 814 729 699 773 q 999 595 930 686 q 1067 376 1067 504 q 1029 204 1067 280 q 921 78 991 127 q 757 3 852 28 q 548 -23 663 -23 m 300 990 l 683 990 l 726 806 l 385 806 l 300 990 m 433 376 q 548 176 433 176 q 663 376 663 176 q 548 574 663 574 q 433 376 433 574 z "},"ó":{"ha":1095,"x_min":28,"x_max":1067,"o":"m 548 -23 q 339 3 434 -23 q 175 78 244 28 q 66 204 105 127 q 28 376 28 280 q 67 548 28 472 q 176 672 106 623 q 341 747 246 722 q 548 773 435 773 q 814 729 699 773 q 999 595 930 686 q 1067 376 1067 504 q 1029 204 1067 280 q 921 78 991 127 q 757 3 852 28 q 548 -23 663 -23 m 371 806 l 414 990 l 797 990 l 711 806 l 371 806 m 433 376 q 548 176 433 176 q 663 376 663 176 q 548 574 663 574 q 433 376 433 574 z "},"ô":{"ha":1095,"x_min":28,"x_max":1067,"o":"m 548 -23 q 339 3 434 -23 q 175 78 244 28 q 66 204 105 127 q 28 376 28 280 q 67 548 28 472 q 176 672 106 623 q 341 747 246 722 q 548 773 435 773 q 814 729 699 773 q 999 595 930 686 q 1067 376 1067 504 q 1029 204 1067 280 q 921 78 991 127 q 757 3 852 28 q 548 -23 663 -23 m 210 806 l 336 996 q 772 996 553 978 l 899 806 l 630 806 l 555 905 l 481 806 l 210 806 m 433 376 q 548 176 433 176 q 663 376 663 176 q 548 574 663 574 q 433 376 433 574 z "},"õ":{"ha":1095,"x_min":28,"x_max":1067,"o":"m 548 -23 q 339 3 434 -23 q 175 78 244 28 q 66 204 105 127 q 28 376 28 280 q 67 548 28 472 q 176 672 106 623 q 341 747 246 722 q 548 773 435 773 q 814 729 699 773 q 999 595 930 686 q 1067 376 1067 504 q 1029 204 1067 280 q 921 78 991 127 q 757 3 852 28 q 548 -23 663 -23 m 186 806 q 241 955 186 901 q 391 1008 296 1008 q 550 986 445 1008 q 692 964 655 964 q 748 1002 748 964 l 908 1002 q 854 849 908 898 q 713 800 800 800 q 545 822 652 800 q 401 845 438 845 q 354 806 356 845 l 186 806 m 433 376 q 548 176 433 176 q 663 376 663 176 q 548 574 663 574 q 433 376 433 574 z "},"ö":{"ha":1095,"x_min":28,"x_max":1067,"o":"m 548 -23 q 339 3 434 -23 q 175 78 244 28 q 66 204 105 127 q 28 376 28 280 q 67 548 28 472 q 176 672 106 623 q 341 747 246 722 q 548 773 435 773 q 814 729 699 773 q 999 595 930 686 q 1067 376 1067 504 q 1029 204 1067 280 q 921 78 991 127 q 757 3 852 28 q 548 -23 663 -23 m 170 924 q 221 1004 170 974 q 349 1034 272 1034 q 475 1004 425 1034 q 526 924 526 974 q 475 844 526 874 q 349 814 424 814 q 221 844 272 814 q 170 924 170 874 m 433 376 q 548 176 433 176 q 663 376 663 176 q 548 574 663 574 q 433 376 433 574 m 570 924 q 622 1004 570 974 q 749 1034 673 1034 q 876 1004 825 1034 q 927 924 927 974 q 876 844 927 874 q 749 814 825 814 q 622 844 673 814 q 570 924 570 874 z "},"÷":{"ha":862,"x_min":52,"x_max":809,"o":"m 52 332 l 52 555 l 809 555 l 809 332 l 52 332 m 292 180 q 331 270 292 234 q 431 305 371 305 q 531 270 492 305 q 571 180 571 234 q 531 90 571 126 q 431 54 492 54 q 331 90 371 54 q 292 180 292 126 m 292 708 q 331 798 292 762 q 431 833 370 833 q 531 798 492 833 q 570 708 570 762 q 531 617 570 654 q 431 581 492 581 q 331 617 370 581 q 292 708 292 654 z "},"ø":{"ha":1095,"x_min":28,"x_max":1067,"o":"m 60 -36 l 172 80 q 28 376 28 186 q 67 548 28 472 q 176 672 106 623 q 341 747 246 722 q 548 773 435 773 q 802 733 690 773 l 854 786 l 1036 786 l 923 670 q 1067 376 1067 564 q 1029 204 1067 280 q 921 78 991 127 q 757 3 852 28 q 548 -23 663 -23 q 293 17 405 -23 l 241 -36 l 60 -36 m 433 376 l 433 351 l 621 545 q 548 574 593 574 q 433 376 433 574 m 475 206 q 548 176 503 176 q 663 376 663 176 q 663 400 663 393 l 475 206 z "},"ù":{"ha":1054,"x_min":52,"x_max":996,"o":"m 329 -23 q 124 45 197 -23 q 52 245 52 114 l 52 750 l 439 750 l 439 320 q 460 250 439 273 q 517 227 481 227 q 581 253 553 227 q 609 326 609 278 l 609 750 l 996 750 l 996 0 l 621 0 l 621 142 q 505 21 578 64 q 329 -23 431 -23 m 275 990 l 659 990 l 701 806 l 361 806 l 275 990 z "},"ú":{"ha":1054,"x_min":52,"x_max":996,"o":"m 329 -23 q 124 45 197 -23 q 52 245 52 114 l 52 750 l 439 750 l 439 320 q 460 250 439 273 q 517 227 481 227 q 581 253 553 227 q 609 326 609 278 l 609 750 l 996 750 l 996 0 l 621 0 l 621 142 q 505 21 578 64 q 329 -23 431 -23 m 347 806 l 390 990 l 773 990 l 688 806 l 347 806 z "},"û":{"ha":1054,"x_min":52,"x_max":996,"o":"m 329 -23 q 124 45 197 -23 q 52 245 52 114 l 52 750 l 439 750 l 439 320 q 460 250 439 273 q 517 227 481 227 q 581 253 553 227 q 609 326 609 278 l 609 750 l 996 750 l 996 0 l 621 0 l 621 142 q 505 21 578 64 q 329 -23 431 -23 m 186 806 l 312 996 q 748 996 530 978 l 875 806 l 606 806 l 532 905 l 457 806 l 186 806 z "},"ü":{"ha":1054,"x_min":52,"x_max":996,"o":"m 329 -23 q 124 45 197 -23 q 52 245 52 114 l 52 750 l 439 750 l 439 320 q 460 250 439 273 q 517 227 481 227 q 581 253 553 227 q 609 326 609 278 l 609 750 l 996 750 l 996 0 l 621 0 l 621 142 q 505 21 578 64 q 329 -23 431 -23 m 146 924 q 197 1004 146 974 q 325 1034 248 1034 q 452 1004 401 1034 q 503 924 503 974 q 451 844 503 874 q 325 814 400 814 q 197 844 248 814 q 146 924 146 874 m 547 924 q 598 1004 547 974 q 725 1034 649 1034 q 852 1004 801 1034 q 903 924 903 974 q 852 844 903 874 q 725 814 801 814 q 598 844 649 814 q 547 924 547 874 z "},"ý":{"ha":1047,"x_min":5,"x_max":1041,"o":"m 336 -56 q 310 0 336 -18 q 229 18 284 18 l 5 750 l 413 750 l 526 234 l 643 750 l 1041 750 l 831 18 q 748 1 773 18 q 724 -56 724 -17 l 724 -222 l 336 -222 l 336 -56 m 351 806 l 393 990 l 777 990 l 691 806 l 351 806 z "},"þ":{"ha":1086,"x_min":58,"x_max":1053,"o":"m 719 -23 q 560 14 633 -23 q 446 112 487 51 l 446 -222 l 58 -222 l 58 972 l 446 972 l 446 640 q 565 737 492 701 q 725 773 637 773 q 964 672 876 773 q 1053 375 1053 570 q 961 79 1053 182 q 719 -23 869 -23 m 463 508 q 448 485 463 508 q 434 372 434 461 q 463 236 434 282 q 542 191 492 191 q 620 236 592 191 q 648 372 648 282 q 620 508 648 462 q 542 555 592 555 q 463 508 492 555 z "},"ÿ":{"ha":1047,"x_min":5,"x_max":1041,"o":"m 336 -56 q 310 0 336 -18 q 229 18 284 18 l 5 750 l 413 750 l 526 234 l 643 750 l 1041 750 l 831 18 q 748 1 773 18 q 724 -56 724 -17 l 724 -222 l 336 -222 l 336 -56 m 150 924 q 201 1004 150 974 q 329 1034 252 1034 q 456 1004 405 1034 q 507 924 507 974 q 455 844 507 874 q 329 814 404 814 q 201 844 252 814 q 150 924 150 874 m 551 924 q 602 1004 551 974 q 729 1034 653 1034 q 856 1004 805 1034 q 907 924 907 974 q 856 844 907 874 q 729 814 805 814 q 602 844 653 814 q 551 924 551 874 z "},"Ā":{"ha":1234,"x_min":-5,"x_max":1238,"o":"m -5 0 l 326 972 l 909 972 l 1238 0 l 802 0 l 760 157 l 468 157 l 425 0 l -5 0 m 295 1038 l 295 1218 l 927 1218 l 927 1038 l 295 1038 m 530 407 l 699 407 l 615 720 l 530 407 z "},"ā":{"ha":1045,"x_min":28,"x_max":1017,"o":"m 313 -23 q 104 38 181 -23 q 28 216 28 99 q 104 388 28 331 q 361 462 181 445 l 603 484 l 603 516 q 532 587 603 587 q 452 508 456 587 l 56 508 q 127 657 63 596 q 294 745 192 718 q 530 773 397 773 q 714 755 631 773 q 859 702 796 738 q 956 608 922 667 q 990 472 990 549 l 990 186 q 1017 0 990 103 l 632 0 q 613 106 619 54 q 313 -23 509 -23 m 217 811 l 217 994 l 840 994 l 840 811 l 217 811 m 427 258 q 451 203 427 222 q 511 184 475 184 q 576 204 549 184 q 603 265 603 225 l 603 361 l 530 347 q 450 314 473 333 q 427 258 427 294 z "},"Ă":{"ha":1234,"x_min":-5,"x_max":1238,"o":"m -5 0 l 326 972 l 909 972 l 1238 0 l 802 0 l 760 157 l 468 157 l 425 0 l -5 0 m 319 1220 l 550 1220 q 567 1182 551 1198 q 611 1166 583 1166 q 655 1182 639 1166 q 672 1220 671 1198 l 903 1220 q 824 1076 901 1125 q 611 1027 748 1027 q 398 1076 474 1027 q 319 1220 322 1125 m 530 407 l 699 407 l 615 720 l 530 407 z "},"ă":{"ha":1045,"x_min":28,"x_max":1017,"o":"m 313 -23 q 104 38 181 -23 q 28 216 28 99 q 104 388 28 331 q 361 462 181 445 l 603 484 l 603 516 q 532 587 603 587 q 452 508 456 587 l 56 508 q 127 657 63 596 q 294 745 192 718 q 530 773 397 773 q 714 755 631 773 q 859 702 796 738 q 956 608 922 667 q 990 472 990 549 l 990 186 q 1017 0 990 103 l 632 0 q 613 106 619 54 q 313 -23 509 -23 m 241 991 l 468 991 q 485 954 469 970 q 529 939 501 939 q 573 955 557 939 q 590 991 589 970 l 817 991 q 739 846 815 897 q 529 795 663 795 q 318 846 394 795 q 241 991 242 897 m 427 258 q 451 203 427 222 q 511 184 475 184 q 576 204 549 184 q 603 265 603 225 l 603 361 l 530 347 q 450 314 473 333 q 427 258 427 294 z "},"Ą":{"ha":1234,"x_min":-5,"x_max":1238,"o":"m -5 0 l 326 972 l 909 972 l 1238 0 l 1236 0 q 1147 -34 1177 -12 q 1118 -81 1118 -56 q 1136 -113 1118 -101 q 1190 -125 1154 -125 q 1236 -121 1210 -125 l 1236 -240 q 1093 -256 1175 -256 q 928 -223 987 -256 q 868 -136 868 -190 q 912 -54 868 -90 q 1031 0 957 -18 l 802 0 l 760 157 l 468 157 l 425 0 l -5 0 m 530 407 l 699 407 l 615 720 l 530 407 z "},"ą":{"ha":1045,"x_min":28,"x_max":1017,"o":"m 313 -23 q 104 38 181 -23 q 28 216 28 99 q 104 388 28 331 q 361 462 181 445 l 603 484 l 603 516 q 532 587 603 587 q 452 508 456 587 l 56 508 q 127 657 63 596 q 294 745 192 718 q 530 773 397 773 q 714 755 631 773 q 859 702 796 738 q 956 608 922 667 q 990 472 990 549 l 990 186 q 1017 0 990 103 q 928 -34 958 -12 q 899 -81 899 -56 q 917 -113 899 -101 q 970 -125 935 -125 q 1017 -121 991 -125 l 1017 -240 q 874 -256 956 -256 q 709 -223 768 -256 q 649 -136 649 -190 q 693 -54 649 -90 q 812 0 738 -18 l 632 0 q 613 106 619 54 q 313 -23 509 -23 m 427 258 q 451 203 427 222 q 511 184 475 184 q 576 204 549 184 q 603 265 603 225 l 603 361 l 530 347 q 450 314 473 333 q 427 258 427 294 z "},"Ć":{"ha":1238,"x_min":31,"x_max":1225,"o":"m 631 -26 q 311 31 444 -26 q 104 203 178 87 q 31 488 31 319 q 109 773 31 657 q 322 944 186 889 q 644 1000 458 1000 q 936 955 809 1000 q 1138 823 1063 909 q 1223 617 1213 736 l 782 617 q 744 732 779 690 q 642 774 709 774 q 474 488 474 774 q 513 274 474 347 q 638 202 553 202 q 746 250 710 202 q 789 376 783 298 l 1225 376 q 1170 198 1218 275 q 1041 72 1121 120 q 857 -1 960 23 q 631 -26 753 -26 m 449 1035 l 495 1220 l 895 1220 l 814 1035 l 449 1035 z "},"ć":{"ha":1069,"x_min":28,"x_max":1050,"o":"m 535 -23 q 270 21 382 -23 q 93 157 157 66 q 28 378 28 248 q 67 551 28 475 q 175 675 106 627 q 337 748 244 724 q 541 773 430 773 q 899 688 766 773 q 1046 455 1032 603 l 645 455 q 617 544 642 512 q 548 575 593 575 q 463 529 491 575 q 435 380 435 482 q 462 224 435 272 q 547 176 489 176 q 615 208 589 176 q 646 301 642 240 l 1050 301 q 972 122 1042 196 q 790 13 902 48 q 535 -23 679 -23 m 368 806 l 411 990 l 794 990 l 709 806 l 368 806 z "},"Ĉ":{"ha":1238,"x_min":31,"x_max":1225,"o":"m 631 -26 q 311 31 444 -26 q 104 203 178 87 q 31 488 31 319 q 109 773 31 657 q 322 944 186 889 q 644 1000 458 1000 q 936 955 809 1000 q 1138 823 1063 909 q 1223 617 1213 736 l 782 617 q 744 732 779 690 q 642 774 709 774 q 474 488 474 774 q 513 274 474 347 q 638 202 553 202 q 746 250 710 202 q 789 376 783 298 l 1225 376 q 1170 198 1218 275 q 1041 72 1121 120 q 857 -1 960 23 q 631 -26 753 -26 m 286 1035 l 411 1222 q 867 1222 640 1204 l 993 1035 l 723 1035 l 638 1132 l 553 1035 l 286 1035 z "},"ĉ":{"ha":1069,"x_min":28,"x_max":1050,"o":"m 535 -23 q 270 21 382 -23 q 93 157 157 66 q 28 378 28 248 q 67 551 28 475 q 175 675 106 627 q 337 748 244 724 q 541 773 430 773 q 899 688 766 773 q 1046 455 1032 603 l 645 455 q 617 544 642 512 q 548 575 593 575 q 463 529 491 575 q 435 380 435 482 q 462 224 435 272 q 547 176 489 176 q 615 208 589 176 q 646 301 642 240 l 1050 301 q 972 122 1042 196 q 790 13 902 48 q 535 -23 679 -23 m 207 806 l 333 996 q 769 996 551 978 l 896 806 l 627 806 l 553 905 l 478 806 l 207 806 z "},"Ċ":{"ha":1238,"x_min":31,"x_max":1225,"o":"m 631 -26 q 311 31 444 -26 q 104 203 178 87 q 31 488 31 319 q 109 773 31 657 q 322 944 186 889 q 644 1000 458 1000 q 936 955 809 1000 q 1138 823 1063 909 q 1223 617 1213 736 l 782 617 q 744 732 779 690 q 642 774 709 774 q 474 488 474 774 q 513 274 474 347 q 638 202 553 202 q 746 250 710 202 q 789 376 783 298 l 1225 376 q 1170 198 1218 275 q 1041 72 1121 120 q 857 -1 960 23 q 631 -26 753 -26 m 494 1059 q 466 1076 494 1059 q 437 1149 437 1093 q 494 1239 437 1205 q 638 1273 552 1273 q 781 1239 724 1273 q 839 1149 839 1205 q 781 1059 839 1093 q 638 1025 724 1025 q 494 1059 552 1025 z "},"ċ":{"ha":1069,"x_min":28,"x_max":1050,"o":"m 535 -23 q 270 21 382 -23 q 93 157 157 66 q 28 378 28 248 q 67 551 28 475 q 175 675 106 627 q 337 748 244 724 q 541 773 430 773 q 899 688 766 773 q 1046 455 1032 603 l 645 455 q 617 544 642 512 q 548 575 593 575 q 463 529 491 575 q 435 380 435 482 q 462 224 435 272 q 547 176 489 176 q 615 208 589 176 q 646 301 642 240 l 1050 301 q 972 122 1042 196 q 790 13 902 48 q 535 -23 679 -23 m 336 916 q 396 1010 336 975 q 546 1046 456 1046 q 695 1010 635 1046 q 755 916 755 975 q 695 823 755 858 q 546 787 635 787 q 396 823 456 787 q 336 916 336 858 z "},"Č":{"ha":1238,"x_min":31,"x_max":1225,"o":"m 631 -26 q 311 31 444 -26 q 104 203 178 87 q 31 488 31 319 q 109 773 31 657 q 322 944 186 889 q 644 1000 458 1000 q 936 955 809 1000 q 1138 823 1063 909 q 1223 617 1213 736 l 782 617 q 744 732 779 690 q 642 774 709 774 q 474 488 474 774 q 513 274 474 347 q 638 202 553 202 q 746 250 710 202 q 789 376 783 298 l 1225 376 q 1170 198 1218 275 q 1041 72 1121 120 q 857 -1 960 23 q 631 -26 753 -26 m 286 1220 l 556 1220 l 641 1123 l 726 1220 l 994 1220 l 868 1033 q 412 1033 640 1050 l 286 1220 z "},"č":{"ha":1069,"x_min":28,"x_max":1050,"o":"m 535 -23 q 270 21 382 -23 q 93 157 157 66 q 28 378 28 248 q 67 551 28 475 q 175 675 106 627 q 337 748 244 724 q 541 773 430 773 q 899 688 766 773 q 1046 455 1032 603 l 645 455 q 617 544 642 512 q 548 575 593 575 q 463 529 491 575 q 435 380 435 482 q 462 224 435 272 q 547 176 489 176 q 615 208 589 176 q 646 301 642 240 l 1050 301 q 972 122 1042 196 q 790 13 902 48 q 535 -23 679 -23 m 201 991 l 473 991 l 547 892 l 622 991 l 890 991 l 764 800 q 328 800 545 819 l 201 991 z "},"Ď":{"ha":1222,"x_min":64,"x_max":1190,"o":"m 64 0 l 64 972 l 587 972 q 1190 492 1190 972 q 577 0 1190 0 l 64 0 m 199 1220 l 469 1220 l 554 1123 l 639 1220 l 907 1220 l 781 1033 q 325 1033 553 1050 l 199 1220 m 475 241 l 526 241 q 692 300 636 241 q 748 492 748 359 q 695 677 748 623 q 530 731 643 731 l 475 731 l 475 241 z "},"ď":{"ha":1310,"x_min":33,"x_max":1407,"o":"m 361 -23 q 121 78 210 -23 q 33 375 33 180 q 125 671 33 568 q 367 773 216 773 q 526 736 452 773 q 640 638 599 699 l 640 972 l 1028 972 l 1028 0 l 640 0 l 640 111 q 521 13 594 49 q 361 -23 448 -23 m 438 378 q 466 242 438 288 q 544 195 493 195 q 623 242 594 195 q 652 378 652 289 q 623 514 652 468 q 544 559 594 559 q 466 514 494 559 q 438 378 438 468 m 1066 686 l 1115 972 l 1407 972 l 1318 686 l 1066 686 z "},"Đ":{"ha":1295,"x_min":25,"x_max":1263,"o":"m 25 387 l 25 605 l 138 605 l 138 972 l 661 972 q 1263 492 1263 972 q 651 0 1263 0 l 138 0 l 138 387 l 25 387 m 549 241 l 600 241 q 766 300 710 241 q 822 492 822 359 q 769 677 822 623 q 604 731 717 731 l 549 731 l 549 605 l 696 605 l 696 387 l 549 387 l 549 241 z "},"đ":{"ha":1086,"x_min":33,"x_max":1116,"o":"m 484 783 l 484 916 l 640 916 l 640 972 l 1028 972 l 1028 916 l 1116 916 l 1116 783 l 1028 783 l 1028 0 l 640 0 l 640 111 q 521 13 594 49 q 361 -23 448 -23 q 121 78 210 -23 q 33 375 33 180 q 125 671 33 568 q 367 773 216 773 q 526 736 452 773 q 640 638 599 699 l 640 783 l 484 783 m 438 378 q 466 242 438 288 q 544 195 493 195 q 623 242 594 195 q 652 378 652 289 q 623 514 652 468 q 544 559 594 559 q 466 514 494 559 q 438 378 438 468 z "},"Ē":{"ha":1038,"x_min":64,"x_max":995,"o":"m 64 0 l 64 972 l 995 972 l 995 740 l 476 740 l 476 613 l 901 613 l 901 376 l 476 376 l 476 236 l 995 236 l 995 0 l 64 0 m 216 1038 l 216 1218 l 848 1218 l 848 1038 l 216 1038 z "},"ē":{"ha":1074,"x_min":28,"x_max":1044,"o":"m 536 -23 q 270 21 383 -23 q 92 155 157 65 q 28 372 28 245 q 164 667 28 560 q 538 773 301 773 q 805 727 692 773 q 981 587 918 680 q 1044 363 1044 494 l 1044 313 l 424 313 q 539 171 427 171 q 610 195 583 171 q 642 263 637 219 l 1040 263 q 883 53 1020 128 q 536 -23 747 -23 m 224 811 l 224 994 l 847 994 l 847 811 l 224 811 m 426 468 l 642 468 q 614 553 641 522 q 538 585 587 585 q 459 554 488 585 q 426 468 431 524 z "},"Ĕ":{"ha":1038,"x_min":64,"x_max":995,"o":"m 64 0 l 64 972 l 995 972 l 995 740 l 476 740 l 476 613 l 901 613 l 901 376 l 476 376 l 476 236 l 995 236 l 995 0 l 64 0 m 240 1220 l 471 1220 q 488 1182 472 1198 q 532 1166 504 1166 q 575 1182 559 1166 q 593 1220 591 1198 l 824 1220 q 745 1076 821 1125 q 532 1027 669 1027 q 319 1076 395 1027 q 240 1220 243 1125 z "},"ĕ":{"ha":1074,"x_min":28,"x_max":1044,"o":"m 536 -23 q 270 21 383 -23 q 92 155 157 65 q 28 372 28 245 q 164 667 28 560 q 538 773 301 773 q 805 727 692 773 q 981 587 918 680 q 1044 363 1044 494 l 1044 313 l 424 313 q 539 171 427 171 q 610 195 583 171 q 642 263 637 219 l 1040 263 q 883 53 1020 128 q 536 -23 747 -23 m 248 991 l 475 991 q 492 954 476 970 q 536 939 508 939 q 579 955 564 939 q 597 991 595 970 l 823 991 q 746 846 822 897 q 536 795 670 795 q 325 846 401 795 q 248 991 249 897 m 426 468 l 642 468 q 614 553 641 522 q 538 585 587 585 q 459 554 488 585 q 426 468 431 524 z "},"Ė":{"ha":1038,"x_min":64,"x_max":995,"o":"m 64 0 l 64 972 l 995 972 l 995 740 l 476 740 l 476 613 l 901 613 l 901 376 l 476 376 l 476 236 l 995 236 l 995 0 l 64 0 m 387 1059 q 358 1076 387 1059 q 330 1149 330 1093 q 387 1239 330 1205 q 531 1273 445 1273 q 674 1239 616 1273 q 732 1149 732 1205 q 674 1059 732 1093 q 531 1025 616 1025 q 387 1059 445 1025 z "},"ė":{"ha":1074,"x_min":28,"x_max":1044,"o":"m 536 -23 q 270 21 383 -23 q 92 155 157 65 q 28 372 28 245 q 164 667 28 560 q 538 773 301 773 q 805 727 692 773 q 981 587 918 680 q 1044 363 1044 494 l 1044 313 l 424 313 q 539 171 427 171 q 610 195 583 171 q 642 263 637 219 l 1040 263 q 883 53 1020 128 q 536 -23 747 -23 m 326 916 q 386 1010 326 975 q 536 1046 446 1046 q 685 1010 625 1046 q 745 916 745 975 q 685 823 745 858 q 536 787 625 787 q 386 823 446 787 q 326 916 326 858 m 426 468 l 642 468 q 614 553 641 522 q 538 585 587 585 q 459 554 488 585 q 426 468 431 524 z "},"Ę":{"ha":1038,"x_min":64,"x_max":995,"o":"m 64 0 l 64 972 l 995 972 l 995 740 l 476 740 l 476 613 l 901 613 l 901 376 l 476 376 l 476 236 l 995 236 l 995 0 q 906 -34 936 -12 q 876 -81 876 -56 q 894 -113 876 -101 q 948 -125 912 -125 q 995 -121 968 -125 l 995 -240 q 852 -256 933 -256 q 686 -223 746 -256 q 627 -136 627 -190 q 671 -54 627 -90 q 790 0 715 -18 l 64 0 z "},"ę":{"ha":1074,"x_min":28,"x_max":1044,"o":"m 749 -240 q 606 -256 687 -256 q 440 -223 500 -256 q 380 -136 380 -190 q 479 -22 380 -65 q 149 92 271 -9 q 28 372 28 194 q 164 667 28 560 q 538 773 301 773 q 805 727 692 773 q 981 587 918 680 q 1044 363 1044 494 l 1044 313 l 424 313 q 539 171 427 171 q 610 195 583 171 q 642 263 637 219 l 1040 263 q 949 98 1026 165 q 746 0 871 31 l 749 0 q 660 -34 690 -12 q 630 -81 630 -56 q 648 -113 630 -101 q 702 -125 666 -125 q 749 -121 722 -125 l 749 -240 m 426 468 l 642 468 q 614 553 641 522 q 538 585 587 585 q 459 554 488 585 q 426 468 431 524 z "},"Ě":{"ha":1038,"x_min":64,"x_max":995,"o":"m 64 0 l 64 972 l 995 972 l 995 740 l 476 740 l 476 613 l 901 613 l 901 376 l 476 376 l 476 236 l 995 236 l 995 0 l 64 0 m 178 1220 l 448 1220 l 533 1123 l 618 1220 l 886 1220 l 760 1033 q 304 1033 532 1050 l 178 1220 z "},"ě":{"ha":1074,"x_min":28,"x_max":1044,"o":"m 536 -23 q 270 21 383 -23 q 92 155 157 65 q 28 372 28 245 q 164 667 28 560 q 538 773 301 773 q 805 727 692 773 q 981 587 918 680 q 1044 363 1044 494 l 1044 313 l 424 313 q 539 171 427 171 q 610 195 583 171 q 642 263 637 219 l 1040 263 q 883 53 1020 128 q 536 -23 747 -23 m 191 991 l 463 991 l 537 892 l 612 991 l 880 991 l 753 800 q 317 800 535 819 l 191 991 m 426 468 l 642 468 q 614 553 641 522 q 538 585 587 585 q 459 554 488 585 q 426 468 431 524 z "},"Ĝ":{"ha":1274,"x_min":31,"x_max":1224,"o":"m 661 -28 q 398 2 513 -28 q 200 94 283 33 q 75 252 118 155 q 31 478 31 349 q 61 672 31 585 q 144 819 90 758 q 276 921 199 880 q 447 981 353 962 q 652 1000 541 1000 q 938 960 813 1000 q 1139 838 1063 920 q 1224 640 1215 755 l 783 640 q 747 739 782 704 q 650 774 712 774 q 518 707 562 774 q 474 491 474 640 q 526 269 474 338 q 693 199 577 199 q 812 220 762 199 l 812 317 l 589 317 l 589 529 l 1224 529 l 1224 71 q 979 2 1140 33 q 661 -28 817 -28 m 298 1035 l 423 1222 q 880 1222 652 1204 l 1005 1035 l 735 1035 l 650 1132 l 566 1035 l 298 1035 z "},"ĝ":{"ha":1057,"x_min":34,"x_max":1000,"o":"m 516 -250 q 277 -223 379 -250 q 113 -138 176 -197 q 46 7 51 -80 l 436 7 q 462 -45 439 -26 q 524 -64 484 -64 q 589 -40 566 -64 q 612 33 612 -16 l 612 172 q 503 81 570 113 q 351 48 435 48 q 119 141 204 48 q 34 416 34 235 q 58 573 34 505 q 127 684 83 642 q 229 748 171 726 q 358 770 288 770 q 507 736 440 770 q 612 644 573 702 l 612 750 l 1000 750 l 1000 46 q 975 -68 1000 -18 q 906 -152 949 -118 q 801 -208 863 -186 q 669 -240 739 -230 q 516 -250 598 -250 m 197 806 l 323 996 q 759 996 541 978 l 886 806 l 617 806 l 543 905 l 468 806 l 197 806 m 436 413 q 526 249 436 249 q 616 413 616 249 q 526 570 616 570 q 436 413 436 570 z "},"Ğ":{"ha":1274,"x_min":31,"x_max":1224,"o":"m 661 -28 q 398 2 513 -28 q 200 94 283 33 q 75 252 118 155 q 31 478 31 349 q 61 672 31 585 q 144 819 90 758 q 276 921 199 880 q 447 981 353 962 q 652 1000 541 1000 q 938 960 813 1000 q 1139 838 1063 920 q 1224 640 1215 755 l 783 640 q 747 739 782 704 q 650 774 712 774 q 518 707 562 774 q 474 491 474 640 q 526 269 474 338 q 693 199 577 199 q 812 220 762 199 l 812 317 l 589 317 l 589 529 l 1224 529 l 1224 71 q 979 2 1140 33 q 661 -28 817 -28 m 359 1220 l 590 1220 q 607 1182 591 1198 q 651 1166 623 1166 q 695 1182 679 1166 q 712 1220 711 1198 l 943 1220 q 864 1076 941 1125 q 651 1027 788 1027 q 438 1076 514 1027 q 359 1220 362 1125 z "},"ğ":{"ha":1057,"x_min":34,"x_max":1000,"o":"m 516 -250 q 277 -223 379 -250 q 113 -138 176 -197 q 46 7 51 -80 l 436 7 q 462 -45 439 -26 q 524 -64 484 -64 q 589 -40 566 -64 q 612 33 612 -16 l 612 172 q 503 81 570 113 q 351 48 435 48 q 119 141 204 48 q 34 416 34 235 q 58 573 34 505 q 127 684 83 642 q 229 748 171 726 q 358 770 288 770 q 507 736 440 770 q 612 644 573 702 l 612 750 l 1000 750 l 1000 46 q 975 -68 1000 -18 q 906 -152 949 -118 q 801 -208 863 -186 q 669 -240 739 -230 q 516 -250 598 -250 m 248 991 l 475 991 q 492 954 476 970 q 536 939 508 939 q 579 955 564 939 q 597 991 595 970 l 823 991 q 746 846 822 897 q 536 795 670 795 q 325 846 401 795 q 248 991 249 897 m 436 413 q 526 249 436 249 q 616 413 616 249 q 526 570 616 570 q 436 413 436 570 z "},"Ġ":{"ha":1274,"x_min":31,"x_max":1224,"o":"m 661 -28 q 398 2 513 -28 q 200 94 283 33 q 75 252 118 155 q 31 478 31 349 q 61 672 31 585 q 144 819 90 758 q 276 921 199 880 q 447 981 353 962 q 652 1000 541 1000 q 938 960 813 1000 q 1139 838 1063 920 q 1224 640 1215 755 l 783 640 q 747 739 782 704 q 650 774 712 774 q 518 707 562 774 q 474 491 474 640 q 526 269 474 338 q 693 199 577 199 q 812 220 762 199 l 812 317 l 589 317 l 589 529 l 1224 529 l 1224 71 q 979 2 1140 33 q 661 -28 817 -28 m 507 1059 q 478 1076 507 1059 q 449 1149 449 1093 q 507 1239 449 1205 q 650 1273 564 1273 q 793 1239 736 1273 q 851 1149 851 1205 q 793 1059 851 1093 q 650 1025 736 1025 q 507 1059 564 1025 z "},"ġ":{"ha":1057,"x_min":34,"x_max":1000,"o":"m 516 -250 q 277 -223 379 -250 q 113 -138 176 -197 q 46 7 51 -80 l 436 7 q 462 -45 439 -26 q 524 -64 484 -64 q 589 -40 566 -64 q 612 33 612 -16 l 612 172 q 503 81 570 113 q 351 48 435 48 q 119 141 204 48 q 34 416 34 235 q 58 573 34 505 q 127 684 83 642 q 229 748 171 726 q 358 770 288 770 q 507 736 440 770 q 612 644 573 702 l 612 750 l 1000 750 l 1000 46 q 975 -68 1000 -18 q 906 -152 949 -118 q 801 -208 863 -186 q 669 -240 739 -230 q 516 -250 598 -250 m 326 916 q 386 1010 326 975 q 536 1046 446 1046 q 685 1010 625 1046 q 745 916 745 975 q 685 823 745 858 q 536 787 625 787 q 386 823 446 787 q 326 916 326 858 m 436 413 q 526 249 436 249 q 616 413 616 249 q 526 570 616 570 q 436 413 436 570 z "},"Ģ":{"ha":1274,"x_min":31,"x_max":1224,"o":"m 661 -28 q 398 2 513 -28 q 200 94 283 33 q 75 252 118 155 q 31 478 31 349 q 61 672 31 585 q 144 819 90 758 q 276 921 199 880 q 447 981 353 962 q 652 1000 541 1000 q 938 960 813 1000 q 1139 838 1063 920 q 1224 640 1215 755 l 783 640 q 747 739 782 704 q 650 774 712 774 q 518 707 562 774 q 474 491 474 640 q 526 269 474 338 q 693 199 577 199 q 812 220 762 199 l 812 317 l 589 317 l 589 529 l 1224 529 l 1224 71 q 979 2 1140 33 q 661 -28 817 -28 m 460 -355 l 509 -69 l 801 -69 l 712 -355 l 460 -355 z "},"ģ":{"ha":1057,"x_min":34,"x_max":1000,"o":"m 516 -250 q 277 -223 379 -250 q 113 -138 176 -197 q 46 7 51 -80 l 436 7 q 462 -45 439 -26 q 524 -64 484 -64 q 589 -40 566 -64 q 612 33 612 -16 l 612 172 q 503 81 570 113 q 351 48 435 48 q 119 141 204 48 q 34 416 34 235 q 58 573 34 505 q 127 684 83 642 q 229 748 171 726 q 358 770 288 770 q 507 736 440 770 q 612 644 573 702 l 612 750 l 1000 750 l 1000 46 q 975 -68 1000 -18 q 906 -152 949 -118 q 801 -208 863 -186 q 669 -240 739 -230 q 516 -250 598 -250 m 387 806 l 475 1092 l 727 1092 l 679 806 l 387 806 m 436 413 q 526 249 436 249 q 616 413 616 249 q 526 570 616 570 q 436 413 436 570 z "},"Ĥ":{"ha":1217,"x_min":64,"x_max":1153,"o":"m 64 0 l 64 972 l 476 972 l 476 629 l 741 629 l 741 972 l 1153 972 l 1153 0 l 741 0 l 741 363 l 476 363 l 476 0 l 64 0 m 255 1035 l 380 1222 q 837 1222 609 1204 l 962 1035 l 692 1035 l 608 1132 l 523 1035 l 255 1035 z "},"ĥ":{"ha":1056,"x_min":58,"x_max":1006,"o":"m 58 0 l 58 972 l 445 972 l 445 628 q 563 733 488 694 q 732 773 637 773 q 933 697 861 773 q 1006 472 1006 622 l 1006 0 l 618 0 l 618 428 q 536 522 618 522 q 471 496 497 522 q 445 418 445 470 l 445 0 l 58 0 m 172 1035 l 297 1222 q 753 1222 526 1204 l 879 1035 l 609 1035 l 524 1132 l 439 1035 l 172 1035 z "},"Ħ":{"ha":1299,"x_min":16,"x_max":1284,"o":"m 16 696 l 16 881 l 105 881 l 105 972 l 517 972 l 517 881 l 782 881 l 782 972 l 1194 972 l 1194 881 l 1284 881 l 1284 696 l 1194 696 l 1194 0 l 782 0 l 782 363 l 517 363 l 517 0 l 105 0 l 105 696 l 16 696 m 517 629 l 782 629 l 782 696 l 517 696 l 517 629 z "},"ħ":{"ha":1056,"x_min":-31,"x_max":1006,"o":"m -31 783 l -31 916 l 58 916 l 58 972 l 445 972 l 445 916 l 602 916 l 602 783 l 445 783 l 445 628 q 563 733 488 694 q 732 773 637 773 q 933 697 861 773 q 1006 472 1006 622 l 1006 0 l 618 0 l 618 428 q 536 522 618 522 q 471 496 497 522 q 445 418 445 470 l 445 0 l 58 0 l 58 783 l -31 783 z "},"Ĩ":{"ha":540,"x_min":-100,"x_max":640,"o":"m 64 0 l 64 972 l 476 972 l 476 0 l 64 0 m -100 1035 q -44 1184 -100 1131 q 107 1237 11 1237 q 274 1215 163 1237 q 422 1194 384 1194 q 479 1232 479 1194 l 640 1232 q 585 1078 640 1127 q 443 1029 530 1029 q 267 1052 378 1029 q 117 1074 155 1074 q 68 1035 71 1074 l -100 1035 z "},"ĩ":{"ha":503,"x_min":-111,"x_max":612,"o":"m 58 0 l 58 750 l 445 750 l 445 0 l 58 0 m -111 806 q -56 955 -111 901 q 95 1008 -1 1008 q 254 986 148 1008 q 396 964 359 964 q 452 1002 452 964 l 612 1002 q 557 849 612 898 q 417 800 503 800 q 249 822 355 800 q 105 845 142 845 q 58 806 60 845 l -111 806 z "},"Ī":{"ha":540,"x_min":-46,"x_max":586,"o":"m 64 0 l 64 972 l 476 972 l 476 0 l 64 0 m -46 1038 l -46 1218 l 586 1218 l 586 1038 l -46 1038 z "},"ī":{"ha":503,"x_min":-28,"x_max":532,"o":"m 58 0 l 58 750 l 445 750 l 445 0 l 58 0 m -28 811 l -28 994 l 532 994 l 532 811 l -28 811 z "},"Ĭ":{"ha":540,"x_min":-22,"x_max":562,"o":"m 64 0 l 64 972 l 476 972 l 476 0 l 64 0 m -22 1220 l 209 1220 q 226 1182 210 1198 q 270 1166 242 1166 q 314 1182 298 1166 q 331 1220 330 1198 l 562 1220 q 483 1076 559 1125 q 270 1027 407 1027 q 57 1076 133 1027 q -22 1220 -19 1125 z "},"ĭ":{"ha":503,"x_min":-36,"x_max":539,"o":"m 58 0 l 58 750 l 445 750 l 445 0 l 58 0 m -36 991 l 191 991 q 208 954 192 970 q 252 939 224 939 q 295 955 279 939 q 313 991 311 970 l 539 991 q 462 846 538 897 q 252 795 386 795 q 41 846 117 795 q -36 991 -35 897 z "},"Į":{"ha":540,"x_min":64,"x_max":476,"o":"m 64 0 l 64 972 l 476 972 l 476 0 q 387 -34 417 -12 q 357 -81 357 -56 q 375 -113 357 -101 q 429 -125 393 -125 q 476 -121 450 -125 l 476 -240 q 333 -256 414 -256 q 168 -223 227 -256 q 108 -136 108 -190 q 152 -54 108 -90 q 271 0 197 -18 l 64 0 z "},"į":{"ha":503,"x_min":42,"x_max":462,"o":"m 58 0 l 58 750 l 445 750 l 445 0 l 446 0 q 357 -34 387 -12 q 327 -81 327 -56 q 345 -113 327 -101 q 399 -125 363 -125 q 446 -121 419 -125 l 446 -240 q 302 -256 384 -256 q 137 -223 197 -256 q 77 -136 77 -190 q 122 -54 77 -90 q 241 0 166 -18 l 58 0 m 42 916 q 102 1010 42 975 q 252 1046 163 1046 q 402 1010 342 1046 q 462 916 462 975 q 401 823 462 858 q 252 787 341 787 q 102 823 163 787 q 42 916 42 858 z "},"İ":{"ha":540,"x_min":64,"x_max":476,"o":"m 64 0 l 64 972 l 476 972 l 476 0 l 64 0 m 125 1059 q 97 1076 125 1059 q 68 1149 68 1093 q 125 1239 68 1205 q 269 1273 183 1273 q 412 1239 355 1273 q 470 1149 470 1205 q 412 1059 470 1093 q 269 1025 355 1025 q 125 1059 183 1025 z "},"ı":{"ha":503,"x_min":58,"x_max":445,"o":"m 58 0 l 58 750 l 445 750 l 445 0 l 58 0 z "},"Ĳ":{"ha":1596,"x_min":64,"x_max":1540,"o":"m 64 0 l 64 972 l 476 972 l 476 0 l 64 0 m 566 317 l 566 555 l 960 555 l 960 329 q 1045 232 960 232 q 1128 329 1128 232 l 1128 972 l 1540 972 l 1540 319 q 1414 65 1540 155 q 1045 -26 1288 -26 q 684 62 802 -26 q 566 317 566 150 z "},"ĳ":{"ha":1006,"x_min":42,"x_max":965,"o":"m 58 0 l 58 750 l 445 750 l 445 0 l 58 0 m 42 916 q 102 1010 42 975 q 252 1046 163 1046 q 402 1010 342 1046 q 462 916 462 975 q 401 823 462 858 q 252 787 341 787 q 102 823 163 787 q 42 916 42 858 m 467 -222 l 467 -28 q 509 -36 488 -36 q 548 -23 535 -36 q 561 21 561 -9 l 561 750 l 948 750 l 948 14 q 932 -90 948 -44 q 888 -164 916 -135 q 821 -213 861 -194 q 739 -240 782 -232 q 646 -248 696 -248 q 467 -222 535 -248 m 545 916 q 606 1010 545 975 q 755 1046 666 1046 q 905 1010 845 1046 q 965 916 965 975 q 905 823 965 858 q 755 787 844 787 q 606 823 666 787 q 545 916 545 858 z "},"Ĵ":{"ha":1056,"x_min":26,"x_max":1147,"o":"m 874 65 q 811 19 874 65 q 505 -26 748 -26 q 144 62 262 -26 q 26 317 26 150 l 26 555 l 420 555 l 420 329 q 505 232 420 232 q 588 329 588 232 l 588 972 l 1000 972 l 1000 319 q 874 65 1000 155 m 440 1035 l 566 1222 q 1022 1222 794 1204 l 1147 1035 l 878 1035 l 793 1132 l 708 1035 l 440 1035 z "},"ĵ":{"ha":503,"x_min":-87,"x_max":602,"o":"m 142 -248 q -36 -222 32 -248 l -36 -28 q 6 -36 -15 -36 q 45 -23 32 -36 q 58 21 58 -9 l 58 750 l 445 750 l 445 14 q 429 -90 445 -44 q 385 -164 412 -135 q 318 -213 357 -194 q 236 -240 279 -232 q 142 -248 193 -248 m -87 806 l 39 996 q 475 996 257 978 l 602 806 l 334 806 l 259 905 l 184 806 l -87 806 z "},"Ķ":{"ha":1156,"x_min":64,"x_max":1175,"o":"m 705 0 l 476 471 l 476 0 l 64 0 l 64 972 l 476 972 l 476 558 l 701 972 l 1173 972 l 872 538 l 1175 0 l 705 0 m 376 -355 l 425 -69 l 717 -69 l 628 -355 l 376 -355 z "},"ķ":{"ha":1086,"x_min":58,"x_max":1091,"o":"m 647 0 l 445 348 l 445 0 l 58 0 l 58 972 l 445 972 l 445 443 l 646 750 l 1079 750 l 831 404 l 1091 0 l 647 0 m 350 -355 l 398 -69 l 690 -69 l 602 -355 l 350 -355 z "},"Ĺ":{"ha":967,"x_min":64,"x_max":946,"o":"m 64 0 l 64 972 l 476 972 l 476 274 l 946 274 l 946 0 l 64 0 m 80 1035 l 126 1220 l 526 1220 l 445 1035 l 80 1035 z "},"ĺ":{"ha":503,"x_min":58,"x_max":509,"o":"m 58 0 l 58 972 l 445 972 l 445 0 l 58 0 m 63 1035 l 109 1220 l 509 1220 l 428 1035 l 63 1035 z "},"Ļ":{"ha":967,"x_min":64,"x_max":946,"o":"m 64 0 l 64 972 l 476 972 l 476 274 l 946 274 l 946 0 l 64 0 m 317 -355 l 365 -69 l 657 -69 l 568 -355 l 317 -355 z "},"ļ":{"ha":503,"x_min":56,"x_max":445,"o":"m 58 0 l 58 972 l 445 972 l 445 0 l 58 0 m 56 -355 l 104 -69 l 397 -69 l 308 -355 l 56 -355 z "},"Ľ":{"ha":969,"x_min":64,"x_max":946,"o":"m 64 0 l 64 972 l 476 972 l 476 274 l 946 274 l 946 0 l 64 0 m 525 686 l 573 972 l 865 972 l 777 686 l 525 686 z "},"ľ":{"ha":728,"x_min":58,"x_max":824,"o":"m 58 0 l 58 972 l 445 972 l 445 0 l 58 0 m 484 686 l 532 972 l 824 972 l 735 686 l 484 686 z "},"Ŀ":{"ha":982,"x_min":64,"x_max":946,"o":"m 64 0 l 64 972 l 476 972 l 476 274 l 946 274 l 946 0 l 64 0 m 623 402 q 597 426 623 402 q 571 520 571 450 q 623 637 571 591 q 754 684 674 684 q 885 637 833 684 q 937 520 937 591 q 885 402 937 450 q 754 354 833 354 q 623 402 675 354 z "},"ŀ":{"ha":823,"x_min":58,"x_max":840,"o":"m 58 0 l 58 972 l 445 972 l 445 0 l 58 0 m 537 340 q 512 363 537 340 q 487 456 487 387 q 537 571 487 525 q 663 616 587 616 q 790 571 740 616 q 840 456 840 525 q 790 340 840 387 q 663 293 740 293 q 537 340 587 293 z "},"Ł":{"ha":1035,"x_min":31,"x_max":1014,"o":"m 31 262 l 31 479 l 132 524 l 132 972 l 544 972 l 544 705 l 659 755 l 659 537 l 544 487 l 544 274 l 1014 274 l 1014 0 l 132 0 l 132 306 l 31 262 z "},"ł":{"ha":650,"x_min":32,"x_max":621,"o":"m 32 262 l 32 479 l 132 524 l 132 972 l 519 972 l 519 696 l 621 741 l 621 524 l 519 479 l 519 0 l 132 0 l 132 307 l 32 262 z "},"Ń":{"ha":1289,"x_min":64,"x_max":1225,"o":"m 64 0 l 64 972 l 561 972 l 847 448 l 847 972 l 1225 972 l 1225 0 l 750 0 l 443 562 l 443 0 l 64 0 m 453 1035 l 499 1220 l 899 1220 l 818 1035 l 453 1035 z "},"ń":{"ha":1056,"x_min":58,"x_max":1006,"o":"m 58 0 l 58 750 l 435 750 l 435 612 q 554 729 477 685 q 732 773 631 773 q 933 697 861 773 q 1006 472 1006 622 l 1006 0 l 618 0 l 618 428 q 536 522 618 522 q 471 496 497 522 q 445 418 445 470 l 445 0 l 58 0 m 351 806 l 394 990 l 777 990 l 692 806 l 351 806 z "},"Ņ":{"ha":1289,"x_min":64,"x_max":1225,"o":"m 64 0 l 64 972 l 561 972 l 847 448 l 847 972 l 1225 972 l 1225 0 l 750 0 l 443 562 l 443 0 l 64 0 m 439 -355 l 488 -69 l 780 -69 l 691 -355 l 439 -355 z "},"ņ":{"ha":1056,"x_min":58,"x_max":1006,"o":"m 58 0 l 58 750 l 435 750 l 435 612 q 554 729 477 685 q 732 773 631 773 q 933 697 861 773 q 1006 472 1006 622 l 1006 0 l 618 0 l 618 428 q 536 522 618 522 q 471 496 497 522 q 445 418 445 470 l 445 0 l 58 0 m 336 -355 l 385 -69 l 677 -69 l 588 -355 l 336 -355 z "},"Ň":{"ha":1289,"x_min":64,"x_max":1225,"o":"m 64 0 l 64 972 l 561 972 l 847 448 l 847 972 l 1225 972 l 1225 0 l 750 0 l 443 562 l 443 0 l 64 0 m 290 1220 l 559 1220 l 644 1123 l 729 1220 l 997 1220 l 871 1033 q 415 1033 643 1050 l 290 1220 z "},"ň":{"ha":1056,"x_min":58,"x_max":1006,"o":"m 58 0 l 58 750 l 435 750 l 435 612 q 554 729 477 685 q 732 773 631 773 q 933 697 861 773 q 1006 472 1006 622 l 1006 0 l 618 0 l 618 428 q 536 522 618 522 q 471 496 497 522 q 445 418 445 470 l 445 0 l 58 0 m 184 991 l 456 991 l 530 892 l 605 991 l 873 991 l 747 800 q 311 800 528 819 l 184 991 z "},"Ŋ":{"ha":1289,"x_min":64,"x_max":1225,"o":"m 872 -248 q 629 -206 723 -248 l 629 -16 q 727 -28 682 -28 q 844 37 827 -28 l 443 580 l 443 0 l 64 0 l 64 972 l 561 972 l 847 572 l 847 972 l 1225 972 l 1225 39 q 1206 -76 1225 -26 q 1155 -158 1187 -126 q 1077 -211 1123 -190 q 981 -239 1031 -231 q 872 -248 931 -248 z "},"ŋ":{"ha":1056,"x_min":58,"x_max":1006,"o":"m 679 -248 q 476 -214 553 -248 l 476 -18 q 544 -28 507 -28 q 598 -13 577 -28 q 618 35 618 2 l 618 428 q 536 522 618 522 q 471 496 497 522 q 445 418 445 470 l 445 0 l 58 0 l 58 750 l 435 750 l 435 612 q 554 729 477 685 q 732 773 631 773 q 933 697 861 773 q 1006 472 1006 622 l 1006 14 q 979 -107 1006 -56 q 906 -189 953 -159 q 803 -233 860 -219 q 679 -248 746 -248 z "},"Ō":{"ha":1308,"x_min":31,"x_max":1277,"o":"m 654 -27 q 448 -7 543 -27 q 275 54 353 13 q 144 156 198 95 q 60 300 90 216 q 31 488 31 385 q 78 715 31 616 q 210 876 125 814 q 407 968 295 937 q 654 1000 519 1000 q 901 969 789 1000 q 1098 877 1013 938 q 1230 716 1183 816 q 1277 488 1277 617 q 1232 260 1277 359 q 1104 99 1187 161 q 908 5 1021 37 q 654 -27 794 -27 m 337 1038 l 337 1218 l 969 1218 l 969 1038 l 337 1038 m 473 488 q 517 276 473 353 q 654 199 560 199 q 758 236 717 199 q 816 337 799 274 q 833 488 833 399 q 790 698 833 622 q 654 774 747 774 q 571 753 606 774 q 515 693 536 732 q 484 604 494 654 q 473 488 473 553 z "},"ō":{"ha":1095,"x_min":28,"x_max":1067,"o":"m 548 -23 q 339 3 434 -23 q 175 78 244 28 q 66 204 105 127 q 28 376 28 280 q 67 548 28 472 q 176 672 106 623 q 341 747 246 722 q 548 773 435 773 q 814 729 699 773 q 999 595 930 686 q 1067 376 1067 504 q 1029 204 1067 280 q 921 78 991 127 q 757 3 852 28 q 548 -23 663 -23 m 237 811 l 237 994 l 860 994 l 860 811 l 237 811 m 433 376 q 548 176 433 176 q 663 376 663 176 q 548 574 663 574 q 433 376 433 574 z "},"Ŏ":{"ha":1308,"x_min":31,"x_max":1277,"o":"m 654 -27 q 448 -7 543 -27 q 275 54 353 13 q 144 156 198 95 q 60 300 90 216 q 31 488 31 385 q 78 715 31 616 q 210 876 125 814 q 407 968 295 937 q 654 1000 519 1000 q 901 969 789 1000 q 1098 877 1013 938 q 1230 716 1183 816 q 1277 488 1277 617 q 1232 260 1277 359 q 1104 99 1187 161 q 908 5 1021 37 q 654 -27 794 -27 m 361 1220 l 592 1220 q 609 1182 593 1198 q 653 1166 625 1166 q 697 1182 681 1166 q 714 1220 713 1198 l 945 1220 q 866 1076 943 1125 q 653 1027 790 1027 q 440 1076 516 1027 q 361 1220 364 1125 m 473 488 q 517 276 473 353 q 654 199 560 199 q 758 236 717 199 q 816 337 799 274 q 833 488 833 399 q 790 698 833 622 q 654 774 747 774 q 571 753 606 774 q 515 693 536 732 q 484 604 494 654 q 473 488 473 553 z "},"ŏ":{"ha":1095,"x_min":28,"x_max":1067,"o":"m 548 -23 q 339 3 434 -23 q 175 78 244 28 q 66 204 105 127 q 28 376 28 280 q 67 548 28 472 q 176 672 106 623 q 341 747 246 722 q 548 773 435 773 q 814 729 699 773 q 999 595 930 686 q 1067 376 1067 504 q 1029 204 1067 280 q 921 78 991 127 q 757 3 852 28 q 548 -23 663 -23 m 261 991 l 488 991 q 505 954 489 970 q 549 939 521 939 q 592 955 576 939 q 610 991 608 970 l 836 991 q 759 846 835 897 q 549 795 683 795 q 338 846 414 795 q 261 991 262 897 m 433 376 q 548 176 433 176 q 663 376 663 176 q 548 574 663 574 q 433 376 433 574 z "},"Ő":{"ha":1308,"x_min":31,"x_max":1277,"o":"m 654 -27 q 448 -7 543 -27 q 275 54 353 13 q 144 156 198 95 q 60 300 90 216 q 31 488 31 385 q 78 715 31 616 q 210 876 125 814 q 407 968 295 937 q 654 1000 519 1000 q 901 969 789 1000 q 1098 877 1013 938 q 1230 716 1183 816 q 1277 488 1277 617 q 1232 260 1277 359 q 1104 99 1187 161 q 908 5 1021 37 q 654 -27 794 -27 m 325 1035 l 364 1220 l 688 1220 l 621 1035 l 325 1035 m 473 488 q 517 276 473 353 q 654 199 560 199 q 758 236 717 199 q 816 337 799 274 q 833 488 833 399 q 790 698 833 622 q 654 774 747 774 q 571 753 606 774 q 515 693 536 732 q 484 604 494 654 q 473 488 473 553 m 689 1035 l 728 1220 l 1051 1220 l 986 1035 l 689 1035 z "},"ő":{"ha":1095,"x_min":28,"x_max":1067,"o":"m 548 -23 q 339 3 434 -23 q 175 78 244 28 q 66 204 105 127 q 28 376 28 280 q 67 548 28 472 q 176 672 106 623 q 341 747 246 722 q 548 773 435 773 q 814 729 699 773 q 999 595 930 686 q 1067 376 1067 504 q 1029 204 1067 280 q 921 78 991 127 q 757 3 852 28 q 548 -23 663 -23 m 215 806 l 254 990 l 578 990 l 511 806 l 215 806 m 433 376 q 548 176 433 176 q 663 376 663 176 q 548 574 663 574 q 433 376 433 574 m 587 806 l 627 990 l 950 990 l 884 806 l 587 806 z "},"Œ":{"ha":1720,"x_min":33,"x_max":1677,"o":"m 1677 972 l 1677 740 l 1158 740 l 1158 613 l 1584 613 l 1584 376 l 1158 376 l 1158 236 l 1677 236 l 1677 0 l 635 0 q 33 480 33 0 q 645 972 33 972 l 1677 972 m 474 480 q 527 296 474 350 q 692 241 579 241 l 746 241 l 746 731 l 696 731 q 530 672 586 731 q 474 480 474 614 z "},"œ":{"ha":1708,"x_min":28,"x_max":1677,"o":"m 536 -23 q 273 21 386 -23 q 94 157 159 66 q 28 376 28 248 q 96 594 28 503 q 279 729 163 684 q 545 773 394 773 q 864 686 739 773 q 1185 773 987 773 q 1443 727 1333 773 q 1615 588 1553 681 q 1677 363 1677 494 l 1677 313 l 1061 313 q 1174 171 1065 171 q 1246 195 1219 171 q 1278 263 1274 218 l 1674 263 q 1593 108 1661 174 q 1420 10 1526 43 q 1184 -23 1315 -23 q 860 60 983 -23 q 536 -23 734 -23 m 433 376 q 462 224 433 272 q 548 176 490 176 q 634 223 606 176 q 663 376 663 271 q 548 574 663 574 q 433 376 433 574 m 1061 468 l 1277 468 q 1249 554 1275 524 q 1174 585 1223 585 q 1095 554 1124 585 q 1061 468 1067 524 z "},"Ŕ":{"ha":1168,"x_min":64,"x_max":1124,"o":"m 64 0 l 64 972 l 678 972 q 1009 907 902 972 q 1117 707 1117 841 q 1055 535 1117 597 q 891 450 994 473 q 991 425 951 439 q 1063 384 1032 410 q 1109 318 1095 358 q 1124 222 1124 279 l 1124 0 l 711 0 l 711 227 q 672 318 711 290 q 553 345 633 345 l 476 345 l 476 0 l 64 0 m 373 1035 l 419 1220 l 819 1220 l 738 1035 l 373 1035 m 476 553 l 570 553 q 711 660 711 553 q 674 735 711 712 q 570 758 638 758 l 476 758 l 476 553 z "},"ŕ":{"ha":920,"x_min":58,"x_max":893,"o":"m 58 0 l 58 750 l 431 750 l 431 590 q 536 724 468 675 q 691 772 605 772 q 841 710 789 772 q 893 519 893 647 l 893 293 l 549 293 l 549 420 q 500 481 549 481 q 460 464 475 481 q 445 413 445 446 l 445 0 l 58 0 m 281 806 l 323 990 l 707 990 l 621 806 l 281 806 z "},"Ŗ":{"ha":1168,"x_min":64,"x_max":1124,"o":"m 64 0 l 64 972 l 678 972 q 1009 907 902 972 q 1117 707 1117 841 q 1055 535 1117 597 q 891 450 994 473 q 991 425 951 439 q 1063 384 1032 410 q 1109 318 1095 358 q 1124 222 1124 279 l 1124 0 l 711 0 l 711 227 q 672 318 711 290 q 553 345 633 345 l 476 345 l 476 0 l 64 0 m 401 -355 l 449 -69 l 741 -69 l 652 -355 l 401 -355 m 476 553 l 570 553 q 711 660 711 553 q 674 735 711 712 q 570 758 638 758 l 476 758 l 476 553 z "},"ŗ":{"ha":920,"x_min":56,"x_max":893,"o":"m 58 0 l 58 750 l 431 750 l 431 590 q 536 724 468 675 q 691 772 605 772 q 841 710 789 772 q 893 519 893 647 l 893 293 l 549 293 l 549 420 q 500 481 549 481 q 460 464 475 481 q 445 413 445 446 l 445 0 l 58 0 m 56 -355 l 104 -69 l 397 -69 l 308 -355 l 56 -355 z "},"Ř":{"ha":1168,"x_min":64,"x_max":1124,"o":"m 64 0 l 64 972 l 678 972 q 1009 907 902 972 q 1117 707 1117 841 q 1055 535 1117 597 q 891 450 994 473 q 991 425 951 439 q 1063 384 1032 410 q 1109 318 1095 358 q 1124 222 1124 279 l 1124 0 l 711 0 l 711 227 q 672 318 711 290 q 553 345 633 345 l 476 345 l 476 0 l 64 0 m 210 1220 l 479 1220 l 564 1123 l 649 1220 l 917 1220 l 791 1033 q 335 1033 563 1050 l 210 1220 m 476 553 l 570 553 q 711 660 711 553 q 674 735 711 712 q 570 758 638 758 l 476 758 l 476 553 z "},"ř":{"ha":920,"x_min":58,"x_max":893,"o":"m 58 0 l 58 750 l 431 750 l 431 590 q 536 724 468 675 q 691 772 605 772 q 841 710 789 772 q 893 519 893 647 l 893 293 l 549 293 l 549 420 q 500 481 549 481 q 460 464 475 481 q 445 413 445 446 l 445 0 l 58 0 m 113 991 l 385 991 l 459 892 l 534 991 l 802 991 l 675 800 q 239 800 457 819 l 113 991 z "},"Ś":{"ha":1111,"x_min":24,"x_max":1086,"o":"m 555 -27 q 280 5 397 -27 q 95 108 164 37 q 24 283 26 179 l 456 283 q 486 205 456 232 q 566 178 515 178 q 630 194 606 178 q 654 244 654 211 q 627 298 654 279 q 539 336 600 318 l 372 382 q 298 405 330 394 q 229 432 265 416 q 166 464 193 448 q 114 503 139 480 q 72 551 88 526 q 46 608 56 576 q 37 678 37 641 q 78 825 37 762 q 192 925 119 888 q 356 980 265 962 q 553 998 446 998 q 701 988 630 998 q 838 955 772 978 q 952 897 903 931 q 1032 812 1002 863 q 1065 698 1062 761 l 648 698 q 618 771 645 747 q 548 795 592 795 q 484 777 509 795 q 458 728 458 758 q 482 682 458 698 q 559 650 506 667 l 753 597 q 860 561 814 578 q 950 516 905 543 q 1023 459 995 490 q 1068 384 1050 428 q 1086 286 1086 339 q 1059 166 1086 219 q 985 78 1032 113 q 870 18 937 42 q 724 -17 802 -6 q 555 -27 646 -27 m 368 1035 l 414 1220 l 814 1220 l 732 1035 l 368 1035 z "},"ś":{"ha":998,"x_min":26,"x_max":974,"o":"m 504 -23 q 260 3 364 -23 q 93 87 156 30 q 26 227 30 144 l 406 227 q 434 160 408 182 q 505 138 460 138 q 560 151 538 138 q 582 189 582 163 q 560 229 582 216 q 493 252 538 242 l 344 283 q 242 308 284 296 q 158 339 200 320 q 91 381 117 359 q 50 437 66 404 q 35 513 35 471 q 72 629 35 578 q 174 710 109 680 q 319 757 238 741 q 494 773 401 773 q 657 760 581 773 q 798 719 733 746 q 905 644 863 691 q 954 533 947 596 l 583 533 q 559 594 582 575 q 499 614 536 614 q 443 600 465 614 q 421 562 421 585 q 440 526 421 537 q 505 505 460 515 l 659 472 q 761 447 718 460 q 847 413 805 433 q 915 369 888 393 q 958 310 942 345 q 974 233 974 276 q 949 133 974 177 q 881 59 924 88 q 778 12 839 31 q 650 -15 718 -7 q 504 -23 583 -23 m 316 806 l 359 990 l 742 990 l 656 806 l 316 806 z "},"Ŝ":{"ha":1111,"x_min":24,"x_max":1086,"o":"m 555 -27 q 280 5 397 -27 q 95 108 164 37 q 24 283 26 179 l 456 283 q 486 205 456 232 q 566 178 515 178 q 630 194 606 178 q 654 244 654 211 q 627 298 654 279 q 539 336 600 318 l 372 382 q 298 405 330 394 q 229 432 265 416 q 166 464 193 448 q 114 503 139 480 q 72 551 88 526 q 46 608 56 576 q 37 678 37 641 q 78 825 37 762 q 192 925 119 888 q 356 980 265 962 q 553 998 446 998 q 701 988 630 998 q 838 955 772 978 q 952 897 903 931 q 1032 812 1002 863 q 1065 698 1062 761 l 648 698 q 618 771 645 747 q 548 795 592 795 q 484 777 509 795 q 458 728 458 758 q 482 682 458 698 q 559 650 506 667 l 753 597 q 860 561 814 578 q 950 516 905 543 q 1023 459 995 490 q 1068 384 1050 428 q 1086 286 1086 339 q 1059 166 1086 219 q 985 78 1032 113 q 870 18 937 42 q 724 -17 802 -6 q 555 -27 646 -27 m 204 1035 l 330 1222 q 786 1222 558 1204 l 911 1035 l 642 1035 l 557 1132 l 472 1035 l 204 1035 z "},"ŝ":{"ha":998,"x_min":26,"x_max":974,"o":"m 504 -23 q 260 3 364 -23 q 93 87 156 30 q 26 227 30 144 l 406 227 q 434 160 408 182 q 505 138 460 138 q 560 151 538 138 q 582 189 582 163 q 560 229 582 216 q 493 252 538 242 l 344 283 q 242 308 284 296 q 158 339 200 320 q 91 381 117 359 q 50 437 66 404 q 35 513 35 471 q 72 629 35 578 q 174 710 109 680 q 319 757 238 741 q 494 773 401 773 q 657 760 581 773 q 798 719 733 746 q 905 644 863 691 q 954 533 947 596 l 583 533 q 559 594 582 575 q 499 614 536 614 q 443 600 465 614 q 421 562 421 585 q 440 526 421 537 q 505 505 460 515 l 659 472 q 761 447 718 460 q 847 413 805 433 q 915 369 888 393 q 958 310 942 345 q 974 233 974 276 q 949 133 974 177 q 881 59 924 88 q 778 12 839 31 q 650 -15 718 -7 q 504 -23 583 -23 m 155 806 l 281 996 q 717 996 498 978 l 844 806 l 575 806 l 500 905 l 426 806 l 155 806 z "},"Ş":{"ha":1111,"x_min":24,"x_max":1086,"o":"m 543 -315 q 364 -275 436 -315 q 288 -159 292 -236 l 481 -159 q 501 -185 486 -175 q 541 -195 517 -195 q 594 -157 594 -195 q 575 -129 594 -139 q 531 -119 557 -119 q 475 -130 495 -119 l 477 -25 q 148 64 269 -13 q 24 283 27 141 l 456 283 q 486 205 456 232 q 566 178 515 178 q 630 194 606 178 q 654 244 654 211 q 627 298 654 279 q 539 336 600 318 l 372 382 q 298 405 330 394 q 229 432 265 416 q 166 464 193 448 q 114 503 139 480 q 72 551 88 526 q 46 608 56 576 q 37 678 37 641 q 78 825 37 762 q 192 925 119 888 q 356 980 265 962 q 553 998 446 998 q 701 988 630 998 q 838 955 772 978 q 952 897 903 931 q 1032 812 1002 863 q 1065 698 1062 761 l 648 698 q 618 771 645 747 q 548 795 592 795 q 484 777 509 795 q 458 728 458 758 q 482 682 458 698 q 559 650 506 667 l 753 597 q 860 561 814 578 q 950 516 905 543 q 1023 459 995 490 q 1068 384 1050 428 q 1086 286 1086 339 q 1050 149 1086 208 q 949 54 1014 90 q 799 -2 884 18 q 611 -26 715 -22 l 610 -39 q 742 -76 693 -42 q 791 -166 791 -110 q 770 -237 791 -208 q 713 -283 749 -267 q 634 -307 676 -300 q 543 -315 592 -315 z "},"ş":{"ha":998,"x_min":26,"x_max":974,"o":"m 491 -315 q 312 -275 385 -315 q 236 -159 240 -236 l 430 -159 q 450 -185 434 -175 q 490 -195 465 -195 q 543 -157 543 -195 q 524 -129 543 -139 q 479 -119 505 -119 q 423 -130 444 -119 l 426 -21 q 138 52 245 -10 q 26 227 32 115 l 406 227 q 434 160 408 182 q 505 138 460 138 q 560 151 538 138 q 582 189 582 163 q 560 229 582 216 q 493 252 538 242 l 344 283 q 242 308 284 296 q 158 339 200 320 q 91 381 117 359 q 50 437 66 404 q 35 513 35 471 q 72 629 35 578 q 174 710 109 680 q 319 757 238 741 q 494 773 401 773 q 657 760 581 773 q 798 719 733 746 q 905 644 863 691 q 954 533 947 596 l 583 533 q 559 594 582 575 q 499 614 536 614 q 443 600 465 614 q 421 562 421 585 q 440 526 421 537 q 505 505 460 515 l 659 472 q 761 447 718 460 q 847 413 805 433 q 915 369 888 393 q 958 310 942 345 q 974 233 974 276 q 952 139 974 181 q 894 68 931 97 q 803 20 857 40 q 690 -9 750 1 q 559 -22 630 -19 l 559 -39 q 691 -76 642 -42 q 740 -166 740 -110 q 719 -237 740 -208 q 661 -283 698 -267 q 583 -307 625 -300 q 491 -315 541 -315 z "},"Š":{"ha":1111,"x_min":24,"x_max":1086,"o":"m 555 -27 q 280 5 397 -27 q 95 108 164 37 q 24 283 26 179 l 456 283 q 486 205 456 232 q 566 178 515 178 q 630 194 606 178 q 654 244 654 211 q 627 298 654 279 q 539 336 600 318 l 372 382 q 298 405 330 394 q 229 432 265 416 q 166 464 193 448 q 114 503 139 480 q 72 551 88 526 q 46 608 56 576 q 37 678 37 641 q 78 825 37 762 q 192 925 119 888 q 356 980 265 962 q 553 998 446 998 q 701 988 630 998 q 838 955 772 978 q 952 897 903 931 q 1032 812 1002 863 q 1065 698 1062 761 l 648 698 q 618 771 645 747 q 548 795 592 795 q 484 777 509 795 q 458 728 458 758 q 482 682 458 698 q 559 650 506 667 l 753 597 q 860 561 814 578 q 950 516 905 543 q 1023 459 995 490 q 1068 384 1050 428 q 1086 286 1086 339 q 1059 166 1086 219 q 985 78 1032 113 q 870 18 937 42 q 724 -17 802 -6 q 555 -27 646 -27 m 204 1220 l 474 1220 l 559 1123 l 644 1220 l 911 1220 l 786 1033 q 330 1033 557 1050 l 204 1220 z "},"š":{"ha":998,"x_min":26,"x_max":974,"o":"m 504 -23 q 260 3 364 -23 q 93 87 156 30 q 26 227 30 144 l 406 227 q 434 160 408 182 q 505 138 460 138 q 560 151 538 138 q 582 189 582 163 q 560 229 582 216 q 493 252 538 242 l 344 283 q 242 308 284 296 q 158 339 200 320 q 91 381 117 359 q 50 437 66 404 q 35 513 35 471 q 72 629 35 578 q 174 710 109 680 q 319 757 238 741 q 494 773 401 773 q 657 760 581 773 q 798 719 733 746 q 905 644 863 691 q 954 533 947 596 l 583 533 q 559 594 582 575 q 499 614 536 614 q 443 600 465 614 q 421 562 421 585 q 440 526 421 537 q 505 505 460 515 l 659 472 q 761 447 718 460 q 847 413 805 433 q 915 369 888 393 q 958 310 942 345 q 974 233 974 276 q 949 133 974 177 q 881 59 924 88 q 778 12 839 31 q 650 -15 718 -7 q 504 -23 583 -23 m 149 991 l 420 991 l 494 892 l 569 991 l 838 991 l 711 800 q 275 800 492 819 l 149 991 z "},"Ţ":{"ha":1062,"x_min":21,"x_max":1041,"o":"m 325 0 l 325 702 l 21 702 l 21 972 l 1041 972 l 1041 702 l 737 702 l 737 0 l 598 0 l 597 -39 q 729 -76 680 -42 q 778 -166 778 -110 q 757 -237 778 -208 q 699 -283 736 -267 q 621 -307 663 -300 q 529 -315 578 -315 q 350 -275 422 -315 q 274 -159 278 -236 l 468 -159 q 488 -185 472 -175 q 528 -195 503 -195 q 581 -157 581 -195 q 562 -129 581 -139 q 517 -119 543 -119 q 461 -130 481 -119 l 465 0 l 325 0 z "},"ţ":{"ha":752,"x_min":15,"x_max":715,"o":"m 484 -15 l 461 -15 l 460 -39 q 592 -76 543 -42 q 642 -166 642 -110 q 621 -237 642 -208 q 563 -283 600 -267 q 484 -307 526 -300 q 393 -315 442 -315 q 214 -275 286 -315 q 138 -159 142 -236 l 332 -159 q 351 -185 336 -175 q 391 -195 367 -195 q 444 -157 444 -195 q 426 -129 444 -139 q 381 -119 407 -119 q 325 -130 345 -119 l 328 5 q 151 242 151 60 l 151 538 l 15 538 l 15 750 l 151 750 l 151 894 l 538 985 l 538 750 l 715 750 l 715 538 l 538 538 l 538 287 q 561 222 538 241 q 627 203 583 203 q 714 218 670 203 l 714 31 q 484 -15 626 -15 z "},"Ť":{"ha":1062,"x_min":21,"x_max":1041,"o":"m 325 0 l 325 702 l 21 702 l 21 972 l 1041 972 l 1041 702 l 737 702 l 737 0 l 325 0 m 170 1220 l 439 1220 l 524 1123 l 609 1220 l 877 1220 l 751 1033 q 295 1033 523 1050 l 170 1220 z "},"ť":{"ha":752,"x_min":15,"x_max":917,"o":"m 484 -15 q 381 -7 429 -15 q 291 20 334 1 q 217 67 248 39 q 169 141 187 96 q 151 242 151 185 l 151 538 l 15 538 l 15 750 l 151 750 l 151 894 l 538 985 l 538 750 l 715 750 l 715 538 l 538 538 l 538 287 q 561 222 538 241 q 627 203 583 203 q 714 218 670 203 l 714 31 q 484 -15 626 -15 m 576 806 l 625 1092 l 917 1092 l 827 806 l 576 806 z "},"Ŧ":{"ha":1069,"x_min":24,"x_max":1044,"o":"m 145 309 l 145 546 l 328 546 l 328 702 l 24 702 l 24 972 l 1044 972 l 1044 702 l 741 702 l 741 546 l 924 546 l 924 309 l 741 309 l 741 0 l 328 0 l 328 309 l 145 309 z "},"ŧ":{"ha":764,"x_min":26,"x_max":726,"o":"m 26 314 l 26 489 l 162 489 l 162 538 l 26 538 l 26 750 l 162 750 l 162 894 l 549 985 l 549 750 l 726 750 l 726 538 l 549 538 l 549 489 l 726 489 l 726 314 l 549 314 l 549 287 q 571 222 549 241 q 637 203 594 203 q 725 218 681 203 l 725 31 q 494 -15 637 -15 q 392 -7 439 -15 q 301 20 345 1 q 228 67 258 39 q 180 141 198 96 q 162 242 162 185 l 162 314 l 26 314 z "},"Ũ":{"ha":1175,"x_min":56,"x_max":1120,"o":"m 587 -28 q 187 62 319 -28 q 56 323 56 152 l 56 972 l 468 972 l 468 350 q 499 263 468 293 q 587 233 530 233 q 677 263 646 233 q 707 350 707 292 l 707 972 l 1120 972 l 1120 323 q 987 62 1120 153 q 587 -28 855 -28 m 218 1035 q 273 1184 218 1131 q 425 1237 328 1237 q 591 1215 481 1237 q 740 1194 701 1194 q 796 1232 796 1194 l 957 1232 q 902 1078 957 1127 q 760 1029 848 1029 q 584 1052 696 1029 q 435 1074 473 1074 q 386 1035 388 1074 l 218 1035 z "},"ũ":{"ha":1054,"x_min":52,"x_max":996,"o":"m 329 -23 q 124 45 197 -23 q 52 245 52 114 l 52 750 l 439 750 l 439 320 q 460 250 439 273 q 517 227 481 227 q 581 253 553 227 q 609 326 609 278 l 609 750 l 996 750 l 996 0 l 621 0 l 621 142 q 505 21 578 64 q 329 -23 431 -23 m 162 806 q 217 955 162 901 q 368 1008 272 1008 q 526 986 420 1008 q 669 964 632 964 q 724 1002 724 964 l 884 1002 q 830 849 884 898 q 690 800 776 800 q 521 822 628 800 q 378 845 414 845 q 330 806 332 845 l 162 806 z "},"Ū":{"ha":1175,"x_min":56,"x_max":1120,"o":"m 587 -28 q 187 62 319 -28 q 56 323 56 152 l 56 972 l 468 972 l 468 350 q 499 263 468 293 q 587 233 530 233 q 677 263 646 233 q 707 350 707 292 l 707 972 l 1120 972 l 1120 323 q 987 62 1120 153 q 587 -28 855 -28 m 271 1038 l 271 1218 l 903 1218 l 903 1038 l 271 1038 z "},"ū":{"ha":1054,"x_min":52,"x_max":996,"o":"m 329 -23 q 124 45 197 -23 q 52 245 52 114 l 52 750 l 439 750 l 439 320 q 460 250 439 273 q 517 227 481 227 q 581 253 553 227 q 609 326 609 278 l 609 750 l 996 750 l 996 0 l 621 0 l 621 142 q 505 21 578 64 q 329 -23 431 -23 m 213 811 l 213 994 l 836 994 l 836 811 l 213 811 z "},"Ŭ":{"ha":1175,"x_min":56,"x_max":1120,"o":"m 587 -28 q 187 62 319 -28 q 56 323 56 152 l 56 972 l 468 972 l 468 350 q 499 263 468 293 q 587 233 530 233 q 677 263 646 233 q 707 350 707 292 l 707 972 l 1120 972 l 1120 323 q 987 62 1120 153 q 587 -28 855 -28 m 296 1220 l 526 1220 q 544 1182 528 1198 q 587 1166 559 1166 q 631 1182 615 1166 q 648 1220 647 1198 l 880 1220 q 801 1076 877 1125 q 587 1027 724 1027 q 374 1076 450 1027 q 296 1220 298 1125 z "},"ŭ":{"ha":1054,"x_min":52,"x_max":996,"o":"m 329 -23 q 124 45 197 -23 q 52 245 52 114 l 52 750 l 439 750 l 439 320 q 460 250 439 273 q 517 227 481 227 q 581 253 553 227 q 609 326 609 278 l 609 750 l 996 750 l 996 0 l 621 0 l 621 142 q 505 21 578 64 q 329 -23 431 -23 m 237 991 l 463 991 q 480 954 465 970 q 524 939 496 939 q 568 955 552 939 q 585 991 584 970 l 812 991 q 734 846 810 897 q 524 795 659 795 q 313 846 389 795 q 237 991 237 897 z "},"Ů":{"ha":1175,"x_min":56,"x_max":1120,"o":"m 587 -28 q 187 62 319 -28 q 56 323 56 152 l 56 972 l 468 972 l 468 350 q 499 263 468 293 q 587 233 530 233 q 677 263 646 233 q 707 350 707 292 l 707 972 l 1120 972 l 1120 323 q 987 62 1120 153 q 587 -28 855 -28 m 413 1050 q 380 1068 413 1050 q 346 1149 346 1086 q 413 1249 346 1213 q 587 1284 480 1284 q 762 1249 694 1284 q 829 1149 829 1213 q 761 1050 829 1086 q 587 1014 694 1014 q 413 1050 481 1014 m 525 1149 q 543 1109 525 1124 q 587 1094 561 1094 q 632 1109 614 1094 q 650 1149 650 1124 q 632 1189 650 1175 q 587 1204 614 1204 q 543 1189 561 1204 q 525 1149 525 1174 z "},"ů":{"ha":1054,"x_min":52,"x_max":996,"o":"m 329 -23 q 124 45 197 -23 q 52 245 52 114 l 52 750 l 439 750 l 439 320 q 460 250 439 273 q 517 227 481 227 q 581 253 553 227 q 609 326 609 278 l 609 750 l 996 750 l 996 0 l 621 0 l 621 142 q 505 21 578 64 q 329 -23 431 -23 m 289 935 q 354 1036 289 1000 q 524 1072 420 1072 q 695 1036 629 1072 q 760 935 760 1000 q 694 834 760 871 q 524 798 629 798 q 355 834 420 798 q 289 935 289 871 m 463 935 q 480 895 463 910 q 524 880 498 880 q 569 895 551 880 q 587 935 587 910 q 569 975 587 960 q 524 990 551 990 q 480 975 498 990 q 463 935 463 960 z "},"Ű":{"ha":1175,"x_min":56,"x_max":1120,"o":"m 587 -28 q 187 62 319 -28 q 56 323 56 152 l 56 972 l 468 972 l 468 350 q 499 263 468 293 q 587 233 530 233 q 677 263 646 233 q 707 350 707 292 l 707 972 l 1120 972 l 1120 323 q 987 62 1120 153 q 587 -28 855 -28 m 259 1035 l 298 1220 l 622 1220 l 555 1035 l 259 1035 m 623 1035 l 662 1220 l 985 1220 l 920 1035 l 623 1035 z "},"ű":{"ha":1054,"x_min":52,"x_max":996,"o":"m 329 -23 q 124 45 197 -23 q 52 245 52 114 l 52 750 l 439 750 l 439 320 q 460 250 439 273 q 517 227 481 227 q 581 253 553 227 q 609 326 609 278 l 609 750 l 996 750 l 996 0 l 621 0 l 621 142 q 505 21 578 64 q 329 -23 431 -23 m 191 806 l 230 990 l 553 990 l 487 806 l 191 806 m 563 806 l 602 990 l 926 990 l 860 806 l 563 806 z "},"Ų":{"ha":1175,"x_min":56,"x_max":1120,"o":"m 838 -240 q 694 -256 776 -256 q 529 -223 589 -256 q 469 -136 469 -190 q 555 -27 469 -71 q 179 67 303 -22 q 56 323 56 157 l 56 972 l 468 972 l 468 350 q 499 263 468 293 q 587 233 530 233 q 677 263 646 233 q 707 350 707 292 l 707 972 l 1120 972 l 1120 323 q 800 -9 1120 54 q 739 -41 760 -22 q 719 -81 719 -60 q 737 -113 719 -101 q 791 -125 755 -125 q 838 -121 811 -125 l 838 -240 z "},"ų":{"ha":1054,"x_min":52,"x_max":996,"o":"m 329 -23 q 124 45 197 -23 q 52 245 52 114 l 52 750 l 439 750 l 439 320 q 460 250 439 273 q 517 227 481 227 q 581 253 553 227 q 609 326 609 278 l 609 750 l 996 750 l 996 0 l 996 0 q 907 -34 937 -12 q 878 -81 878 -56 q 896 -113 878 -101 q 949 -125 913 -125 q 996 -121 970 -125 l 996 -240 q 853 -256 935 -256 q 688 -223 747 -256 q 628 -136 628 -190 q 672 -54 628 -90 q 791 0 717 -18 l 621 0 l 621 142 q 505 21 578 64 q 329 -23 431 -23 z "},"Ŵ":{"ha":1640,"x_min":12,"x_max":1628,"o":"m 244 0 l 12 972 l 420 972 l 517 382 l 638 972 l 1011 972 l 1138 385 l 1236 972 l 1628 972 l 1396 0 l 932 0 l 821 596 l 710 0 l 244 0 m 469 1035 l 595 1222 q 1051 1222 823 1204 l 1177 1035 l 907 1035 l 822 1132 l 737 1035 l 469 1035 z "},"ŵ":{"ha":1421,"x_min":10,"x_max":1411,"o":"m 212 0 l 10 750 l 375 750 l 452 291 l 545 750 l 878 750 l 970 298 l 1048 750 l 1411 750 l 1211 0 l 798 0 l 711 418 l 625 0 l 212 0 m 373 806 l 499 996 q 935 996 717 978 l 1062 806 l 793 806 l 719 905 l 644 806 l 373 806 z "},"Ŷ":{"ha":1142,"x_min":-12,"x_max":1152,"o":"m 364 231 q 340 303 364 281 q 250 324 315 325 l -12 972 l 435 972 l 573 557 l 711 972 l 1152 972 l 892 324 q 802 303 826 325 q 778 231 778 282 l 778 0 l 364 0 l 364 231 m 220 1035 l 346 1222 q 802 1222 574 1204 l 928 1035 l 658 1035 l 573 1132 l 488 1035 l 220 1035 z "},"ŷ":{"ha":1047,"x_min":5,"x_max":1041,"o":"m 336 -56 q 310 0 336 -18 q 229 18 284 18 l 5 750 l 413 750 l 526 234 l 643 750 l 1041 750 l 831 18 q 748 1 773 18 q 724 -56 724 -17 l 724 -222 l 336 -222 l 336 -56 m 189 806 l 315 996 q 751 996 533 978 l 878 806 l 610 806 l 535 905 l 460 806 l 189 806 z "},"Ÿ":{"ha":1142,"x_min":-12,"x_max":1152,"o":"m 364 231 q 340 303 364 281 q 250 324 315 325 l -12 972 l 435 972 l 573 557 l 711 972 l 1152 972 l 892 324 q 802 303 826 325 q 778 231 778 282 l 778 0 l 364 0 l 364 231 m 191 1134 q 241 1213 191 1183 q 368 1243 292 1243 q 493 1213 442 1243 q 543 1134 543 1183 q 493 1056 543 1085 q 368 1026 443 1026 q 241 1056 292 1026 q 191 1134 191 1085 m 604 1134 q 654 1213 604 1183 q 781 1243 705 1243 q 906 1213 855 1243 q 956 1134 956 1183 q 906 1056 956 1085 q 781 1026 855 1026 q 654 1056 705 1026 q 604 1134 604 1085 z "},"Ź":{"ha":1057,"x_min":47,"x_max":1017,"o":"m 47 0 l 47 274 l 527 714 l 47 714 l 47 972 l 1003 972 l 1003 705 l 522 258 l 1017 258 l 1017 0 l 47 0 m 338 1035 l 384 1220 l 784 1220 l 703 1035 l 338 1035 z "},"ź":{"ha":941,"x_min":49,"x_max":900,"o":"m 49 0 l 49 247 l 424 525 l 49 525 l 49 750 l 881 750 l 881 505 l 509 225 l 900 225 l 900 0 l 49 0 m 289 806 l 332 990 l 715 990 l 629 806 l 289 806 z "},"Ż":{"ha":1057,"x_min":47,"x_max":1017,"o":"m 47 0 l 47 274 l 527 714 l 47 714 l 47 972 l 1003 972 l 1003 705 l 522 258 l 1017 258 l 1017 0 l 47 0 m 384 1059 q 355 1076 384 1059 q 326 1149 326 1093 q 384 1239 326 1205 q 528 1273 441 1273 q 671 1239 613 1273 q 728 1149 728 1205 q 671 1059 728 1093 q 528 1025 613 1025 q 384 1059 441 1025 z "},"ż":{"ha":941,"x_min":49,"x_max":900,"o":"m 49 0 l 49 247 l 424 525 l 49 525 l 49 750 l 881 750 l 881 505 l 509 225 l 900 225 l 900 0 l 49 0 m 256 916 q 317 1010 256 975 q 467 1046 377 1046 q 616 1010 556 1046 q 676 916 676 975 q 616 823 676 858 q 467 787 555 787 q 317 823 377 787 q 256 916 256 858 z "},"Ž":{"ha":1057,"x_min":47,"x_max":1017,"o":"m 47 0 l 47 274 l 527 714 l 47 714 l 47 972 l 1003 972 l 1003 705 l 522 258 l 1017 258 l 1017 0 l 47 0 m 175 1220 l 445 1220 l 530 1123 l 614 1220 l 882 1220 l 757 1033 q 300 1033 528 1050 l 175 1220 z "},"ž":{"ha":941,"x_min":49,"x_max":900,"o":"m 49 0 l 49 247 l 424 525 l 49 525 l 49 750 l 881 750 l 881 505 l 509 225 l 900 225 l 900 0 l 49 0 m 122 991 l 393 991 l 468 892 l 543 991 l 811 991 l 684 800 q 248 800 466 819 l 122 991 z "},"Ș":{"ha":1111,"x_min":24,"x_max":1086,"o":"m 555 -27 q 280 5 397 -27 q 95 108 164 37 q 24 283 26 179 l 456 283 q 486 205 456 232 q 566 178 515 178 q 630 194 606 178 q 654 244 654 211 q 627 298 654 279 q 539 336 600 318 l 372 382 q 298 405 330 394 q 229 432 265 416 q 166 464 193 448 q 114 503 139 480 q 72 551 88 526 q 46 608 56 576 q 37 678 37 641 q 78 825 37 762 q 192 925 119 888 q 356 980 265 962 q 553 998 446 998 q 701 988 630 998 q 838 955 772 978 q 952 897 903 931 q 1032 812 1002 863 q 1065 698 1062 761 l 648 698 q 618 771 645 747 q 548 795 592 795 q 484 777 509 795 q 458 728 458 758 q 482 682 458 698 q 559 650 506 667 l 753 597 q 860 561 814 578 q 950 516 905 543 q 1023 459 995 490 q 1068 384 1050 428 q 1086 286 1086 339 q 1059 166 1086 219 q 985 78 1032 113 q 870 18 937 42 q 724 -17 802 -6 q 555 -27 646 -27 m 349 -355 l 397 -69 l 690 -69 l 601 -355 l 349 -355 z "},"ș":{"ha":998,"x_min":26,"x_max":974,"o":"m 504 -23 q 260 3 364 -23 q 93 87 156 30 q 26 227 30 144 l 406 227 q 434 160 408 182 q 505 138 460 138 q 560 151 538 138 q 582 189 582 163 q 560 229 582 216 q 493 252 538 242 l 344 283 q 242 308 284 296 q 158 339 200 320 q 91 381 117 359 q 50 437 66 404 q 35 513 35 471 q 72 629 35 578 q 174 710 109 680 q 319 757 238 741 q 494 773 401 773 q 657 760 581 773 q 798 719 733 746 q 905 644 863 691 q 954 533 947 596 l 583 533 q 559 594 582 575 q 499 614 536 614 q 443 600 465 614 q 421 562 421 585 q 440 526 421 537 q 505 505 460 515 l 659 472 q 761 447 718 460 q 847 413 805 433 q 915 369 888 393 q 958 310 942 345 q 974 233 974 276 q 949 133 974 177 q 881 59 924 88 q 778 12 839 31 q 650 -15 718 -7 q 504 -23 583 -23 m 298 -355 l 346 -69 l 638 -69 l 549 -355 l 298 -355 z "},"Ț":{"ha":1062,"x_min":21,"x_max":1041,"o":"m 325 0 l 325 702 l 21 702 l 21 972 l 1041 972 l 1041 702 l 737 702 l 737 0 l 325 0 m 336 -355 l 384 -69 l 676 -69 l 587 -355 l 336 -355 z "},"ț":{"ha":752,"x_min":15,"x_max":715,"o":"m 484 -15 q 381 -7 429 -15 q 291 20 334 1 q 217 67 248 39 q 169 141 187 96 q 151 242 151 185 l 151 538 l 15 538 l 15 750 l 151 750 l 151 894 l 538 985 l 538 750 l 715 750 l 715 538 l 538 538 l 538 287 q 561 222 538 241 q 627 203 583 203 q 714 218 670 203 l 714 31 q 484 -15 626 -15 m 199 -355 l 248 -69 l 540 -69 l 451 -355 l 199 -355 z "},"Ȳ":{"ha":1142,"x_min":-12,"x_max":1152,"o":"m 364 231 q 340 303 364 281 q 250 324 315 325 l -12 972 l 435 972 l 573 557 l 711 972 l 1152 972 l 892 324 q 802 303 826 325 q 778 231 778 282 l 778 0 l 364 0 l 364 231 m 258 1038 l 258 1218 l 890 1218 l 890 1038 l 258 1038 z "},"ȳ":{"ha":1047,"x_min":5,"x_max":1041,"o":"m 336 -56 q 310 0 336 -18 q 229 18 284 18 l 5 750 l 413 750 l 526 234 l 643 750 l 1041 750 l 831 18 q 748 1 773 18 q 724 -56 724 -17 l 724 -222 l 336 -222 l 336 -56 m 216 811 l 216 994 l 840 994 l 840 811 l 216 811 z "},"ȷ":{"ha":503,"x_min":-36,"x_max":445,"o":"m 142 -248 q -36 -222 32 -248 l -36 -28 q 6 -36 -15 -36 q 45 -23 32 -36 q 58 21 58 -9 l 58 750 l 445 750 l 445 14 q 429 -90 445 -44 q 385 -164 412 -135 q 318 -213 357 -194 q 236 -240 279 -232 q 142 -248 193 -248 z "},"ˆ":{"ha":790,"x_min":51,"x_max":740,"o":"m 177 996 q 613 996 395 978 l 740 806 l 471 806 l 397 905 l 322 806 l 51 806 l 177 996 z "},"ˇ":{"ha":780,"x_min":45,"x_max":734,"o":"m 172 800 l 45 991 l 317 991 l 391 892 l 466 991 l 734 991 l 608 800 q 172 800 389 819 z "},"˘":{"ha":675,"x_min":50,"x_max":625,"o":"m 338 795 q 127 846 203 795 q 50 991 51 897 l 277 991 q 294 954 278 970 q 338 939 310 939 q 381 955 366 939 q 399 991 397 970 l 625 991 q 548 846 624 897 q 338 795 472 795 z "},"˙":{"ha":520,"x_min":50,"x_max":470,"o":"m 260 787 q 111 823 171 787 q 50 916 50 858 q 111 1010 50 975 q 260 1046 171 1046 q 410 1010 350 1046 q 470 916 470 975 q 410 823 470 858 q 260 787 349 787 z "},"˚":{"ha":572,"x_min":50,"x_max":522,"o":"m 286 798 q 116 834 182 798 q 50 935 50 871 q 116 1036 50 1000 q 286 1072 181 1072 q 456 1036 391 1072 q 522 935 522 1000 q 456 834 522 871 q 286 798 390 798 m 224 935 q 242 895 224 910 q 286 880 260 880 q 331 895 313 880 q 349 935 349 910 q 331 975 349 960 q 286 990 313 990 q 242 975 260 990 q 224 935 224 960 z "},"˛":{"ha":469,"x_min":50,"x_max":418,"o":"m 418 -240 q 275 -256 357 -256 q 110 -223 170 -256 q 50 -136 50 -190 q 117 -38 50 -78 q 288 12 184 2 l 418 0 q 330 -34 359 -12 q 300 -81 300 -56 q 318 -113 300 -101 q 372 -125 336 -125 q 418 -121 392 -125 l 418 -240 z "},"˜":{"ha":823,"x_min":50,"x_max":772,"o":"m 578 800 q 409 822 516 800 q 266 845 302 845 q 218 806 220 845 l 50 806 q 105 955 50 901 q 256 1008 160 1008 q 414 986 309 1008 q 557 964 519 964 q 612 1002 612 964 l 772 1002 q 718 849 772 898 q 578 800 664 800 z "},"˝":{"ha":831,"x_min":48,"x_max":783,"o":"m 48 806 l 87 990 l 411 990 l 345 806 l 48 806 m 420 806 l 460 990 l 783 990 l 718 806 l 420 806 z "},"Ẁ":{"ha":1640,"x_min":12,"x_max":1628,"o":"m 244 0 l 12 972 l 420 972 l 517 382 l 638 972 l 1011 972 l 1138 385 l 1236 972 l 1628 972 l 1396 0 l 932 0 l 821 596 l 710 0 l 244 0 m 566 1220 l 966 1220 l 1013 1035 l 648 1035 l 566 1220 z "},"ẁ":{"ha":1421,"x_min":10,"x_max":1411,"o":"m 212 0 l 10 750 l 375 750 l 452 291 l 545 750 l 878 750 l 970 298 l 1048 750 l 1411 750 l 1211 0 l 798 0 l 711 418 l 625 0 l 212 0 m 463 990 l 846 990 l 889 806 l 549 806 l 463 990 z "},"Ẃ":{"ha":1640,"x_min":12,"x_max":1628,"o":"m 244 0 l 12 972 l 420 972 l 517 382 l 638 972 l 1011 972 l 1138 385 l 1236 972 l 1628 972 l 1396 0 l 932 0 l 821 596 l 710 0 l 244 0 m 633 1035 l 679 1220 l 1079 1220 l 998 1035 l 633 1035 z "},"ẃ":{"ha":1421,"x_min":10,"x_max":1411,"o":"m 212 0 l 10 750 l 375 750 l 452 291 l 545 750 l 878 750 l 970 298 l 1048 750 l 1411 750 l 1211 0 l 798 0 l 711 418 l 625 0 l 212 0 m 534 806 l 577 990 l 960 990 l 875 806 l 534 806 z "},"Ẅ":{"ha":1640,"x_min":12,"x_max":1628,"o":"m 244 0 l 12 972 l 420 972 l 517 382 l 638 972 l 1011 972 l 1138 385 l 1236 972 l 1628 972 l 1396 0 l 932 0 l 821 596 l 710 0 l 244 0 m 440 1134 q 491 1213 440 1183 q 617 1243 542 1243 q 742 1213 692 1243 q 793 1134 793 1183 q 743 1056 793 1085 q 617 1026 692 1026 q 491 1056 542 1026 q 440 1134 440 1085 m 853 1134 q 904 1213 853 1183 q 1030 1243 955 1243 q 1155 1213 1105 1243 q 1206 1134 1206 1183 q 1155 1056 1206 1085 q 1030 1026 1105 1026 q 904 1056 955 1026 q 853 1134 853 1085 z "},"ẅ":{"ha":1421,"x_min":10,"x_max":1411,"o":"m 212 0 l 10 750 l 375 750 l 452 291 l 545 750 l 878 750 l 970 298 l 1048 750 l 1411 750 l 1211 0 l 798 0 l 711 418 l 625 0 l 212 0 m 334 924 q 385 1004 334 974 q 513 1034 436 1034 q 640 1004 589 1034 q 690 924 690 974 q 639 844 690 874 q 513 814 588 814 q 385 844 436 814 q 334 924 334 874 m 734 924 q 786 1004 734 974 q 913 1034 837 1034 q 1040 1004 989 1034 q 1091 924 1091 974 q 1040 844 1091 874 q 913 814 989 814 q 786 844 837 814 q 734 924 734 874 z "},"ẞ":{"ha":1181,"x_min":64,"x_max":1152,"o":"m 64 0 l 64 972 l 1087 972 l 1087 728 l 919 553 q 1089 463 1026 529 q 1152 293 1152 397 q 1131 173 1152 226 q 1073 86 1110 121 q 983 29 1036 52 q 868 -3 929 7 q 733 -12 806 -12 q 535 10 620 -12 l 535 228 q 605 220 566 220 q 696 245 663 220 q 730 321 730 271 q 611 409 730 409 l 595 409 l 595 608 l 718 738 l 476 738 l 476 0 l 64 0 z "},"Ỳ":{"ha":1142,"x_min":-12,"x_max":1152,"o":"m 364 231 q 340 303 364 281 q 250 324 315 325 l -12 972 l 435 972 l 573 557 l 711 972 l 1152 972 l 892 324 q 802 303 826 325 q 778 231 778 282 l 778 0 l 364 0 l 364 231 m 317 1220 l 718 1220 l 764 1035 l 399 1035 l 317 1220 z "},"ỳ":{"ha":1047,"x_min":5,"x_max":1041,"o":"m 336 -56 q 310 0 336 -18 q 229 18 284 18 l 5 750 l 413 750 l 526 234 l 643 750 l 1041 750 l 831 18 q 748 1 773 18 q 724 -56 724 -17 l 724 -222 l 336 -222 l 336 -56 m 279 990 l 663 990 l 705 806 l 365 806 l 279 990 z "}," ":{"ha":339,"x_min":0,"x_max":0,"o":""}," ":{"ha":678,"x_min":0,"x_max":0,"o":""}," ":{"ha":85,"x_min":0,"x_max":0,"o":""}," ":{"ha":27,"x_min":0,"x_max":0,"o":""},"–":{"ha":706,"x_min":59,"x_max":647,"o":"m 59 320 l 59 572 l 647 572 l 647 320 l 59 320 z "},"—":{"ha":986,"x_min":57,"x_max":929,"o":"m 57 323 l 57 569 l 929 569 l 929 323 l 57 323 z "},"‘":{"ha":441,"x_min":18,"x_max":414,"o":"m 414 974 l 358 565 l 18 565 l 122 974 l 414 974 z "},"’":{"ha":437,"x_min":33,"x_max":429,"o":"m 33 563 l 89 972 l 429 972 l 325 563 l 33 563 z "},"‚":{"ha":438,"x_min":11,"x_max":407,"o":"m 11 -169 l 67 240 l 407 240 l 303 -169 l 11 -169 z "},"“":{"ha":840,"x_min":19,"x_max":813,"o":"m 415 975 l 359 566 l 19 566 l 123 975 l 415 975 m 417 566 l 521 975 l 813 975 l 757 566 l 417 566 z "},"”":{"ha":835,"x_min":33,"x_max":827,"o":"m 431 563 l 487 972 l 827 972 l 723 563 l 431 563 m 33 563 l 89 972 l 429 972 l 325 563 l 33 563 z "},"„":{"ha":836,"x_min":11,"x_max":805,"o":"m 409 -169 l 465 240 l 805 240 l 701 -169 l 409 -169 m 11 -169 l 67 240 l 407 240 l 303 -169 l 11 -169 z "},"†":{"ha":883,"x_min":20,"x_max":863,"o":"m 254 0 l 254 509 l 20 509 l 20 749 l 254 749 l 254 972 l 629 972 l 629 749 l 863 749 l 863 509 l 629 509 l 629 0 l 254 0 z "},"‡":{"ha":935,"x_min":45,"x_max":889,"o":"m 279 0 l 279 180 l 45 180 l 45 418 l 279 418 l 279 557 l 45 557 l 45 795 l 279 795 l 279 972 l 655 972 l 655 795 l 889 795 l 889 557 l 655 557 l 655 418 l 889 418 l 889 180 l 655 180 l 655 0 l 279 0 z "},"•":{"ha":787,"x_min":64,"x_max":723,"o":"m 394 139 q 265 161 326 139 q 160 221 204 183 q 91 311 117 258 q 64 421 64 363 q 161 620 64 538 q 394 701 257 701 q 559 664 484 701 q 679 562 635 627 q 723 421 723 498 q 679 279 723 344 q 559 176 635 214 q 394 139 484 139 z "},"…":{"ha":1358,"x_min":24,"x_max":1333,"o":"m 817 32 q 789 7 817 32 q 679 -18 762 -18 q 541 32 595 -18 q 487 156 487 81 q 541 279 487 230 q 679 328 595 328 q 817 279 762 328 q 871 156 871 230 q 817 32 871 81 m 24 156 q 79 279 24 230 q 216 328 133 328 q 354 279 300 328 q 408 156 408 230 q 354 32 408 81 q 216 -18 300 -18 q 79 32 133 -18 q 24 156 24 81 m 949 156 q 1004 279 949 230 q 1141 328 1058 328 q 1279 279 1225 328 q 1333 156 1333 230 q 1279 32 1333 81 q 1141 -18 1225 -18 q 1004 32 1058 -18 q 949 156 949 81 z "},"′":{"ha":452,"x_min":31,"x_max":446,"o":"m 31 546 l 98 972 l 446 972 l 336 546 l 31 546 z "},"″":{"ha":852,"x_min":31,"x_max":846,"o":"m 31 546 l 98 972 l 446 972 l 336 546 l 31 546 m 431 546 l 498 972 l 846 972 l 736 546 l 431 546 z "},"‹":{"ha":581,"x_min":21,"x_max":557,"o":"m 197 0 l 21 378 l 197 750 l 557 750 l 398 378 l 557 0 l 197 0 z "},"›":{"ha":581,"x_min":24,"x_max":559,"o":"m 384 0 l 24 0 l 182 378 l 24 750 l 384 750 l 559 378 l 384 0 z "},"‽":{"ha":989,"x_min":17,"x_max":967,"o":"m 571 30 q 546 7 571 30 q 446 -16 522 -16 q 320 30 370 -16 q 270 144 270 75 q 319 257 270 212 q 446 302 369 302 q 571 257 522 302 q 621 144 621 212 q 571 30 621 75 m 17 675 q 45 797 20 743 q 114 888 71 850 q 217 950 157 925 q 350 986 278 975 q 506 998 422 998 q 687 979 604 998 q 832 924 769 960 q 931 829 896 888 q 967 694 967 770 q 863 484 967 564 q 569 404 758 404 l 551 404 l 594 325 l 286 325 l 62 626 l 430 626 l 452 585 q 566 709 566 603 q 548 770 566 749 q 496 791 530 791 q 437 768 458 791 q 416 704 416 746 q 418 675 416 691 l 17 675 z "},"⁄":{"ha":396,"x_min":-289,"x_max":682,"o":"m -289 0 l 482 972 l 682 972 l -89 0 l -289 0 z "},"⁰":{"ha":720,"x_min":24,"x_max":696,"o":"m 361 459 q 114 538 203 459 q 24 771 24 617 q 115 1002 24 924 q 361 1081 205 1081 q 606 1002 516 1081 q 696 771 696 924 q 607 538 696 618 q 361 459 517 459 m 296 771 q 310 646 296 686 q 361 607 325 607 q 410 646 396 607 q 425 771 425 686 q 410 895 425 857 q 361 933 396 933 q 310 895 325 933 q 296 771 296 857 z "},"⁴":{"ha":713,"x_min":24,"x_max":691,"o":"m 362 473 l 362 573 l 24 573 l 24 741 l 245 1066 l 604 1066 l 604 726 l 691 726 l 691 573 l 604 573 l 604 473 l 362 473 m 245 726 l 362 726 l 362 905 l 245 726 z "},"⁵":{"ha":696,"x_min":22,"x_max":673,"o":"m 345 458 q 178 479 249 458 q 66 545 108 500 q 22 656 24 590 l 292 656 q 308 614 294 630 q 347 597 321 597 q 388 618 373 597 q 403 676 403 638 q 345 751 403 751 q 284 707 300 751 l 43 707 l 43 1066 l 640 1066 l 640 923 l 293 923 l 293 824 q 359 872 316 854 q 458 890 402 890 q 564 869 516 890 q 643 800 612 847 q 673 688 673 753 q 657 602 673 640 q 612 536 641 563 q 541 492 583 510 q 450 467 499 475 q 345 458 401 458 z "},"⁶":{"ha":700,"x_min":24,"x_max":679,"o":"m 361 458 q 113 538 201 458 q 24 768 24 618 q 113 1002 24 922 q 363 1082 201 1082 q 578 1031 496 1082 q 666 894 659 980 l 410 894 q 396 931 410 918 q 359 945 382 945 q 286 823 286 945 q 287 785 286 810 q 351 840 307 819 q 455 861 395 861 q 616 813 553 861 q 679 673 679 766 q 654 577 679 619 q 584 510 629 535 q 484 471 540 484 q 361 458 427 458 m 300 662 q 315 610 300 629 q 356 591 330 591 q 395 610 381 591 q 410 662 410 629 q 395 713 410 695 q 354 731 380 731 q 314 713 329 731 q 300 662 300 695 z "},"⁷":{"ha":594,"x_min":14,"x_max":578,"o":"m 121 473 q 188 718 123 605 q 350 899 253 831 l 14 899 l 14 1066 l 578 1066 l 578 894 q 441 716 488 817 q 395 473 395 614 l 121 473 z "},"⁸":{"ha":709,"x_min":24,"x_max":686,"o":"m 355 459 q 112 506 199 459 q 24 638 24 553 q 61 733 24 697 q 159 784 98 769 q 38 920 38 824 q 122 1039 38 997 q 355 1081 207 1081 q 587 1039 503 1081 q 672 920 672 997 q 549 784 672 825 q 648 734 611 770 q 686 638 686 698 q 598 506 686 553 q 355 459 510 459 m 295 652 q 312 606 295 623 q 355 589 328 589 q 398 606 382 589 q 415 652 415 623 q 398 696 415 680 q 355 713 382 713 q 312 696 328 713 q 295 652 295 680 m 299 897 q 314 856 299 871 q 355 842 330 842 q 396 857 380 842 q 412 897 412 871 q 396 936 412 921 q 355 951 380 951 q 315 936 330 951 q 299 897 299 921 z "},"⁹":{"ha":697,"x_min":20,"x_max":673,"o":"m 335 457 q 116 507 197 457 q 31 643 35 556 l 286 643 q 303 605 288 619 q 342 591 318 591 q 396 626 380 591 q 412 734 412 661 q 411 753 412 747 q 250 681 359 681 q 136 701 186 681 q 53 764 85 720 q 20 869 20 807 q 63 989 20 940 q 174 1060 105 1038 q 332 1082 242 1082 q 581 1003 490 1082 q 673 781 673 924 q 585 539 673 621 q 335 457 497 457 m 303 931 q 296 922 303 931 q 289 883 289 913 q 304 835 289 852 q 345 817 319 817 q 386 834 371 817 q 400 883 400 852 q 384 931 400 913 q 343 949 368 949 q 303 931 318 949 z "},"₀":{"ha":706,"x_min":24,"x_max":686,"o":"m 355 -104 q 112 -26 200 -104 q 24 203 24 52 q 113 431 24 353 q 355 508 201 508 q 597 431 509 508 q 686 203 686 353 q 598 -26 686 52 q 355 -104 510 -104 m 292 203 q 306 79 292 118 q 355 41 320 41 q 404 79 390 41 q 418 203 418 118 q 404 324 418 286 q 355 362 390 362 q 306 325 320 362 q 292 203 292 287 z "},"₁":{"ha":485,"x_min":18,"x_max":446,"o":"m 189 -91 l 189 244 l 18 244 l 18 421 l 99 421 q 173 436 155 421 q 192 493 191 452 l 446 493 l 446 -91 l 189 -91 z "},"₂":{"ha":680,"x_min":18,"x_max":654,"o":"m 34 -91 l 34 51 l 277 202 q 323 232 309 223 q 354 257 336 241 q 379 287 372 273 q 385 319 385 301 q 373 355 385 341 q 338 368 361 368 q 300 352 314 368 q 286 307 286 336 q 288 286 286 294 l 18 286 q 112 453 24 397 q 345 509 200 509 q 499 489 432 509 q 609 425 567 469 q 650 317 650 380 q 634 244 650 277 q 585 183 618 211 q 517 135 551 155 q 429 90 484 115 l 375 62 l 654 62 l 654 -91 l 34 -91 z "},"₃":{"ha":677,"x_min":19,"x_max":655,"o":"m 336 -104 q 108 -55 193 -104 q 19 90 23 -6 l 285 90 q 299 44 286 62 q 338 27 312 27 q 376 41 362 27 q 390 80 390 54 q 318 140 390 140 l 251 140 l 251 279 l 317 279 q 370 292 354 279 q 386 334 386 305 q 373 365 386 354 q 339 376 361 376 q 301 362 315 376 q 287 319 288 347 l 22 319 q 116 459 27 410 q 338 509 204 509 q 491 492 424 509 q 601 437 558 475 q 644 345 644 399 q 607 258 644 292 q 512 210 571 224 q 615 165 574 199 q 655 71 655 130 q 630 -10 655 24 q 561 -64 605 -44 q 460 -95 516 -85 q 336 -104 404 -104 z "},"₄":{"ha":695,"x_min":20,"x_max":677,"o":"m 353 -91 l 353 7 l 20 7 l 20 172 l 237 493 l 591 493 l 591 158 l 677 158 l 677 7 l 591 7 l 591 -91 l 353 -91 m 238 158 l 353 158 l 353 334 l 238 158 z "},"₅":{"ha":684,"x_min":22,"x_max":665,"o":"m 340 -106 q 177 -85 246 -106 q 66 -20 107 -65 q 22 90 24 24 l 289 90 q 304 47 290 63 q 343 31 317 31 q 383 52 368 31 q 397 109 397 72 q 340 183 397 183 q 281 140 296 183 l 43 140 l 43 493 l 631 493 l 631 352 l 290 352 l 290 254 q 355 302 313 284 q 452 320 397 320 q 603 268 541 320 q 665 121 665 216 q 576 -50 665 6 q 340 -106 487 -106 z "},"₆":{"ha":686,"x_min":24,"x_max":669,"o":"m 357 -106 q 112 -28 199 -106 q 24 199 24 51 q 111 430 24 351 q 359 509 198 509 q 569 458 489 509 q 657 323 650 408 l 405 323 q 391 360 404 347 q 354 374 377 374 q 281 254 281 374 q 283 216 281 241 q 346 270 302 250 q 448 291 389 291 q 607 244 545 291 q 669 106 669 197 q 626 -13 669 36 q 513 -84 582 -62 q 357 -106 444 -106 m 310 145 q 303 136 310 145 q 296 95 296 127 q 311 44 296 63 q 351 26 326 26 q 390 44 376 26 q 404 95 404 62 q 389 145 404 127 q 349 163 374 163 q 310 145 325 163 z "},"₇":{"ha":583,"x_min":13,"x_max":570,"o":"m 119 -91 q 186 150 122 39 q 345 328 250 262 l 13 328 l 13 493 l 570 493 l 570 323 q 435 148 481 248 q 389 -91 389 48 l 119 -91 z "},"₈":{"ha":697,"x_min":24,"x_max":676,"o":"m 590 -58 q 546 -81 590 -58 q 350 -104 503 -104 q 111 -58 197 -104 q 24 71 24 -12 q 61 165 24 130 q 157 215 97 200 q 37 349 37 254 q 121 466 37 425 q 350 508 204 508 q 579 466 496 508 q 663 349 663 425 q 541 215 663 254 q 639 165 602 201 q 676 71 676 130 q 590 -58 676 -12 m 307 129 q 299 121 307 129 q 291 85 291 113 q 307 40 291 57 q 350 24 323 24 q 393 40 377 24 q 410 85 410 56 q 393 129 410 113 q 350 145 377 145 q 307 129 323 145 m 295 326 q 310 287 295 301 q 350 272 326 272 q 390 287 374 272 q 406 326 406 301 q 390 365 406 350 q 350 380 374 380 q 310 365 326 380 q 295 326 295 351 z "},"₉":{"ha":684,"x_min":21,"x_max":663,"o":"m 331 -107 q 116 -58 195 -107 q 31 76 36 -9 l 283 76 q 299 39 285 53 q 337 25 313 25 q 391 59 375 25 q 406 166 406 94 q 406 184 406 178 q 247 113 353 113 q 135 133 184 113 q 53 195 85 152 q 21 298 21 238 q 63 417 21 369 q 172 487 104 466 q 328 509 239 509 q 573 431 484 509 q 663 212 663 353 q 577 -26 663 54 q 331 -107 490 -107 m 300 360 q 293 352 300 360 q 286 313 286 343 q 300 265 286 282 q 341 248 315 248 q 380 265 366 248 q 395 313 395 282 q 379 360 395 342 q 338 377 363 377 q 300 360 314 377 z "},"₩":{"ha":1726,"x_min":26,"x_max":1687,"o":"m 26 366 l 26 600 l 138 600 l 50 972 l 458 972 l 555 382 l 676 972 l 1049 972 l 1176 385 l 1274 972 l 1666 972 l 1577 600 l 1687 600 l 1687 366 l 1522 366 l 1434 0 l 970 0 l 859 596 l 748 0 l 282 0 l 195 366 l 26 366 z "},"€":{"ha":1277,"x_min":34,"x_max":1253,"o":"m 689 -26 q 337 56 477 -26 q 146 299 197 138 l 34 299 l 34 457 l 121 457 q 120 488 120 467 q 121 521 120 510 l 34 521 l 34 679 l 149 679 q 346 919 202 838 q 702 1000 490 1000 q 977 956 857 1000 q 1168 828 1097 912 q 1250 631 1240 745 l 835 631 q 799 735 832 697 q 703 774 765 774 q 565 679 604 774 l 751 679 l 751 521 l 538 521 l 538 504 l 538 477 l 538 457 l 751 457 l 751 299 l 560 299 q 699 200 595 200 q 802 243 767 200 q 842 357 838 286 l 1253 357 q 1199 187 1245 261 q 1077 67 1153 113 q 903 -2 1001 21 q 689 -26 805 -26 z "},"₿":{"ha":1188,"x_min":71,"x_max":1149,"o":"m 608 -113 l 608 0 l 512 0 l 512 -113 l 286 -113 l 286 0 l 71 0 l 71 972 l 286 972 l 286 1082 l 512 1082 l 512 972 l 608 972 l 608 1082 l 833 1082 l 833 965 q 1114 739 1114 932 q 1059 593 1114 651 q 915 512 1005 536 q 1086 430 1022 490 q 1149 273 1149 370 q 1070 91 1149 153 q 833 9 990 28 l 833 -113 l 608 -113 m 483 206 l 590 206 q 718 306 718 206 q 593 399 718 399 l 483 399 l 483 206 m 483 601 l 591 601 q 672 623 642 601 q 701 690 701 645 q 592 769 701 769 l 483 769 l 483 601 z "},"№":{"ha":2140,"x_min":64,"x_max":2116,"o":"m 64 0 l 64 972 l 561 972 l 847 448 l 847 972 l 1225 972 l 1225 0 l 750 0 l 443 562 l 443 0 l 64 0 m 1313 689 q 1366 856 1313 786 q 1508 960 1419 926 q 1714 994 1598 994 q 1921 960 1831 994 q 2063 857 2010 926 q 2116 689 2116 787 q 2064 522 2116 591 q 1922 417 2012 452 q 1714 383 1832 383 q 1423 463 1534 383 q 1313 689 1313 543 m 1630 689 q 1714 545 1630 545 q 1799 689 1799 545 q 1777 795 1799 759 q 1714 831 1755 831 q 1652 795 1674 831 q 1630 689 1630 759 z "},"℗":{"ha":1164,"x_min":39,"x_max":1124,"o":"m 322 205 l 322 774 l 631 774 q 913 581 913 774 q 635 376 913 376 l 565 376 l 565 205 l 322 205 m 39 486 q 81 689 39 593 q 195 853 123 785 q 368 962 267 922 q 582 1002 469 1002 q 796 962 695 1002 q 969 853 897 922 q 1083 689 1041 785 q 1124 486 1124 593 q 1098 321 1124 400 q 1022 178 1072 241 q 906 68 972 115 q 756 -4 840 22 q 582 -29 673 -29 q 306 39 431 -29 q 111 225 182 106 q 39 486 39 343 m 107 486 q 143 309 107 393 q 243 166 180 226 q 394 71 306 106 q 583 36 483 36 q 824 95 715 36 q 995 258 933 155 q 1057 486 1057 361 q 1021 664 1057 581 q 921 807 984 747 q 770 902 859 867 q 582 937 682 937 q 340 877 449 937 q 169 715 231 818 q 107 486 107 612 m 565 507 l 591 507 q 672 578 672 507 q 652 628 672 613 q 591 643 631 643 l 565 643 l 565 507 z "},"™":{"ha":1377,"x_min":19,"x_max":1313,"o":"m 174 480 l 174 829 l 19 829 l 19 972 l 544 972 l 544 829 l 390 829 l 390 480 l 174 480 m 614 480 l 614 972 l 887 972 l 966 699 l 1048 972 l 1313 972 l 1313 480 l 1125 480 l 1125 774 l 1038 480 l 890 480 l 802 773 l 802 480 l 614 480 z "},"⅓":{"ha":1469,"x_min":18,"x_max":1444,"o":"m 182 410 l 182 733 l 18 733 l 18 905 l 96 905 q 168 920 150 905 q 186 974 185 935 l 431 974 l 431 410 l 182 410 m 171 0 l 942 972 l 1141 972 l 371 0 l 171 0 m 1086 175 q 1099 131 1086 147 q 1137 114 1112 114 q 1174 127 1161 114 q 1187 165 1187 140 q 1118 223 1187 223 l 1053 223 l 1053 357 l 1118 357 q 1168 370 1153 357 q 1183 410 1183 382 q 1172 441 1183 430 q 1139 452 1160 452 q 1088 396 1088 452 l 832 396 q 923 531 837 484 q 1138 579 1008 579 q 1285 563 1221 579 q 1392 511 1350 547 q 1433 420 1433 474 q 1398 337 1433 370 q 1305 290 1362 304 q 1405 247 1366 281 q 1444 156 1444 214 q 1420 78 1444 112 q 1353 25 1396 45 q 1255 -4 1310 5 q 1136 -14 1201 -14 q 915 34 998 -14 q 829 175 833 82 l 1086 175 z "},"⅔":{"ha":1665,"x_min":20,"x_max":1639,"o":"m 35 410 l 35 547 l 269 692 q 314 721 300 712 q 345 746 328 730 q 368 775 362 761 q 374 806 374 789 q 362 840 374 827 q 329 853 351 853 q 292 838 305 853 q 278 794 278 822 q 279 774 278 781 l 20 774 q 110 936 24 882 q 335 989 195 989 q 485 970 420 989 q 590 908 550 951 q 631 804 631 865 q 615 733 631 765 q 567 674 600 701 q 502 628 534 648 q 416 584 469 609 l 364 557 l 633 557 l 633 410 l 35 410 m 367 0 l 1138 972 l 1337 972 l 567 0 l 367 0 m 1281 175 q 1295 131 1282 147 q 1333 114 1308 114 q 1370 127 1356 114 q 1383 165 1383 140 q 1314 223 1383 223 l 1249 223 l 1249 357 l 1313 357 q 1363 370 1348 357 q 1379 410 1379 382 q 1367 441 1379 430 q 1334 452 1355 452 q 1283 396 1284 452 l 1027 396 q 1118 531 1032 484 q 1333 579 1204 579 q 1481 563 1416 579 q 1587 511 1546 547 q 1628 420 1628 474 q 1593 337 1628 370 q 1501 290 1558 304 q 1600 247 1561 281 q 1639 156 1639 214 q 1615 78 1639 112 q 1548 25 1591 45 q 1451 -4 1505 5 q 1331 -14 1396 -14 q 1111 34 1193 -14 q 1024 175 1028 82 l 1281 175 z "},"⅕":{"ha":1507,"x_min":18,"x_max":1483,"o":"m 182 410 l 182 733 l 18 733 l 18 905 l 96 905 q 168 920 150 905 q 186 974 185 935 l 431 974 l 431 410 l 182 410 m 171 0 l 942 972 l 1141 972 l 371 0 l 171 0 m 1120 174 q 1135 134 1122 149 q 1173 118 1148 118 q 1212 137 1198 118 q 1225 193 1225 157 q 1170 264 1225 264 q 1112 222 1127 264 l 883 222 l 883 564 l 1451 564 l 1451 428 l 1121 428 l 1121 334 q 1184 380 1143 362 q 1278 397 1225 397 q 1423 347 1364 397 q 1483 204 1483 296 q 1441 79 1483 129 q 1331 7 1399 29 q 1170 -14 1262 -14 q 1012 5 1079 -14 q 905 68 945 25 q 863 174 865 111 l 1120 174 z "},"⅖":{"ha":1703,"x_min":20,"x_max":1678,"o":"m 35 410 l 35 547 l 269 692 q 314 721 300 712 q 345 746 328 730 q 368 775 362 761 q 374 806 374 789 q 362 840 374 827 q 329 853 351 853 q 292 838 305 853 q 278 794 278 822 q 279 774 278 781 l 20 774 q 110 936 24 882 q 335 989 195 989 q 485 970 420 989 q 590 908 550 951 q 631 804 631 865 q 615 733 631 765 q 567 674 600 701 q 502 628 534 648 q 416 584 469 609 l 364 557 l 633 557 l 633 410 l 35 410 m 367 0 l 1138 972 l 1337 972 l 567 0 l 367 0 m 1316 174 q 1330 134 1317 149 q 1368 118 1343 118 q 1407 137 1393 118 q 1421 193 1421 157 q 1365 264 1421 264 q 1308 222 1322 264 l 1078 222 l 1078 564 l 1647 564 l 1647 428 l 1316 428 l 1316 334 q 1379 380 1338 362 q 1473 397 1420 397 q 1619 347 1559 397 q 1678 204 1678 296 q 1636 79 1678 129 q 1526 7 1594 29 q 1365 -14 1457 -14 q 1207 5 1274 -14 q 1100 68 1140 25 q 1058 174 1060 111 l 1316 174 z "},"⅗":{"ha":1664,"x_min":20,"x_max":1640,"o":"m 327 396 q 106 444 189 396 q 20 585 24 492 l 277 585 q 290 540 277 557 q 328 524 303 524 q 365 536 352 524 q 378 574 378 549 q 309 633 378 633 l 244 633 l 244 767 l 309 767 q 359 780 344 767 q 374 820 374 792 q 362 850 374 840 q 330 861 351 861 q 279 806 279 861 l 23 806 q 114 941 28 893 q 329 989 199 989 q 476 973 412 989 q 583 920 541 957 q 624 830 624 884 q 589 747 624 779 q 496 700 553 714 q 596 657 557 690 q 635 566 635 623 q 611 488 635 522 q 544 435 587 454 q 446 406 500 415 q 327 396 392 396 m 328 0 l 1099 972 l 1299 972 l 528 0 l 328 0 m 1278 174 q 1292 134 1279 149 q 1330 118 1305 118 q 1369 137 1355 118 q 1383 193 1383 157 q 1327 264 1383 264 q 1270 222 1284 264 l 1040 222 l 1040 564 l 1609 564 l 1609 428 l 1278 428 l 1278 334 q 1341 380 1300 362 q 1435 397 1382 397 q 1581 347 1521 397 q 1640 204 1640 296 q 1598 79 1640 129 q 1488 7 1556 29 q 1327 -14 1419 -14 q 1169 5 1236 -14 q 1062 68 1102 25 q 1020 174 1022 111 l 1278 174 z "},"⅘":{"ha":1691,"x_min":24,"x_max":1667,"o":"m 347 410 l 347 505 l 24 505 l 24 664 l 235 974 l 576 974 l 576 650 l 660 650 l 660 505 l 576 505 l 576 410 l 347 410 m 236 650 l 347 650 l 347 821 l 236 650 m 355 0 l 1126 972 l 1326 972 l 555 0 l 355 0 m 1304 174 q 1319 134 1305 149 q 1356 118 1332 118 q 1395 137 1381 118 q 1409 193 1409 157 q 1354 264 1409 264 q 1296 222 1311 264 l 1067 222 l 1067 564 l 1635 564 l 1635 428 l 1305 428 l 1305 334 q 1368 380 1326 362 q 1461 397 1409 397 q 1607 347 1548 397 q 1667 204 1667 296 q 1625 79 1667 129 q 1514 7 1583 29 q 1354 -14 1446 -14 q 1196 5 1263 -14 q 1088 68 1128 25 q 1046 174 1048 111 l 1304 174 z "},"⅙":{"ha":1466,"x_min":18,"x_max":1445,"o":"m 182 410 l 182 733 l 18 733 l 18 905 l 96 905 q 168 920 150 905 q 186 974 185 935 l 431 974 l 431 410 l 182 410 m 171 0 l 942 972 l 1141 972 l 371 0 l 171 0 m 822 280 q 906 504 822 427 q 1145 580 989 580 q 1349 531 1271 580 q 1433 400 1426 482 l 1190 400 q 1176 436 1189 422 q 1140 449 1162 449 q 1070 333 1070 449 q 1072 297 1070 320 q 1133 349 1091 329 q 1232 369 1174 369 q 1385 324 1324 369 q 1445 191 1445 279 q 1403 75 1445 122 q 1294 6 1360 27 q 1143 -15 1227 -15 q 906 61 991 -15 q 822 280 822 137 m 1098 228 q 1091 220 1098 228 q 1084 180 1084 211 q 1098 131 1084 149 q 1137 113 1113 113 q 1175 131 1161 113 q 1189 180 1189 149 q 1175 228 1189 211 q 1136 245 1160 245 q 1098 228 1112 245 z "},"⅚":{"ha":1625,"x_min":22,"x_max":1604,"o":"m 330 395 q 172 415 239 395 q 64 478 104 435 q 22 584 24 521 l 280 584 q 295 543 281 559 q 332 528 308 528 q 371 547 357 528 q 385 603 385 566 q 330 674 385 674 q 272 632 287 674 l 43 632 l 43 974 l 611 974 l 611 838 l 281 838 l 281 743 q 343 789 302 772 q 437 807 385 807 q 583 756 524 807 q 643 614 643 706 q 601 489 643 538 q 490 417 559 439 q 330 395 422 395 m 330 0 l 1101 972 l 1300 972 l 530 0 l 330 0 m 981 280 q 1064 504 981 427 q 1303 580 1148 580 q 1507 531 1430 580 q 1592 400 1585 482 l 1348 400 q 1334 436 1348 422 q 1299 449 1321 449 q 1229 333 1229 449 q 1230 297 1229 320 q 1291 349 1250 329 q 1390 369 1333 369 q 1544 324 1483 369 q 1604 191 1604 279 q 1561 75 1604 122 q 1453 6 1519 27 q 1301 -15 1386 -15 q 1065 61 1149 -15 q 981 280 981 137 m 1257 228 q 1250 220 1257 228 q 1242 180 1242 211 q 1257 131 1242 149 q 1296 113 1272 113 q 1334 131 1320 113 q 1348 180 1348 149 q 1333 228 1348 211 q 1295 245 1319 245 q 1257 228 1271 245 z "},"⅛":{"ha":1489,"x_min":18,"x_max":1464,"o":"m 182 410 l 182 733 l 18 733 l 18 905 l 96 905 q 168 920 150 905 q 186 974 185 935 l 431 974 l 431 410 l 182 410 m 171 0 l 942 972 l 1141 972 l 371 0 l 171 0 m 834 157 q 869 247 834 213 q 962 296 905 281 q 847 425 847 334 q 927 538 847 498 q 1149 578 1008 578 q 1371 538 1290 578 q 1451 425 1451 498 q 1334 296 1451 334 q 1429 248 1393 282 q 1464 157 1464 213 q 1381 31 1464 76 q 1149 -14 1297 -14 q 917 31 1000 -14 q 834 157 834 76 m 1108 212 q 1100 204 1108 212 q 1092 170 1092 197 q 1108 126 1092 142 q 1149 111 1124 111 q 1191 126 1175 111 q 1206 170 1206 142 q 1191 212 1206 197 q 1149 228 1175 228 q 1108 212 1124 228 m 1096 403 q 1111 365 1096 378 q 1149 351 1125 351 q 1188 365 1173 351 q 1203 403 1203 379 q 1188 441 1203 427 q 1149 455 1173 455 q 1111 441 1125 455 q 1096 403 1096 427 z "},"⅜":{"ha":1646,"x_min":20,"x_max":1622,"o":"m 327 396 q 106 444 189 396 q 20 585 24 492 l 277 585 q 290 540 277 557 q 328 524 303 524 q 365 536 352 524 q 378 574 378 549 q 309 633 378 633 l 244 633 l 244 767 l 309 767 q 359 780 344 767 q 374 820 374 792 q 362 850 374 840 q 330 861 351 861 q 279 806 279 861 l 23 806 q 114 941 28 893 q 329 989 199 989 q 476 973 412 989 q 583 920 541 957 q 624 830 624 884 q 589 747 624 779 q 496 700 553 714 q 596 657 557 690 q 635 566 635 623 q 611 488 635 522 q 544 435 587 454 q 446 406 500 415 q 327 396 392 396 m 328 0 l 1099 972 l 1299 972 l 528 0 l 328 0 m 991 157 q 1027 247 991 213 q 1120 296 1062 281 q 1004 425 1004 334 q 1085 538 1004 498 q 1306 578 1165 578 q 1528 538 1447 578 q 1609 425 1609 498 q 1491 296 1609 334 q 1586 248 1550 282 q 1622 157 1622 213 q 1538 31 1622 76 q 1306 -14 1455 -14 q 1075 31 1158 -14 q 991 157 991 76 m 1265 212 q 1257 204 1265 212 q 1249 170 1249 197 q 1265 126 1249 142 q 1306 111 1281 111 q 1348 126 1333 111 q 1364 170 1364 142 q 1348 212 1364 197 q 1306 228 1333 228 q 1265 212 1281 228 m 1253 403 q 1268 365 1253 378 q 1306 351 1282 351 q 1345 365 1330 351 q 1360 403 1360 379 q 1345 441 1360 427 q 1306 455 1330 455 q 1268 441 1282 455 q 1253 403 1253 427 z "},"⅝":{"ha":1647,"x_min":22,"x_max":1623,"o":"m 330 395 q 172 415 239 395 q 64 478 104 435 q 22 584 24 521 l 280 584 q 295 543 281 559 q 332 528 308 528 q 371 547 357 528 q 385 603 385 566 q 330 674 385 674 q 272 632 287 674 l 43 632 l 43 974 l 611 974 l 611 838 l 281 838 l 281 743 q 343 789 302 772 q 437 807 385 807 q 583 756 524 807 q 643 614 643 706 q 601 489 643 538 q 490 417 559 439 q 330 395 422 395 m 330 0 l 1101 972 l 1300 972 l 530 0 l 330 0 m 993 157 q 1028 247 993 213 q 1121 296 1063 281 q 1006 425 1006 334 q 1086 538 1006 498 q 1308 578 1166 578 q 1529 538 1449 578 q 1610 425 1610 498 q 1493 296 1610 334 q 1587 248 1552 282 q 1623 157 1623 213 q 1539 31 1623 76 q 1308 -14 1456 -14 q 1076 31 1159 -14 q 993 157 993 76 m 1266 212 q 1259 204 1266 212 q 1251 170 1251 197 q 1266 126 1251 142 q 1308 111 1282 111 q 1350 126 1334 111 q 1365 170 1365 142 q 1350 212 1365 197 q 1308 228 1334 228 q 1266 212 1282 228 m 1255 403 q 1269 365 1255 378 q 1308 351 1284 351 q 1347 365 1331 351 q 1362 403 1362 379 q 1347 441 1362 427 q 1308 455 1331 455 q 1269 441 1284 455 q 1255 403 1255 427 z "},"⅞":{"ha":1504,"x_min":13,"x_max":1480,"o":"m 115 410 q 180 643 118 535 q 334 814 241 750 l 13 814 l 13 974 l 551 974 l 551 810 q 421 640 465 736 q 376 410 376 544 l 115 410 m 187 0 l 958 972 l 1158 972 l 387 0 l 187 0 m 850 157 q 885 247 850 213 q 978 296 920 281 q 863 425 863 334 q 943 538 863 498 q 1164 578 1023 578 q 1386 538 1305 578 q 1467 425 1467 498 q 1350 296 1467 334 q 1444 248 1409 282 q 1480 157 1480 213 q 1396 31 1480 76 q 1164 -14 1313 -14 q 933 31 1016 -14 q 850 157 850 76 m 1123 212 q 1115 204 1123 212 q 1107 170 1107 197 q 1123 126 1107 142 q 1164 111 1139 111 q 1206 126 1191 111 q 1222 170 1222 142 q 1206 212 1222 197 q 1164 228 1191 228 q 1123 212 1139 228 m 1112 403 q 1126 365 1112 378 q 1164 351 1141 351 q 1203 365 1188 351 q 1219 403 1219 379 q 1203 441 1219 427 q 1164 455 1188 455 q 1126 441 1141 455 q 1112 403 1112 427 z "},"←":{"ha":1152,"x_min":32,"x_max":1112,"o":"m 731 60 l 370 60 l 32 482 l 370 904 l 731 904 l 516 643 l 1112 643 l 1112 322 l 516 322 l 731 60 z "},"↑":{"ha":953,"x_min":27,"x_max":926,"o":"m 297 0 l 297 557 l 27 364 l 27 675 l 477 1000 l 926 675 l 926 364 l 656 557 l 656 0 l 297 0 z "},"→":{"ha":1152,"x_min":39,"x_max":1120,"o":"m 420 60 l 635 322 l 39 322 l 39 643 l 635 643 l 420 904 l 782 904 l 1120 482 l 782 60 l 420 60 z "},"↓":{"ha":952,"x_min":26,"x_max":926,"o":"m 656 972 l 656 416 l 926 608 l 926 298 l 476 -28 l 26 298 l 26 608 l 297 415 l 297 972 l 656 972 z "},"↖":{"ha":1031,"x_min":55,"x_max":1004,"o":"m 345 58 l 60 281 l 55 821 l 581 944 l 865 721 l 535 648 l 1004 280 l 806 28 l 337 396 l 345 58 z "},"↗":{"ha":1031,"x_min":27,"x_max":977,"o":"m 687 58 l 694 396 l 226 28 l 27 280 l 496 648 l 166 721 l 450 944 l 977 821 l 971 281 l 687 58 z "},"↘":{"ha":1033,"x_min":28,"x_max":977,"o":"m 688 912 l 972 688 l 977 149 l 451 25 l 166 248 l 496 321 l 28 689 l 226 941 l 695 573 l 688 912 z "},"↙":{"ha":1033,"x_min":56,"x_max":1005,"o":"m 345 912 l 338 573 l 807 941 l 1005 689 l 536 321 l 867 248 l 582 25 l 56 149 l 61 688 l 345 912 z "},"−":{"ha":862,"x_min":52,"x_max":810,"o":"m 52 323 l 52 567 l 810 567 l 810 323 l 52 323 z "},"〈":{"ha":709,"x_min":5,"x_max":715,"o":"m 292 -167 l 5 435 l 292 1035 l 715 1035 l 418 435 l 715 -167 l 292 -167 z "},"〉":{"ha":709,"x_min":-7,"x_max":703,"o":"m 417 -167 l -7 -167 l 291 435 l -7 1035 l 417 1035 l 703 435 l 417 -167 z "},"①":{"ha":1164,"x_min":39,"x_max":1124,"o":"m 582 -29 q 306 39 431 -29 q 111 225 182 106 q 39 486 39 343 q 81 689 39 593 q 195 853 123 785 q 368 962 267 922 q 582 1002 469 1002 q 796 962 695 1002 q 969 853 897 922 q 1083 689 1041 785 q 1124 486 1124 593 q 1098 321 1124 400 q 1022 178 1072 241 q 906 68 972 115 q 756 -4 840 22 q 582 -29 673 -29 m 107 486 q 143 309 107 393 q 243 166 180 226 q 394 71 306 106 q 583 36 483 36 q 824 95 715 36 q 995 258 933 155 q 1057 486 1057 361 q 1021 664 1057 581 q 921 807 984 747 q 770 902 859 867 q 582 937 682 937 q 340 877 449 937 q 169 715 231 818 q 107 486 107 612 m 324 531 l 324 703 l 402 703 q 474 718 456 703 q 492 772 492 732 l 737 772 l 737 208 l 489 208 l 489 531 l 324 531 z "},"②":{"ha":1164,"x_min":39,"x_max":1124,"o":"m 582 -29 q 306 39 431 -29 q 111 225 182 106 q 39 486 39 343 q 81 689 39 593 q 195 853 123 785 q 368 962 267 922 q 582 1002 469 1002 q 796 962 695 1002 q 969 853 897 922 q 1083 689 1041 785 q 1124 486 1124 593 q 1098 321 1124 400 q 1022 178 1072 241 q 906 68 972 115 q 756 -4 840 22 q 582 -29 673 -29 m 107 486 q 143 309 107 393 q 243 166 180 226 q 394 71 306 106 q 583 36 483 36 q 824 95 715 36 q 995 258 933 155 q 1057 486 1057 361 q 1021 664 1057 581 q 921 807 984 747 q 770 902 859 867 q 582 937 682 937 q 340 877 449 937 q 169 715 231 818 q 107 486 107 612 m 278 570 q 367 729 283 676 q 588 782 451 782 q 735 763 671 782 q 839 702 799 744 q 878 600 878 660 q 863 530 878 562 q 815 473 848 499 q 751 428 783 446 q 668 384 720 409 l 616 357 l 881 357 l 881 213 l 293 213 l 293 347 l 524 490 q 568 519 555 510 q 597 543 581 528 q 621 571 614 557 q 627 602 627 585 q 615 635 627 622 q 582 648 603 648 q 545 633 559 648 q 532 590 532 617 q 533 570 532 578 l 278 570 z "},"③":{"ha":1164,"x_min":39,"x_max":1124,"o":"m 582 -29 q 306 39 431 -29 q 111 225 182 106 q 39 486 39 343 q 81 689 39 593 q 195 853 123 785 q 368 962 267 922 q 582 1002 469 1002 q 796 962 695 1002 q 969 853 897 922 q 1083 689 1041 785 q 1124 486 1124 593 q 1098 321 1124 400 q 1022 178 1072 241 q 906 68 972 115 q 756 -4 840 22 q 582 -29 673 -29 m 107 486 q 143 309 107 393 q 243 166 180 226 q 394 71 306 106 q 583 36 483 36 q 824 95 715 36 q 995 258 933 155 q 1057 486 1057 361 q 1021 664 1057 581 q 921 807 984 747 q 770 902 859 867 q 582 937 682 937 q 340 877 449 937 q 169 715 231 818 q 107 486 107 612 m 533 382 q 547 338 534 355 q 585 321 559 321 q 622 334 608 321 q 635 372 635 347 q 566 431 635 431 l 500 431 l 500 565 l 565 565 q 615 577 600 565 q 631 618 631 590 q 619 648 631 637 q 586 659 607 659 q 535 604 536 659 l 279 604 q 370 739 284 691 q 585 787 456 787 q 733 771 668 787 q 839 718 798 755 q 880 628 880 682 q 845 545 880 577 q 753 498 810 512 q 852 455 813 488 q 891 363 891 421 q 867 286 891 319 q 800 233 843 252 q 703 203 757 213 q 583 194 648 194 q 362 242 445 194 q 276 382 280 290 l 533 382 z "},"④":{"ha":1164,"x_min":39,"x_max":1124,"o":"m 582 -29 q 306 39 431 -29 q 111 225 182 106 q 39 486 39 343 q 81 689 39 593 q 195 853 123 785 q 368 962 267 922 q 582 1002 469 1002 q 796 962 695 1002 q 969 853 897 922 q 1083 689 1041 785 q 1124 486 1124 593 q 1098 321 1124 400 q 1022 178 1072 241 q 906 68 972 115 q 756 -4 840 22 q 582 -29 673 -29 m 107 486 q 143 309 107 393 q 243 166 180 226 q 394 71 306 106 q 583 36 483 36 q 824 95 715 36 q 995 258 933 155 q 1057 486 1057 361 q 1021 664 1057 581 q 921 807 984 747 q 770 902 859 867 q 582 937 682 937 q 340 877 449 937 q 169 715 231 818 q 107 486 107 612 m 246 302 l 246 462 l 457 772 l 798 772 l 798 448 l 882 448 l 882 302 l 798 302 l 798 208 l 568 208 l 568 302 l 246 302 m 458 448 l 568 448 l 568 618 l 458 448 z "},"⑤":{"ha":1164,"x_min":39,"x_max":1124,"o":"m 582 -29 q 306 39 431 -29 q 111 225 182 106 q 39 486 39 343 q 81 689 39 593 q 195 853 123 785 q 368 962 267 922 q 582 1002 469 1002 q 796 962 695 1002 q 969 853 897 922 q 1083 689 1041 785 q 1124 486 1124 593 q 1098 321 1124 400 q 1022 178 1072 241 q 906 68 972 115 q 756 -4 840 22 q 582 -29 673 -29 m 107 486 q 143 309 107 393 q 243 166 180 226 q 394 71 306 106 q 583 36 483 36 q 824 95 715 36 q 995 258 933 155 q 1057 486 1057 361 q 1021 664 1057 581 q 921 807 984 747 q 770 902 859 867 q 582 937 682 937 q 340 877 449 937 q 169 715 231 818 q 107 486 107 612 m 530 382 q 544 341 531 357 q 582 326 557 326 q 621 345 607 326 q 635 401 635 364 q 579 472 635 472 q 522 430 536 472 l 292 430 l 292 772 l 861 772 l 861 635 l 530 635 l 530 541 q 593 587 552 570 q 687 605 634 605 q 833 554 773 605 q 892 412 892 504 q 850 287 892 336 q 740 215 808 237 q 579 193 671 193 q 421 213 488 193 q 314 276 354 233 q 272 382 274 319 l 530 382 z "},"⑥":{"ha":1164,"x_min":39,"x_max":1124,"o":"m 582 -29 q 306 39 431 -29 q 111 225 182 106 q 39 486 39 343 q 81 689 39 593 q 195 853 123 785 q 368 962 267 922 q 582 1002 469 1002 q 796 962 695 1002 q 969 853 897 922 q 1083 689 1041 785 q 1124 486 1124 593 q 1098 321 1124 400 q 1022 178 1072 241 q 906 68 972 115 q 756 -4 840 22 q 582 -29 673 -29 m 107 486 q 143 309 107 393 q 243 166 180 226 q 394 71 306 106 q 583 36 483 36 q 824 95 715 36 q 995 258 933 155 q 1057 486 1057 361 q 1021 664 1057 581 q 921 807 984 747 q 770 902 859 867 q 582 937 682 937 q 340 877 449 937 q 169 715 231 818 q 107 486 107 612 m 263 488 q 347 711 263 635 q 586 787 431 787 q 790 739 712 787 q 874 608 867 690 l 631 608 q 617 643 630 630 q 581 656 604 656 q 511 541 511 656 q 513 505 511 528 q 574 556 532 536 q 673 576 615 576 q 826 531 766 576 q 886 398 886 486 q 844 282 886 330 q 735 214 802 235 q 584 193 669 193 q 348 269 432 193 q 263 488 263 345 m 539 436 q 532 427 539 436 q 525 387 525 418 q 539 338 525 356 q 578 320 554 320 q 616 338 602 320 q 630 387 630 356 q 616 436 630 418 q 577 453 602 453 q 539 436 553 453 z "},"⑦":{"ha":1164,"x_min":39,"x_max":1124,"o":"m 582 -29 q 306 39 431 -29 q 111 225 182 106 q 39 486 39 343 q 81 689 39 593 q 195 853 123 785 q 368 962 267 922 q 582 1002 469 1002 q 796 962 695 1002 q 969 853 897 922 q 1083 689 1041 785 q 1124 486 1124 593 q 1098 321 1124 400 q 1022 178 1072 241 q 906 68 972 115 q 756 -4 840 22 q 582 -29 673 -29 m 107 486 q 143 309 107 393 q 243 166 180 226 q 394 71 306 106 q 583 36 483 36 q 824 95 715 36 q 995 258 933 155 q 1057 486 1057 361 q 1021 664 1057 581 q 921 807 984 747 q 770 902 859 867 q 582 937 682 937 q 340 877 449 937 q 169 715 231 818 q 107 486 107 612 m 309 612 l 309 772 l 847 772 l 847 608 q 717 438 762 534 q 673 208 673 342 l 412 208 q 476 440 414 333 q 630 612 538 548 l 309 612 z "},"⑧":{"ha":1164,"x_min":39,"x_max":1124,"o":"m 582 -29 q 306 39 431 -29 q 111 225 182 106 q 39 486 39 343 q 81 689 39 593 q 195 853 123 785 q 368 962 267 922 q 582 1002 469 1002 q 796 962 695 1002 q 969 853 897 922 q 1083 689 1041 785 q 1124 486 1124 593 q 1098 321 1124 400 q 1022 178 1072 241 q 906 68 972 115 q 756 -4 840 22 q 582 -29 673 -29 m 107 486 q 143 309 107 393 q 243 166 180 226 q 394 71 306 106 q 583 36 483 36 q 824 95 715 36 q 995 258 933 155 q 1057 486 1057 361 q 1021 664 1057 581 q 921 807 984 747 q 770 902 859 867 q 582 937 682 937 q 340 877 449 937 q 169 715 231 818 q 107 486 107 612 m 267 364 q 302 455 267 420 q 395 503 338 489 q 280 633 280 541 q 360 746 280 706 q 582 786 441 786 q 804 746 723 786 q 884 633 884 706 q 767 503 884 541 q 862 455 826 490 q 897 364 897 420 q 814 239 897 283 q 582 194 730 194 q 350 239 433 194 q 267 364 267 283 m 541 420 q 533 412 541 420 q 525 377 525 404 q 541 334 525 350 q 582 318 557 318 q 624 334 608 318 q 640 377 640 350 q 624 420 640 404 q 582 435 608 435 q 541 420 557 435 m 529 610 q 544 572 529 586 q 582 558 558 558 q 621 572 606 558 q 636 610 636 587 q 621 648 636 634 q 582 663 606 663 q 544 648 558 663 q 529 610 529 634 z "},"⑨":{"ha":1164,"x_min":39,"x_max":1124,"o":"m 582 -29 q 306 39 431 -29 q 111 225 182 106 q 39 486 39 343 q 81 689 39 593 q 195 853 123 785 q 368 962 267 922 q 582 1002 469 1002 q 796 962 695 1002 q 969 853 897 922 q 1083 689 1041 785 q 1124 486 1124 593 q 1098 321 1124 400 q 1022 178 1072 241 q 906 68 972 115 q 756 -4 840 22 q 582 -29 673 -29 m 107 486 q 143 309 107 393 q 243 166 180 226 q 394 71 306 106 q 583 36 483 36 q 824 95 715 36 q 995 258 933 155 q 1057 486 1057 361 q 1021 664 1057 581 q 921 807 984 747 q 770 902 859 867 q 582 937 682 937 q 340 877 449 937 q 169 715 231 818 q 107 486 107 612 m 284 584 q 325 699 284 652 q 430 766 365 745 q 581 787 495 787 q 818 711 731 787 q 905 500 905 636 q 822 270 905 348 q 584 192 738 192 q 375 239 452 192 q 294 369 298 286 l 537 369 q 553 333 539 346 q 590 319 567 319 q 642 353 627 319 q 656 456 656 386 q 656 473 656 468 q 503 405 606 405 q 347 451 410 405 q 284 584 284 497 m 554 643 q 547 635 554 643 q 540 597 540 627 q 554 552 540 568 q 593 535 569 535 q 632 552 618 535 q 646 597 646 568 q 631 643 646 627 q 591 660 616 660 q 554 643 568 660 z "},"⓪":{"ha":1164,"x_min":39,"x_max":1124,"o":"m 582 -29 q 306 39 431 -29 q 111 225 182 106 q 39 486 39 343 q 81 689 39 593 q 195 853 123 785 q 368 962 267 922 q 582 1002 469 1002 q 796 962 695 1002 q 969 853 897 922 q 1083 689 1041 785 q 1124 486 1124 593 q 1098 321 1124 400 q 1022 178 1072 241 q 906 68 972 115 q 756 -4 840 22 q 582 -29 673 -29 m 107 486 q 143 309 107 393 q 243 166 180 226 q 394 71 306 106 q 583 36 483 36 q 824 95 715 36 q 995 258 933 155 q 1057 486 1057 361 q 1021 664 1057 581 q 921 807 984 747 q 770 902 859 867 q 582 937 682 937 q 340 877 449 937 q 169 715 231 818 q 107 486 107 612 m 262 491 q 348 711 262 637 q 583 786 434 786 q 816 711 730 786 q 902 491 902 637 q 817 270 902 345 q 583 194 732 194 q 348 269 433 194 q 262 491 262 345 m 535 609 q 528 591 535 609 q 521 491 521 572 q 535 372 521 410 q 583 334 549 334 q 630 372 616 334 q 644 491 644 410 q 630 609 644 572 q 583 646 616 646 q 535 609 549 646 z "},"⓿":{"ha":1164,"x_min":39,"x_max":1124,"o":"m 582 -29 q 756 -4 673 -29 q 906 68 840 22 q 1022 178 972 115 q 1098 321 1072 241 q 1124 486 1124 400 q 1083 689 1124 593 q 969 853 1041 785 q 796 962 897 922 q 582 1002 695 1002 q 368 962 469 1002 q 195 853 267 922 q 81 689 123 785 q 39 486 39 593 q 111 225 39 343 q 306 39 182 106 q 582 -29 431 -29 m 352 271 q 310 308 352 271 q 269 488 269 345 q 353 705 269 631 q 583 778 437 778 q 812 705 728 778 q 897 488 897 631 q 813 271 897 345 q 583 197 730 197 q 352 271 436 197 m 536 604 q 529 586 536 604 q 522 488 522 568 q 536 372 522 408 q 583 335 549 335 q 629 372 616 335 q 643 488 643 408 q 629 604 643 568 q 583 640 616 640 q 536 604 549 640 z "},"■":{"ha":1100,"x_min":64,"x_max":1036,"o":"m 64 0 l 64 972 l 1036 972 l 1036 0 l 64 0 z "},"□":{"ha":1100,"x_min":64,"x_max":1036,"o":"m 64 0 l 64 972 l 1036 972 l 1036 0 l 64 0 m 165 99 l 935 99 l 935 873 l 165 873 l 165 99 z "},"▲":{"ha":1076,"x_min":12,"x_max":1063,"o":"m 12 0 l 538 997 l 1063 0 l 12 0 z "},"△":{"ha":1076,"x_min":12,"x_max":1063,"o":"m 12 0 l 538 997 l 1063 0 l 12 0 m 183 102 l 892 102 l 538 775 l 183 102 z "},"▶":{"ha":964,"x_min":96,"x_max":943,"o":"m 96 -10 l 96 984 l 943 487 l 96 -10 z "},"▷":{"ha":966,"x_min":96,"x_max":946,"o":"m 96 -10 l 96 984 l 946 487 l 96 -10 m 198 166 l 748 487 l 198 808 l 198 166 z "},"▼":{"ha":1072,"x_min":11,"x_max":1062,"o":"m 11 972 l 1062 972 l 536 -24 l 11 972 z "},"▽":{"ha":1072,"x_min":11,"x_max":1062,"o":"m 11 972 l 1062 972 l 536 -24 l 11 972 m 182 870 l 536 197 l 891 870 l 182 870 z "},"◀":{"ha":964,"x_min":20,"x_max":868,"o":"m 868 -10 l 20 487 l 868 984 l 868 -10 z "},"◁":{"ha":966,"x_min":20,"x_max":870,"o":"m 870 -10 l 20 487 l 870 984 l 870 -10 m 218 487 l 768 166 l 768 808 l 218 487 z "},"◆":{"ha":1093,"x_min":22,"x_max":1072,"o":"m 547 -39 l 22 489 l 547 1011 l 1072 489 l 547 -39 z "},"◇":{"ha":1093,"x_min":22,"x_max":1072,"o":"m 547 -39 l 22 489 l 547 1011 l 1072 489 l 547 -39 m 165 488 l 547 104 l 928 488 l 547 868 l 165 488 z "},"○":{"ha":1109,"x_min":39,"x_max":1070,"o":"m 814 39 q 755 5 814 39 q 555 -29 696 -29 q 295 39 414 -29 q 108 227 177 108 q 39 486 39 345 q 108 746 39 627 q 295 933 177 865 q 555 1002 414 1002 q 814 933 696 1002 q 1001 746 932 865 q 1070 486 1070 627 q 1001 227 1070 345 q 814 39 932 108 m 174 648 q 158 609 174 648 q 142 486 142 571 q 174 325 142 401 q 262 193 207 248 q 394 105 317 138 q 555 73 470 73 q 716 105 640 73 q 847 193 792 138 q 935 325 903 248 q 968 486 968 401 q 935 648 968 571 q 847 780 903 724 q 716 867 792 835 q 555 900 640 900 q 394 867 470 900 q 262 780 317 835 q 174 648 207 724 z "},"●":{"ha":1116,"x_min":39,"x_max":1076,"o":"m 557 -33 q 760 8 664 -33 q 925 119 856 50 q 1036 284 995 188 q 1076 486 1076 380 q 1036 688 1076 592 q 925 854 995 785 q 760 964 856 923 q 557 1005 664 1005 q 356 964 452 1005 q 190 854 260 923 q 80 688 121 785 q 39 486 39 592 q 80 284 39 380 q 190 119 121 188 q 356 8 260 50 q 557 -33 452 -33 z "},"★":{"ha":936,"x_min":12,"x_max":924,"o":"m 469 996 l 583 587 l 924 587 l 924 585 l 649 385 l 797 -12 l 795 -13 l 468 246 l 141 -13 l 139 -12 l 287 385 l 12 585 l 12 587 l 353 587 l 467 996 l 469 996 z "},"♡":{"ha":1047,"x_min":29,"x_max":1018,"o":"m 522 -22 q 310 181 396 92 q 158 361 224 271 q 60 535 92 452 q 29 703 29 619 q 101 916 29 834 q 290 997 172 997 q 432 957 369 997 q 524 848 494 917 q 615 957 553 917 q 757 997 678 997 q 947 916 876 997 q 1018 703 1018 835 q 987 537 1018 620 q 891 365 956 454 q 738 184 825 275 q 522 -22 650 93 m 134 707 q 224 443 134 583 q 522 106 315 304 q 824 446 734 309 q 914 705 914 583 q 870 849 914 796 q 747 903 825 903 q 622 855 667 903 q 570 715 576 808 l 478 715 q 425 855 471 808 q 300 903 380 903 q 177 850 221 903 q 134 707 134 798 z "},"♥":{"ha":1044,"x_min":28,"x_max":1017,"o":"m 521 -22 q 375 121 435 60 q 255 250 315 182 q 157 372 195 317 q 87 485 119 427 q 42 599 56 543 q 28 711 28 655 q 100 918 28 839 q 286 997 172 997 q 441 943 380 997 q 522 797 503 888 q 603 943 541 889 q 758 997 665 997 q 945 918 873 997 q 1017 710 1017 839 q 1003 600 1017 654 q 959 488 989 545 q 891 377 929 431 q 792 255 852 322 q 670 125 732 188 q 521 -22 608 62 z "},"✕":{"ha":1055,"x_min":22,"x_max":1032,"o":"m 231 -19 l 527 277 l 823 -19 l 1032 191 l 736 486 l 1032 782 l 823 991 l 527 696 l 231 991 l 22 782 l 527 277 l 736 486 l 527 696 l 22 191 l 231 -19 z "},"✶":{"ha":936,"x_min":26,"x_max":911,"o":"m 909 231 l 559 328 l 469 -24 l 467 -24 l 376 328 l 27 231 l 26 233 l 285 486 l 26 740 l 27 742 l 376 644 l 467 996 l 469 996 l 559 644 l 909 742 l 911 740 l 652 486 l 911 233 l 909 231 z "},"❶":{"ha":1164,"x_min":39,"x_max":1124,"o":"m 582 -29 q 756 -4 673 -29 q 906 68 840 22 q 1022 178 972 115 q 1098 321 1072 241 q 1124 486 1124 400 q 1083 689 1124 593 q 969 853 1041 785 q 796 962 897 922 q 582 1002 695 1002 q 368 962 469 1002 q 195 853 267 922 q 81 689 123 785 q 39 486 39 593 q 111 225 39 343 q 306 39 182 106 q 582 -29 431 -29 m 329 528 l 329 696 l 406 696 q 476 710 458 696 q 494 764 494 725 l 734 764 l 734 210 l 491 210 l 491 528 l 329 528 z "},"❷":{"ha":1164,"x_min":39,"x_max":1124,"o":"m 582 -29 q 756 -4 673 -29 q 906 68 840 22 q 1022 178 972 115 q 1098 321 1072 241 q 1124 486 1124 400 q 1083 689 1124 593 q 969 853 1041 785 q 796 962 897 922 q 582 1002 695 1002 q 368 962 469 1002 q 195 853 267 922 q 81 689 123 785 q 39 486 39 593 q 111 225 39 343 q 306 39 182 106 q 582 -29 431 -29 m 278 568 q 367 726 283 673 q 588 779 451 779 q 735 760 671 779 q 839 699 799 741 q 878 597 878 657 q 863 528 878 559 q 815 470 848 496 q 751 425 783 444 q 668 381 720 406 l 616 355 l 881 355 l 881 210 l 293 210 l 293 345 l 524 488 q 568 516 555 507 q 597 540 581 525 q 621 568 614 555 q 627 599 627 582 q 615 632 627 619 q 582 646 603 646 q 545 630 559 646 q 532 587 532 614 q 533 568 532 575 l 278 568 z "},"❸":{"ha":1164,"x_min":39,"x_max":1124,"o":"m 582 -29 q 756 -4 673 -29 q 906 68 840 22 q 1022 178 972 115 q 1098 321 1072 241 q 1124 486 1124 400 q 1083 689 1124 593 q 969 853 1041 785 q 796 962 897 922 q 582 1002 695 1002 q 368 962 469 1002 q 195 853 267 922 q 81 689 123 785 q 39 486 39 593 q 111 225 39 343 q 306 39 182 106 q 582 -29 431 -29 m 534 382 q 547 338 534 355 q 585 322 560 322 q 621 335 608 322 q 634 372 634 347 q 566 429 634 429 l 502 429 l 502 561 l 566 561 q 615 573 600 561 q 630 613 630 586 q 618 643 630 633 q 586 654 606 654 q 550 640 563 654 q 536 599 536 626 l 285 599 q 330 698 288 656 q 437 759 371 739 q 585 779 503 779 q 730 763 667 779 q 834 711 793 747 q 875 623 875 675 q 840 541 875 573 q 749 495 806 509 q 847 453 808 486 q 886 363 886 420 q 843 267 886 306 q 735 213 801 229 q 583 197 669 197 q 367 243 448 197 q 281 382 286 290 l 534 382 z "},"❹":{"ha":1164,"x_min":39,"x_max":1124,"o":"m 582 -29 q 756 -4 673 -29 q 906 68 840 22 q 1022 178 972 115 q 1098 321 1072 241 q 1124 486 1124 400 q 1083 689 1124 593 q 969 853 1041 785 q 796 962 897 922 q 582 1002 695 1002 q 368 962 469 1002 q 195 853 267 922 q 81 689 123 785 q 39 486 39 593 q 111 225 39 343 q 306 39 182 106 q 582 -29 431 -29 m 252 303 l 252 460 l 460 764 l 794 764 l 794 446 l 876 446 l 876 303 l 794 303 l 794 210 l 569 210 l 569 303 l 252 303 m 460 446 l 569 446 l 569 614 l 460 446 z "},"❺":{"ha":1164,"x_min":39,"x_max":1124,"o":"m 582 -29 q 756 -4 673 -29 q 906 68 840 22 q 1022 178 972 115 q 1098 321 1072 241 q 1124 486 1124 400 q 1083 689 1124 593 q 969 853 1041 785 q 796 962 897 922 q 582 1002 695 1002 q 368 962 469 1002 q 195 853 267 922 q 81 689 123 785 q 39 486 39 593 q 111 225 39 343 q 306 39 182 106 q 582 -29 431 -29 m 530 381 q 545 341 532 357 q 582 326 558 326 q 620 345 606 326 q 633 400 633 364 q 579 470 633 470 q 523 429 537 470 l 298 429 l 298 764 l 855 764 l 855 630 l 531 630 l 531 538 q 593 583 553 566 q 685 600 633 600 q 828 550 770 600 q 886 410 886 500 q 863 313 886 355 q 798 246 840 271 q 701 208 755 220 q 579 196 646 196 q 361 242 443 196 q 277 381 280 289 l 530 381 z "},"❻":{"ha":1164,"x_min":39,"x_max":1124,"o":"m 582 -29 q 756 -4 673 -29 q 906 68 840 22 q 1022 178 972 115 q 1098 321 1072 241 q 1124 486 1124 400 q 1083 689 1124 593 q 969 853 1041 785 q 796 962 897 922 q 582 1002 695 1002 q 368 962 469 1002 q 195 853 267 922 q 81 689 123 785 q 39 486 39 593 q 111 225 39 343 q 306 39 182 106 q 582 -29 431 -29 m 269 485 q 352 704 269 629 q 586 779 434 779 q 786 731 710 779 q 869 603 863 683 l 630 603 q 617 638 629 625 q 582 651 604 651 q 513 537 513 651 q 514 519 513 532 q 514 502 514 507 q 574 553 534 533 q 671 572 615 572 q 822 528 763 572 q 881 397 881 484 q 840 284 881 330 q 733 216 798 237 q 585 195 667 195 q 352 270 435 195 q 269 485 269 345 m 541 434 q 533 426 541 434 q 526 387 526 417 q 541 338 526 356 q 579 321 555 321 q 616 338 603 321 q 629 387 629 355 q 615 434 629 417 q 578 451 602 451 q 541 434 555 451 z "},"❼":{"ha":1164,"x_min":39,"x_max":1124,"o":"m 582 -29 q 756 -4 673 -29 q 906 68 840 22 q 1022 178 972 115 q 1098 321 1072 241 q 1124 486 1124 400 q 1083 689 1124 593 q 969 853 1041 785 q 796 962 897 922 q 582 1002 695 1002 q 368 962 469 1002 q 195 853 267 922 q 81 689 123 785 q 39 486 39 593 q 111 225 39 343 q 306 39 182 106 q 582 -29 431 -29 m 314 608 l 314 764 l 842 764 l 842 603 q 714 437 758 532 q 671 210 671 342 l 414 210 q 477 439 417 333 q 629 608 538 545 l 314 608 z "},"❽":{"ha":1164,"x_min":39,"x_max":1124,"o":"m 582 -29 q 756 -4 673 -29 q 906 68 840 22 q 1022 178 972 115 q 1098 321 1072 241 q 1124 486 1124 400 q 1083 689 1124 593 q 969 853 1041 785 q 796 962 897 922 q 582 1002 695 1002 q 368 962 469 1002 q 195 853 267 922 q 81 689 123 785 q 39 486 39 593 q 111 225 39 343 q 306 39 182 106 q 582 -29 431 -29 m 273 364 q 399 500 273 469 q 286 627 286 537 q 365 739 286 699 q 582 778 444 778 q 799 739 720 778 q 878 627 878 699 q 764 500 878 538 q 856 453 821 487 q 891 364 891 420 q 809 241 891 285 q 582 197 727 197 q 354 241 436 197 q 273 364 273 285 m 541 418 q 533 411 541 418 q 526 376 526 403 q 541 334 526 350 q 582 319 557 319 q 623 334 608 319 q 638 376 638 350 q 623 418 638 403 q 582 434 608 434 q 541 418 557 434 m 530 606 q 544 568 530 582 q 582 554 559 554 q 620 568 605 554 q 635 606 635 582 q 620 643 635 629 q 582 657 605 657 q 544 643 559 657 q 530 606 530 629 z "},"❾":{"ha":1164,"x_min":39,"x_max":1124,"o":"m 582 -29 q 756 -4 673 -29 q 906 68 840 22 q 1022 178 972 115 q 1098 321 1072 241 q 1124 486 1124 400 q 1083 689 1124 593 q 969 853 1041 785 q 796 962 897 922 q 582 1002 695 1002 q 368 962 469 1002 q 195 853 267 922 q 81 689 123 785 q 39 486 39 593 q 111 225 39 343 q 306 39 182 106 q 582 -29 431 -29 m 290 580 q 312 669 290 630 q 374 731 334 708 q 466 767 414 755 q 581 779 518 779 q 814 705 728 779 q 899 498 899 631 q 817 271 899 348 q 584 195 735 195 q 379 241 455 195 q 300 369 304 288 l 538 369 q 554 333 540 347 q 590 320 568 320 q 641 353 626 320 q 655 454 655 385 q 654 471 655 466 q 504 404 606 404 q 398 422 445 404 q 320 481 351 441 q 290 580 290 522 m 541 593 q 555 548 541 564 q 593 532 569 532 q 631 548 617 532 q 645 593 645 564 q 630 638 645 621 q 591 654 615 654 q 554 638 568 654 q 541 593 541 622 z "},"➖":{"ha":1197,"x_min":57,"x_max":1140,"o":"m 57 345 l 57 636 l 1140 636 l 1140 345 l 57 345 z "},"⸘":{"ha":989,"x_min":23,"x_max":973,"o":"m 419 720 q 444 743 419 720 q 545 766 469 766 q 670 720 621 766 q 720 606 720 674 q 671 492 720 538 q 545 447 621 447 q 418 492 468 447 q 369 606 369 538 q 419 720 369 674 m 23 56 q 127 266 23 186 q 421 345 232 345 l 439 345 l 396 425 l 704 425 l 928 123 l 560 123 l 538 165 q 424 40 424 146 q 442 -20 424 1 q 494 -41 460 -41 q 553 -19 532 -41 q 574 45 574 3 q 572 75 574 58 l 973 75 q 945 -47 970 7 q 877 -138 920 -101 q 773 -201 833 -176 q 640 -237 712 -226 q 484 -248 568 -248 q 303 -230 386 -248 q 158 -175 221 -211 q 59 -79 94 -138 q 23 56 23 -20 z "},"《":{"ha":1245,"x_min":5,"x_max":1251,"o":"m 292 -167 l 5 435 l 292 1035 l 715 1035 l 418 435 l 715 -167 l 292 -167 m 541 435 l 827 1035 l 1251 1035 l 954 435 l 1251 -167 l 827 -167 l 541 435 z "},"》":{"ha":1245,"x_min":-6,"x_max":1240,"o":"m 954 -167 l 530 -167 l 827 435 l 530 1035 l 954 1035 l 1240 435 l 954 -167 m -6 -167 l 292 435 l -6 1035 l 418 1035 l 704 435 l 418 -167 l -6 -167 z "},"「":{"ha":631,"x_min":64,"x_max":608,"o":"m 64 377 l 64 1035 l 608 1035 l 608 767 l 387 767 l 387 377 l 64 377 z "},"」":{"ha":619,"x_min":14,"x_max":558,"o":"m 558 491 l 558 -167 l 14 -167 l 14 101 l 235 101 l 235 491 l 558 491 z "},"『":{"ha":796,"x_min":66,"x_max":749,"o":"m 66 261 l 66 1035 l 749 1035 l 749 593 l 549 593 l 549 261 l 66 261 m 250 431 l 384 431 l 384 734 l 564 734 l 564 864 l 250 864 l 250 431 z "},"』":{"ha":785,"x_min":41,"x_max":724,"o":"m 724 607 l 724 -167 l 41 -167 l 41 275 l 241 275 l 241 607 l 724 607 m 225 4 l 540 4 l 540 437 l 406 437 l 406 134 l 225 134 l 225 4 z "},"【":{"ha":646,"x_min":66,"x_max":667,"o":"m 66 -167 l 66 1035 l 667 1035 q 407 436 407 762 q 667 -167 407 105 l 66 -167 z "},"】":{"ha":646,"x_min":-20,"x_max":581,"o":"m -20 -167 q 239 436 239 105 q -20 1035 239 762 l 581 1035 l 581 -167 l -20 -167 z "},"〔":{"ha":622,"x_min":43,"x_max":625,"o":"m 387 -222 l 43 149 l 43 715 l 391 1082 l 625 860 l 415 644 l 415 230 l 624 0 l 387 -222 z "},"〕":{"ha":622,"x_min":-3,"x_max":578,"o":"m 235 -222 l -2 0 l 207 230 l 207 644 l -3 860 l 231 1082 l 578 715 l 578 149 l 235 -222 z "},"":{"ha":998,"x_min":49,"x_max":948,"o":"m 49 0 l 49 212 l 465 212 l 49 513 l 49 823 l 319 630 l 319 1055 l 678 1055 l 678 631 l 948 823 l 948 513 l 532 212 l 948 212 l 948 0 l 49 0 z "},"":{"ha":998,"x_min":50,"x_max":949,"o":"m 949 972 l 949 761 l 533 761 l 949 460 l 949 149 l 678 342 l 678 -82 l 319 -82 l 319 342 l 50 149 l 50 460 l 465 761 l 50 761 l 50 972 l 949 972 z "},"":{"ha":1695,"x_min":17,"x_max":1678,"o":"m 943 149 q 1038 281 1008 205 q 1063 418 1069 357 q 1024 358 1054 404 q 981 292 994 313 q 951 240 968 271 q 926 187 934 209 l 780 81 q 788 123 772 90 q 822 174 804 156 q 794 163 808 167 q 765 159 780 159 q 745 170 751 160 l 860 248 q 947 415 893 308 q 818 298 892 333 l 808 283 q 666 107 701 123 q 588 82 656 102 q 377 -3 486 51 l 235 -35 q 249 -1 234 -24 q 279 33 264 23 q 197 28 228 21 q 217 51 205 42 q 247 66 229 60 q 278 74 265 71 q 315 78 291 76 q 349 82 340 81 q 378 92 363 86 q 410 108 393 98 q 440 125 427 118 q 473 148 453 133 q 504 172 493 163 q 539 199 515 180 q 571 227 562 219 q 607 258 581 235 q 642 288 633 281 q 469 237 556 269 q 334 181 381 204 q 203 114 287 157 l 28 66 q 51 102 25 77 q 100 138 77 127 q 54 141 76 136 q 27 161 31 146 l 163 193 q 278 248 189 205 q 64 216 138 215 l 17 319 q 161 366 89 330 q 275 444 234 403 q 291 541 256 501 q 401 583 327 581 q 435 620 414 604 q 410 758 410 690 q 428 860 410 826 q 483 769 456 838 q 521 652 510 699 q 534 650 526 652 q 681 854 581 810 q 658 750 681 812 q 714 780 674 758 q 772 811 754 802 q 867 861 829 842 q 955 901 905 880 q 1048 932 1004 922 q 1133 942 1093 942 q 1262 914 1208 942 q 1347 839 1316 886 q 1473 879 1413 835 q 1411 929 1431 892 q 1413 985 1392 964 q 1463 1000 1429 1000 q 1524 981 1508 1000 q 1528 934 1539 961 q 1485 882 1516 907 q 1508 879 1494 879 q 1592 904 1555 879 q 1674 982 1628 928 l 1678 978 q 1594 899 1632 924 q 1508 873 1556 873 q 1480 877 1495 873 q 1351 832 1420 830 q 1379 730 1379 783 q 1370 659 1379 692 q 1340 594 1360 625 q 1304 544 1320 564 q 1259 494 1287 524 q 1212 444 1228 463 q 1176 393 1195 425 q 1150 329 1158 361 q 1126 250 1141 286 q 1092 187 1111 214 q 1060 146 1073 161 q 1029 114 1048 131 q 1010 97 1011 98 l 874 -4 q 875 33 869 5 q 892 77 881 61 q 817 41 845 46 q 827 70 819 57 q 851 95 835 83 q 878 114 867 107 q 912 133 890 121 q 943 149 935 144 m 25 315 l 68 222 q 232 243 124 222 q 400 290 340 264 q 434 322 416 296 q 449 342 441 336 q 471 346 457 348 q 505 377 484 371 q 538 370 526 382 q 554 394 543 385 q 581 399 565 404 q 591 420 585 410 q 535 410 567 410 q 476 424 507 410 q 431 460 446 439 q 327 412 387 412 q 279 440 294 412 q 168 362 239 399 q 25 315 96 326 m 64 283 q 68 305 64 296 q 78 314 72 314 q 88 305 84 314 q 92 283 92 296 q 78 252 92 252 q 64 283 64 252 m 106 273 q 120 304 106 304 q 130 295 126 304 q 134 273 134 286 q 130 251 134 260 q 120 241 126 241 q 106 273 106 241 m 170 191 l 206 121 q 305 171 273 155 q 400 216 337 187 q 524 263 463 244 q 651 296 585 282 l 665 307 q 831 441 779 404 l 837 437 q 667 302 777 395 q 621 262 654 291 q 572 221 588 234 q 529 184 557 208 q 482 148 500 161 q 440 119 464 135 q 396 94 417 104 q 356 78 376 84 l 380 8 q 585 86 524 68 l 587 86 q 663 113 644 103 q 713 161 684 123 q 802 286 741 199 q 817 309 807 294 q 833 331 827 323 q 847 351 838 339 q 861 370 855 363 q 872 385 866 377 q 883 398 878 393 q 892 407 888 404 l 897 403 q 825 309 876 385 q 1002 536 937 366 q 1028 600 1016 573 q 1057 659 1040 627 q 1091 709 1074 690 q 1131 742 1108 729 q 1177 755 1153 755 q 1211 741 1202 755 q 1219 701 1219 727 q 1180 598 1219 665 q 1070 429 1141 532 l 1067 425 q 1046 287 1075 364 q 952 149 1017 209 l 1010 104 l 1024 117 q 1044 136 1038 129 q 1064 158 1050 142 q 1088 190 1078 174 q 1109 227 1097 205 q 1129 275 1120 248 q 1145 330 1139 301 q 1171 395 1152 363 q 1207 448 1190 427 q 1255 498 1225 469 q 1299 547 1284 529 q 1335 596 1315 566 q 1365 660 1356 627 q 1374 730 1374 692 q 1359 803 1374 767 q 1316 868 1345 838 q 1240 917 1288 899 q 1133 936 1192 936 q 1014 914 1080 936 q 903 871 947 892 q 777 806 859 850 q 738 785 763 798 q 693 760 713 771 q 654 741 673 749 q 586 623 625 667 q 614 581 604 604 l 609 578 q 570 629 593 612 q 523 647 547 646 q 475 638 498 647 q 433 612 452 629 q 405 578 415 596 q 290 528 321 576 q 385 506 345 511 q 480 507 424 500 q 614 538 536 514 l 616 532 q 435 498 502 498 q 287 524 369 498 q 275 482 276 507 q 287 438 273 458 q 327 418 300 418 q 376 428 353 418 q 409 446 399 438 q 431 468 418 454 q 475 431 444 447 q 535 415 506 415 q 600 429 570 415 q 702 396 633 454 q 654 328 746 358 q 454 294 572 300 q 416 293 433 293 q 404 285 412 288 q 300 253 359 267 q 170 191 225 214 m 347 472 q 374 489 347 489 q 393 484 386 489 q 400 472 400 479 q 393 460 400 465 q 374 456 386 456 q 347 472 347 456 m 431 850 q 416 752 415 816 q 439 623 417 689 q 515 652 476 651 q 480 761 504 698 q 431 850 456 825 m 431 309 q 462 310 444 308 q 465 340 465 319 q 454 337 458 340 q 446 330 449 334 q 438 319 444 327 q 431 309 434 313 m 476 342 q 507 322 488 328 q 535 363 528 335 q 503 370 519 376 q 476 342 488 364 m 540 649 q 581 627 563 644 q 644 730 616 665 q 675 844 672 796 q 599 776 635 827 q 540 649 563 725 m 543 365 q 570 345 554 348 q 584 362 581 348 q 585 392 588 377 q 634 380 611 380 q 641 427 644 397 q 585 392 600 441 q 543 368 553 401 q 543 367 543 368 q 543 365 543 366 m 549 309 q 581 315 562 311 q 560 336 570 333 q 549 309 551 327 m 566 478 q 574 492 566 486 q 596 497 583 497 q 617 492 609 497 q 625 478 625 486 q 617 464 625 469 q 596 458 609 458 q 574 464 583 458 q 566 478 566 469 m 602 319 q 645 330 622 323 q 608 354 624 354 q 602 319 597 340 m 656 334 q 708 370 703 350 q 666 379 679 385 q 656 334 658 367 m 867 249 l 922 197 q 939 232 928 213 q 958 267 949 252 q 983 308 966 281 q 1008 347 1000 335 q 1038 392 1015 358 q 1065 433 1060 425 q 1122 517 1104 490 q 1166 586 1140 544 q 1202 655 1192 628 q 1213 701 1213 682 q 1205 739 1213 728 q 1177 750 1197 750 q 1124 732 1149 750 q 1077 680 1099 714 q 1041 613 1056 646 q 1007 534 1025 581 q 999 514 1004 527 q 992 497 994 502 q 942 392 984 475 q 867 249 901 309 m 1463 994 q 1409 962 1413 994 q 1435 907 1405 935 q 1478 883 1454 890 q 1520 932 1508 907 q 1519 976 1533 958 q 1463 994 1505 994 z "},"ﬁ":{"ha":1211,"x_min":27,"x_max":1169,"o":"m 538 537 l 538 0 l 150 0 l 150 537 l 27 537 l 27 750 l 154 750 l 154 747 q 183 875 154 820 q 266 964 213 930 q 389 1013 319 997 q 543 1029 458 1029 q 688 1012 626 1029 l 688 824 q 636 830 661 830 q 530 750 532 830 l 1152 750 l 1152 0 l 765 0 l 765 537 l 538 537 m 749 916 q 810 1010 749 975 q 960 1046 870 1046 q 1109 1010 1049 1046 q 1169 916 1169 975 q 1109 823 1169 858 q 960 787 1048 787 q 810 823 870 787 q 749 916 749 858 z "},"ﬂ":{"ha":1220,"x_min":27,"x_max":1162,"o":"m 150 0 l 150 537 l 27 537 l 27 750 l 154 750 l 154 747 q 183 875 154 820 q 266 964 213 930 q 389 1013 319 997 q 543 1029 458 1029 q 688 1012 626 1029 l 688 824 q 636 830 661 830 q 530 750 532 830 l 694 750 l 694 537 l 538 537 l 538 0 l 150 0 m 775 0 l 775 972 l 1162 972 l 1162 0 l 775 0 z "},"＊":{"ha":1201,"x_min":73,"x_max":1127,"o":"m 981 86 l 745 233 l 745 0 l 455 0 l 455 233 l 220 86 l 74 320 l 339 486 l 73 651 l 220 886 l 455 739 l 455 972 l 745 972 l 745 739 l 981 886 l 1126 652 l 861 486 l 1127 320 l 981 86 z "},"＋":{"ha":1247,"x_min":82,"x_max":1165,"o":"m 82 345 l 82 636 l 457 636 l 457 972 l 790 972 l 790 636 l 1165 636 l 1165 345 l 790 345 l 790 0 l 457 0 l 457 345 l 82 345 z "}}}
